{"glyphs":{"0":{"ha":863,"x_min":78,"x_max":786,"o":"m 438 994 q 642 920 564 994 q 753 732 719 846 q 786 489 786 618 q 749 247 786 364 q 633 54 713 131 q 432 -22 553 -22 q 158 125 239 -22 q 78 482 78 272 q 116 726 78 608 q 235 919 154 843 q 438 994 315 994 m 435 942 q 272 815 324 942 q 221 511 221 689 q 270 178 221 325 q 440 32 319 32 q 596 156 549 32 q 643 460 643 281 q 595 801 643 660 q 435 942 547 942 z "},"1":{"ha":506,"x_min":25,"x_max":457,"o":"m 344 151 q 340 56 344 82 l 457 61 l 457 0 l 103 0 l 103 46 q 197 88 171 49 q 224 204 224 126 l 222 860 l 219 860 l 53 753 l 25 793 l 296 994 l 343 994 l 344 151 z "},"2":{"ha":746,"x_min":64,"x_max":674,"o":"m 360 994 q 568 934 485 994 q 651 743 651 874 q 587 578 651 669 q 379 369 522 486 q 223 221 282 289 q 154 106 164 153 l 400 99 q 483 97 431 97 q 596 117 560 97 q 632 194 632 136 l 674 194 l 665 0 l 64 0 q 92 142 64 79 q 163 252 121 204 q 282 372 204 300 q 338 424 336 422 q 467 582 426 508 q 508 725 508 656 q 469 878 508 817 q 338 940 429 940 q 236 913 281 940 q 176 842 192 885 q 201 781 201 815 q 185 736 201 757 q 136 715 168 715 q 88 737 106 715 q 69 792 69 758 q 103 882 69 835 q 203 962 138 929 q 360 994 269 994 z "},"3":{"ha":774,"x_min":61,"x_max":704,"o":"m 368 994 q 569 935 490 994 q 649 753 649 876 q 594 619 649 681 q 421 521 540 558 q 628 435 553 506 q 704 257 704 365 q 656 103 704 167 q 528 9 608 40 q 354 -22 449 -22 q 194 7 260 -22 q 94 79 128 36 q 61 167 61 122 q 79 222 61 200 q 129 243 97 243 q 176 223 161 243 q 190 181 190 203 q 175 125 190 158 q 235 58 188 81 q 344 36 282 36 q 503 91 444 36 q 561 247 561 146 q 510 419 561 354 q 325 485 458 485 q 264 482 311 485 l 264 544 l 321 544 q 432 576 389 544 q 494 653 475 607 q 514 742 514 699 q 476 888 514 835 q 349 940 439 940 q 244 909 290 940 q 186 840 199 878 q 208 783 208 817 q 193 743 208 763 q 147 724 178 724 q 101 744 118 724 q 85 794 85 764 q 117 883 85 836 q 215 962 150 929 q 368 994 279 994 z "},"4":{"ha":753,"x_min":17,"x_max":706,"o":"m 706 350 l 706 268 l 565 268 l 565 151 q 560 53 565 81 l 667 57 l 667 0 l 318 0 l 318 46 l 328 46 q 417 93 394 50 q 439 221 439 136 l 439 268 l 17 268 l 17 336 l 519 994 l 565 994 l 565 351 l 706 350 m 108 358 l 439 354 l 439 797 l 436 797 l 108 358 z "},"5":{"ha":756,"x_min":72,"x_max":694,"o":"m 174 869 l 174 564 q 266 592 213 581 q 375 603 319 603 q 555 558 483 603 q 660 443 626 514 q 694 292 694 372 q 648 122 694 193 q 524 14 601 50 q 353 -22 446 -22 q 205 7 269 -22 q 106 80 140 36 q 72 167 72 124 q 90 222 72 200 q 140 243 108 243 q 187 223 172 243 q 201 181 201 203 q 186 126 201 157 q 244 56 194 81 q 350 32 294 32 q 499 100 449 32 q 550 267 550 168 q 335 540 550 540 q 240 526 296 540 q 151 492 185 513 l 113 528 l 110 972 l 469 972 q 578 993 547 972 q 608 1063 608 1014 l 646 1063 l 638 879 l 174 869 z "},"6":{"ha":803,"x_min":78,"x_max":735,"o":"m 456 994 q 589 966 533 994 q 673 897 644 938 q 701 818 701 856 q 686 767 701 788 q 642 746 671 747 q 594 763 610 744 q 579 804 579 782 q 596 863 579 833 q 549 917 588 892 q 458 943 511 943 q 267 798 319 943 q 208 490 214 653 q 306 574 246 542 q 442 607 365 607 q 612 561 546 607 q 706 444 678 515 q 735 296 735 374 q 692 137 735 210 q 576 21 650 64 q 410 -22 501 -22 q 155 101 232 -22 q 78 457 78 224 q 110 687 78 564 q 226 902 142 810 q 456 994 311 994 m 413 544 q 290 499 349 544 q 210 392 231 453 q 265 134 218 236 q 413 32 313 32 q 549 99 504 32 q 594 265 594 165 q 555 458 594 372 q 413 544 515 544 z "},"7":{"ha":640,"x_min":31,"x_max":613,"o":"m 613 878 q 505 626 549 747 q 431 390 461 504 q 347 63 400 276 q 275 -22 325 -22 q 222 39 222 -22 q 242 128 222 72 q 297 272 261 185 l 317 322 l 335 368 q 451 656 406 546 q 549 876 496 765 l 182 875 q 64 767 64 872 l 31 767 l 31 972 l 613 972 l 613 878 z "},"8":{"ha":781,"x_min":82,"x_max":711,"o":"m 396 994 q 530 968 468 994 q 629 891 592 942 q 667 771 667 840 q 615 631 667 693 q 479 528 563 569 q 647 391 582 468 q 711 231 711 314 q 617 42 711 107 q 383 -22 524 -22 q 242 1 311 -22 q 128 75 174 24 q 82 208 82 126 q 293 493 82 363 q 101 743 101 608 q 144 883 101 826 q 254 967 186 939 q 396 994 322 994 m 396 940 q 274 891 318 940 q 231 774 231 842 q 286 643 231 700 q 431 556 342 586 q 526 653 493 599 q 558 761 558 707 q 515 894 558 847 q 396 940 471 940 m 346 468 q 234 346 269 414 q 199 218 199 278 q 251 84 199 135 q 390 33 304 33 q 526 78 478 33 q 575 204 575 124 q 346 468 575 371 z "},"9":{"ha":803,"x_min":67,"x_max":721,"o":"m 394 994 q 649 864 576 994 q 721 499 721 733 q 644 135 721 292 q 357 -22 567 -21 q 215 3 272 -22 q 131 69 158 29 q 104 149 104 108 q 120 200 104 179 q 165 222 136 221 q 212 204 196 224 q 228 163 228 185 q 208 106 228 133 q 253 51 218 72 q 350 31 288 31 q 540 170 489 31 q 590 481 592 310 q 493 397 553 429 q 357 364 433 364 q 188 410 253 364 q 94 526 122 456 q 67 674 67 596 q 107 837 67 764 q 222 952 147 910 q 394 994 297 994 m 385 942 q 252 872 300 942 q 204 704 204 803 q 244 512 204 597 q 386 426 283 426 q 509 472 450 426 q 589 579 568 518 q 534 838 581 735 q 385 942 488 942 z "},"\r":{"ha":258,"x_min":0,"x_max":0,"o":""}," ":{"ha":374,"x_min":0,"x_max":0,"o":""},"A":{"ha":869,"x_min":-18,"x_max":896,"o":"m 896 0 l 558 0 l 558 51 l 563 51 q 642 114 642 51 q 626 179 642 136 l 579 306 l 231 297 l 235 297 q 188 153 218 251 q 154 61 175 111 l 261 67 l 261 0 l -18 0 l -18 51 l -14 51 q 38 65 18 50 q 71 104 58 79 q 101 181 83 129 q 117 224 103 186 l 404 1001 l 454 1001 l 765 213 q 801 61 803 113 l 896 67 l 896 0 m 460 624 l 406 774 l 356 638 q 258 363 307 504 l 557 363 l 460 624 z "},"Á":{"ha":869,"x_min":-18,"x_max":896,"o":"m 0 0 m 896 0 l 558 0 l 558 51 l 563 51 q 642 114 642 51 q 626 179 642 136 l 579 306 l 231 297 l 235 297 q 188 153 218 251 q 154 61 175 111 l 261 67 l 261 0 l -18 0 l -18 51 l -14 51 q 38 65 18 50 q 71 104 58 79 q 101 181 83 129 q 117 224 103 186 l 404 1001 l 454 1001 l 765 213 q 801 61 803 113 l 896 67 l 896 0 m 460 624 l 406 774 l 356 638 q 258 363 307 504 l 557 363 l 460 624 m 581 1269 q 566 1281 576 1275 q 542 1288 556 1288 q 488 1263 517 1288 l 313 1096 l 343 1056 l 544 1179 q 589 1240 589 1207 q 581 1269 589 1258 z "},"Ă":{"ha":869,"x_min":-18,"x_max":896,"o":"m 0 0 m 896 0 l 558 0 l 558 51 l 563 51 q 642 114 642 51 q 626 179 642 136 l 579 306 l 231 297 l 235 297 q 188 153 218 251 q 154 61 175 111 l 261 67 l 261 0 l -18 0 l -18 51 l -14 51 q 38 65 18 50 q 71 104 58 79 q 101 181 83 129 q 117 224 103 186 l 404 1001 l 454 1001 l 765 213 q 801 61 803 113 l 896 67 l 896 0 m 460 624 l 406 774 l 356 638 q 258 363 307 504 l 557 363 l 460 624 m 639 1267 q 553 1160 607 1197 q 435 1124 499 1124 q 317 1160 371 1124 q 232 1267 263 1197 l 268 1283 q 338 1231 292 1253 q 435 1208 383 1208 q 532 1231 486 1208 q 601 1283 578 1253 l 639 1267 z "},"Â":{"ha":869,"x_min":-18,"x_max":896,"o":"m 0 0 m 896 0 l 558 0 l 558 51 l 563 51 q 642 114 642 51 q 626 179 642 136 l 579 306 l 231 297 l 235 297 q 188 153 218 251 q 154 61 175 111 l 261 67 l 261 0 l -18 0 l -18 51 l -14 51 q 38 65 18 50 q 71 104 58 79 q 101 181 83 129 q 117 224 103 186 l 404 1001 l 454 1001 l 765 213 q 801 61 803 113 l 896 67 l 896 0 m 460 624 l 406 774 l 356 638 q 258 363 307 504 l 557 363 l 460 624 m 658 1050 l 428 1172 l 425 1172 l 189 1051 l 161 1096 l 431 1293 l 433 1293 l 689 1097 l 658 1050 z "},"Ä":{"ha":869,"x_min":-18,"x_max":896,"o":"m 0 0 m 896 0 l 558 0 l 558 51 l 563 51 q 642 114 642 51 q 626 179 642 136 l 579 306 l 231 297 l 235 297 q 188 153 218 251 q 154 61 175 111 l 261 67 l 261 0 l -18 0 l -18 51 l -14 51 q 38 65 18 50 q 71 104 58 79 q 101 181 83 129 q 117 224 103 186 l 404 1001 l 454 1001 l 765 213 q 801 61 803 113 l 896 67 l 896 0 m 460 624 l 406 774 l 356 638 q 258 363 307 504 l 557 363 l 460 624 m 557 1259 q 615 1231 591 1259 q 639 1163 639 1202 q 614 1095 639 1123 q 556 1067 588 1067 q 499 1095 524 1067 q 475 1163 475 1123 q 500 1231 475 1202 q 557 1259 525 1259 m 307 1259 q 365 1231 341 1259 q 389 1163 389 1202 q 364 1095 389 1123 q 306 1067 338 1067 q 249 1095 274 1067 q 225 1163 225 1123 q 250 1231 225 1202 q 307 1259 275 1259 z "},"À":{"ha":869,"x_min":-18,"x_max":896,"o":"m 0 0 m 896 0 l 558 0 l 558 51 l 563 51 q 642 114 642 51 q 626 179 642 136 l 579 306 l 231 297 l 235 297 q 188 153 218 251 q 154 61 175 111 l 261 67 l 261 0 l -18 0 l -18 51 l -14 51 q 38 65 18 50 q 71 104 58 79 q 101 181 83 129 q 117 224 103 186 l 404 1001 l 454 1001 l 765 213 q 801 61 803 113 l 896 67 l 896 0 m 460 624 l 406 774 l 356 638 q 258 363 307 504 l 557 363 l 460 624 m 289 1269 q 303 1281 293 1275 q 328 1288 314 1288 q 382 1263 353 1288 l 557 1096 l 526 1056 l 325 1179 q 281 1240 281 1207 q 289 1269 281 1258 z "},"Ā":{"ha":869,"x_min":-18,"x_max":896,"o":"m 0 0 m 896 0 l 558 0 l 558 51 l 563 51 q 642 114 642 51 q 626 179 642 136 l 579 306 l 231 297 l 235 297 q 188 153 218 251 q 154 61 175 111 l 261 67 l 261 0 l -18 0 l -18 51 l -14 51 q 38 65 18 50 q 71 104 58 79 q 101 181 83 129 q 117 224 103 186 l 404 1001 l 454 1001 l 765 213 q 801 61 803 113 l 896 67 l 896 0 m 460 624 l 406 774 l 356 638 q 258 363 307 504 l 557 363 l 460 624 m 250 1167 l 250 1250 l 618 1250 l 618 1172 l 250 1167 z "},"Ą":{"ha":869,"x_min":-18,"x_max":896,"o":"m 783 0 q 651 -76 703 -28 q 600 -190 600 -125 q 625 -260 600 -233 q 686 -286 650 -286 q 776 -247 731 -286 l 800 -272 q 726 -334 771 -308 q 635 -360 682 -360 q 528 -320 568 -360 q 488 -218 488 -281 q 543 -97 488 -153 q 686 0 599 -40 l 558 0 l 558 51 l 563 51 q 642 114 642 51 q 626 179 642 136 l 579 306 l 231 297 l 235 297 q 188 153 218 251 q 154 61 175 111 l 261 67 l 261 0 l -18 0 l -18 51 l -14 51 q 38 65 18 50 q 71 104 58 79 q 101 181 83 129 q 117 224 103 186 l 404 1001 l 454 1001 l 765 213 q 801 61 803 113 l 896 67 l 896 0 l 783 0 m 460 624 l 406 774 l 356 638 q 258 363 307 504 l 557 363 l 460 624 z "},"Å":{"ha":869,"x_min":-18,"x_max":896,"o":"m 896 0 l 558 0 l 558 51 l 563 51 q 642 114 642 51 q 626 179 642 136 l 579 306 l 231 297 l 235 297 q 188 153 218 251 q 154 61 175 111 l 261 67 l 261 0 l -18 0 l -18 51 l -14 51 q 38 65 18 50 q 71 104 58 79 q 101 181 83 129 q 117 224 103 186 l 388 954 q 303 1002 336 965 q 269 1100 269 1039 q 292 1181 269 1146 q 351 1237 314 1217 q 426 1257 388 1257 q 538 1218 490 1257 q 586 1107 586 1179 q 553 1010 586 1050 q 472 956 521 969 l 765 213 q 801 61 803 113 l 896 67 l 896 0 m 350 1110 q 367 1038 350 1067 q 411 1001 383 1010 l 451 1001 q 490 1034 475 1010 q 506 1093 506 1058 q 484 1179 506 1149 q 426 1210 463 1210 q 371 1182 392 1210 q 350 1110 350 1154 m 460 624 l 406 774 l 356 638 q 258 363 307 504 l 557 363 l 460 624 z "},"Ã":{"ha":869,"x_min":-18,"x_max":896,"o":"m 0 0 m 896 0 l 558 0 l 558 51 l 563 51 q 642 114 642 51 q 626 179 642 136 l 579 306 l 231 297 l 235 297 q 188 153 218 251 q 154 61 175 111 l 261 67 l 261 0 l -18 0 l -18 51 l -14 51 q 38 65 18 50 q 71 104 58 79 q 101 181 83 129 q 117 224 103 186 l 404 1001 l 454 1001 l 765 213 q 801 61 803 113 l 896 67 l 896 0 m 460 624 l 406 774 l 356 638 q 258 363 307 504 l 557 363 l 460 624 m 315 1264 q 382 1250 354 1264 q 446 1208 410 1236 q 492 1177 472 1188 q 533 1167 511 1167 q 595 1191 568 1167 q 646 1257 622 1215 l 690 1235 q 619 1117 663 1154 q 525 1079 575 1079 q 455 1094 485 1079 q 386 1138 425 1110 q 341 1168 358 1158 q 304 1178 324 1178 q 253 1158 276 1178 q 201 1094 231 1138 l 154 1121 q 225 1224 179 1183 q 315 1264 271 1264 z "},"Æ":{"ha":1318,"x_min":-29,"x_max":1256,"o":"m 1160 729 q 1110 885 1160 843 q 972 924 1061 926 l 853 921 q 781 902 803 919 q 753 853 758 885 q 747 756 747 822 l 747 532 l 850 532 q 949 540 917 532 q 998 575 982 547 q 1014 663 1014 603 l 1060 663 l 1060 360 l 1014 360 q 998 445 1014 419 q 951 476 982 471 q 851 482 921 482 l 747 476 l 747 164 q 743 56 747 92 l 1017 51 q 1159 102 1110 50 q 1208 271 1208 154 l 1256 271 l 1247 0 l 531 0 l 531 50 l 542 50 q 610 83 593 54 q 626 181 626 113 l 626 307 l 289 300 l 125 56 l 231 61 l 231 0 l -29 0 l -29 46 q 32 65 4 46 q 78 107 60 83 q 126 174 97 131 l 628 917 l 503 911 l 503 972 l 1199 972 l 1206 729 l 1160 729 m 626 360 l 626 808 l 328 360 l 626 360 z "},"B":{"ha":864,"x_min":67,"x_max":819,"o":"m 515 522 q 740 451 661 519 q 819 275 819 383 q 776 129 819 192 q 656 33 732 67 q 482 0 579 0 l 67 0 l 67 51 l 71 51 q 132 67 113 51 q 157 109 151 82 q 163 183 163 136 l 163 226 l 163 804 q 167 911 163 874 l 67 906 l 67 972 l 71 972 q 390 975 276 975 q 649 916 557 975 q 740 740 740 857 q 683 606 740 667 q 515 522 625 544 m 394 538 q 547 595 499 539 q 594 738 594 651 q 538 880 594 840 q 397 919 481 919 q 336 908 356 919 q 310 869 317 896 q 303 788 303 842 l 303 535 l 394 538 m 436 58 q 604 111 543 58 q 665 267 665 164 q 603 432 665 385 q 436 479 542 479 q 299 475 363 479 l 303 475 l 303 167 q 299 61 303 96 l 294 61 q 392 58 321 58 l 436 58 z "},"C":{"ha":971,"x_min":54,"x_max":938,"o":"m 938 185 q 751 24 857 69 q 536 -21 646 -21 q 286 45 396 -21 q 115 224 176 111 q 54 471 54 336 q 110 724 54 604 q 277 918 165 843 q 546 993 389 993 q 815 919 693 993 l 810 983 l 904 983 l 904 656 l 835 656 q 747 858 821 786 q 556 931 674 931 q 381 876 460 931 q 256 722 301 822 q 210 488 210 621 q 258 263 210 361 q 390 111 307 165 q 572 57 472 57 q 749 99 665 57 q 889 219 833 140 l 938 185 z "},"Ć":{"ha":971,"x_min":54,"x_max":938,"o":"m 54 0 m 938 185 q 751 24 857 69 q 536 -21 646 -21 q 286 45 396 -21 q 115 224 176 111 q 54 471 54 336 q 110 724 54 604 q 277 918 165 843 q 546 993 389 993 q 815 919 693 993 l 810 983 l 904 983 l 904 656 l 835 656 q 747 858 821 786 q 556 931 674 931 q 381 876 460 931 q 256 722 301 822 q 210 488 210 621 q 258 263 210 361 q 390 111 307 165 q 572 57 472 57 q 749 99 665 57 q 889 219 833 140 l 938 185 m 701 1269 q 710 1240 710 1258 q 665 1179 710 1207 l 464 1056 l 433 1096 l 608 1263 q 663 1288 638 1288 q 687 1281 676 1288 q 701 1269 697 1275 z "},"Č":{"ha":971,"x_min":54,"x_max":938,"o":"m 54 0 m 938 185 q 751 24 857 69 q 536 -21 646 -21 q 286 45 396 -21 q 115 224 176 111 q 54 471 54 336 q 110 724 54 604 q 277 918 165 843 q 546 993 389 993 q 815 919 693 993 l 810 983 l 904 983 l 904 656 l 835 656 q 747 858 821 786 q 556 931 674 931 q 381 876 460 931 q 256 722 301 822 q 210 488 210 621 q 258 263 210 361 q 390 111 307 165 q 572 57 472 57 q 749 99 665 57 q 889 219 833 140 l 938 185 m 551 1083 l 549 1083 l 293 1279 l 324 1326 l 557 1204 l 793 1329 l 821 1285 l 551 1083 z "},"Ç":{"ha":971,"x_min":54,"x_max":938,"o":"m 938 185 q 755 26 858 72 q 544 -21 651 -19 l 517 -107 q 560 -90 535 -96 q 607 -85 586 -85 q 686 -112 658 -85 q 714 -183 714 -140 q 622 -301 714 -257 q 428 -361 529 -346 l 419 -308 q 541 -265 493 -296 q 589 -196 589 -235 q 576 -162 589 -174 q 544 -151 564 -151 q 483 -171 515 -151 l 433 -147 l 467 -17 q 251 68 346 0 q 106 242 157 136 q 54 471 54 347 q 110 724 54 604 q 277 918 165 843 q 546 993 389 993 q 815 919 693 993 l 810 983 l 904 983 l 904 656 l 835 656 q 747 858 821 786 q 556 931 674 931 q 381 876 460 931 q 256 722 301 822 q 210 488 210 621 q 258 263 210 361 q 390 111 307 165 q 572 57 472 57 q 749 99 665 57 q 889 219 833 140 l 938 185 z "},"D":{"ha":1035,"x_min":67,"x_max":981,"o":"m 404 974 q 706 921 576 975 q 908 756 836 867 q 981 482 981 646 q 919 243 981 353 q 735 67 857 133 q 442 0 613 0 l 67 0 l 67 51 l 71 51 q 138 72 118 51 q 160 119 157 92 q 163 219 163 147 l 163 814 q 167 911 163 869 l 67 906 l 67 972 l 404 974 m 438 58 q 640 114 551 58 q 776 267 728 169 q 825 488 825 365 q 716 804 825 692 q 389 917 607 917 q 332 903 350 917 q 308 864 314 889 q 303 794 303 839 l 303 753 l 303 167 q 299 61 303 97 l 294 61 q 438 58 342 58 z "},"Ð":{"ha":1036,"x_min":26,"x_max":982,"o":"m 406 974 q 708 921 578 975 q 910 756 838 867 q 982 482 982 646 q 920 243 982 353 q 736 67 858 133 q 443 0 614 0 l 68 0 l 68 51 l 72 51 q 139 72 119 51 q 161 119 158 92 q 164 219 164 147 l 164 465 l 26 465 l 26 524 l 164 524 l 164 814 q 168 911 164 869 l 68 906 l 68 972 l 406 974 m 439 58 q 641 114 553 58 q 778 267 729 169 q 826 488 826 365 q 717 804 826 692 q 390 917 608 917 q 333 903 351 917 q 310 864 315 889 q 304 794 304 839 l 304 753 l 304 524 l 546 524 l 546 465 l 304 465 l 304 167 q 300 61 304 97 l 296 61 q 439 58 343 58 z "},"Ď":{"ha":1035,"x_min":67,"x_max":981,"o":"m 67 0 m 404 974 q 706 921 576 975 q 908 756 836 867 q 981 482 981 646 q 919 243 981 353 q 735 67 857 133 q 442 0 613 0 l 67 0 l 67 51 l 71 51 q 138 72 118 51 q 160 119 157 92 q 163 219 163 147 l 163 814 q 167 911 163 869 l 67 906 l 67 972 l 404 974 m 438 58 q 640 114 551 58 q 776 267 728 169 q 825 488 825 365 q 716 804 825 692 q 389 917 607 917 q 332 903 350 917 q 308 864 314 889 q 303 794 303 839 l 303 753 l 303 167 q 299 61 303 97 l 294 61 q 438 58 342 58 m 503 1083 l 500 1083 l 244 1279 l 275 1326 l 508 1204 l 744 1329 l 772 1285 l 503 1083 z "},"Đ":{"ha":1036,"x_min":26,"x_max":982,"o":"m 26 0 m 406 974 q 708 921 578 975 q 910 756 838 867 q 982 482 982 646 q 920 243 982 353 q 736 67 858 133 q 443 0 614 0 l 68 0 l 68 51 l 72 51 q 139 72 119 51 q 161 119 158 92 q 164 219 164 147 l 164 465 l 26 465 l 26 524 l 164 524 l 164 814 q 168 911 164 869 l 68 906 l 68 972 l 406 974 m 439 58 q 641 114 553 58 q 778 267 729 169 q 826 488 826 365 q 717 804 826 692 q 390 917 608 917 q 333 903 351 917 q 310 864 315 889 q 304 794 304 839 l 304 753 l 304 524 l 546 524 l 546 465 l 304 465 l 304 167 q 300 61 304 97 l 296 61 q 439 58 343 58 z "},"E":{"ha":864,"x_min":67,"x_max":811,"o":"m 803 0 l 67 0 l 67 51 l 71 51 q 138 72 118 51 q 160 119 157 92 q 163 219 163 147 l 163 814 q 167 911 163 869 l 67 906 l 67 972 l 754 972 l 761 724 l 696 724 q 651 880 697 839 q 518 918 604 921 l 399 915 q 333 897 353 914 q 308 850 313 881 q 303 753 303 819 l 303 536 l 544 535 l 535 654 l 615 654 l 615 357 l 550 357 q 540 436 550 410 q 506 472 529 463 q 439 481 483 481 l 394 479 l 303 475 l 303 163 q 299 57 303 93 l 554 61 q 697 110 649 63 q 744 276 746 157 l 811 276 l 803 0 z "},"É":{"ha":864,"x_min":67,"x_max":811,"o":"m 67 0 m 803 0 l 67 0 l 67 51 l 71 51 q 138 72 118 51 q 160 119 157 92 q 163 219 163 147 l 163 814 q 167 911 163 869 l 67 906 l 67 972 l 754 972 l 761 724 l 696 724 q 651 880 697 839 q 518 918 604 921 l 399 915 q 333 897 353 914 q 308 850 313 881 q 303 753 303 819 l 303 536 l 544 535 l 535 654 l 615 654 l 615 357 l 550 357 q 540 436 550 410 q 506 472 529 463 q 439 481 483 481 l 394 479 l 303 475 l 303 163 q 299 57 303 93 l 554 61 q 697 110 649 63 q 744 276 746 157 l 811 276 l 803 0 m 600 1269 q 585 1281 596 1275 q 561 1288 575 1288 q 507 1263 536 1288 l 332 1096 l 363 1056 l 564 1179 q 608 1240 608 1207 q 600 1269 608 1258 z "},"Ě":{"ha":864,"x_min":67,"x_max":811,"o":"m 67 0 m 803 0 l 67 0 l 67 51 l 71 51 q 138 72 118 51 q 160 119 157 92 q 163 219 163 147 l 163 814 q 167 911 163 869 l 67 906 l 67 972 l 754 972 l 761 724 l 696 724 q 651 880 697 839 q 518 918 604 921 l 399 915 q 333 897 353 914 q 308 850 313 881 q 303 753 303 819 l 303 536 l 544 535 l 535 654 l 615 654 l 615 357 l 550 357 q 540 436 550 410 q 506 472 529 463 q 439 481 483 481 l 394 479 l 303 475 l 303 163 q 299 57 303 93 l 554 61 q 697 110 649 63 q 744 276 746 157 l 811 276 l 803 0 m 463 1083 l 460 1083 l 204 1279 l 235 1326 l 468 1204 l 704 1329 l 732 1285 l 463 1083 z "},"Ê":{"ha":864,"x_min":67,"x_max":811,"o":"m 67 0 m 803 0 l 67 0 l 67 51 l 71 51 q 138 72 118 51 q 160 119 157 92 q 163 219 163 147 l 163 814 q 167 911 163 869 l 67 906 l 67 972 l 754 972 l 761 724 l 696 724 q 651 880 697 839 q 518 918 604 921 l 399 915 q 333 897 353 914 q 308 850 313 881 q 303 753 303 819 l 303 536 l 544 535 l 535 654 l 615 654 l 615 357 l 550 357 q 540 436 550 410 q 506 472 529 463 q 439 481 483 481 l 394 479 l 303 475 l 303 163 q 299 57 303 93 l 554 61 q 697 110 649 63 q 744 276 746 157 l 811 276 l 803 0 m 688 1050 l 457 1172 l 454 1172 l 218 1051 l 190 1096 l 460 1293 l 463 1293 l 718 1097 l 688 1050 z "},"Ë":{"ha":864,"x_min":67,"x_max":811,"o":"m 67 0 m 803 0 l 67 0 l 67 51 l 71 51 q 138 72 118 51 q 160 119 157 92 q 163 219 163 147 l 163 814 q 167 911 163 869 l 67 906 l 67 972 l 754 972 l 761 724 l 696 724 q 651 880 697 839 q 518 918 604 921 l 399 915 q 333 897 353 914 q 308 850 313 881 q 303 753 303 819 l 303 536 l 544 535 l 535 654 l 615 654 l 615 357 l 550 357 q 540 436 550 410 q 506 472 529 463 q 439 481 483 481 l 394 479 l 303 475 l 303 163 q 299 57 303 93 l 554 61 q 697 110 649 63 q 744 276 746 157 l 811 276 l 803 0 m 580 1259 q 637 1231 613 1259 q 661 1163 661 1202 q 636 1095 661 1123 q 578 1067 611 1067 q 522 1095 546 1067 q 497 1163 497 1123 q 522 1231 497 1202 q 580 1259 547 1259 m 331 1259 q 389 1231 365 1259 q 412 1163 412 1202 q 387 1095 412 1123 q 330 1067 362 1067 q 273 1095 298 1067 q 248 1163 248 1123 q 274 1231 248 1202 q 331 1259 299 1259 z "},"Ė":{"ha":864,"x_min":67,"x_max":811,"o":"m 67 0 m 803 0 l 67 0 l 67 51 l 71 51 q 138 72 118 51 q 160 119 157 92 q 163 219 163 147 l 163 814 q 167 911 163 869 l 67 906 l 67 972 l 754 972 l 761 724 l 696 724 q 651 880 697 839 q 518 918 604 921 l 399 915 q 333 897 353 914 q 308 850 313 881 q 303 753 303 819 l 303 536 l 544 535 l 535 654 l 615 654 l 615 357 l 550 357 q 540 436 550 410 q 506 472 529 463 q 439 481 483 481 l 394 479 l 303 475 l 303 163 q 299 57 303 93 l 554 61 q 697 110 649 63 q 744 276 746 157 l 811 276 l 803 0 m 456 1296 q 513 1269 489 1296 q 536 1206 536 1243 q 511 1143 536 1169 q 454 1117 486 1117 q 398 1143 422 1117 q 374 1206 374 1169 q 399 1269 374 1243 q 456 1296 424 1296 z "},"È":{"ha":864,"x_min":67,"x_max":811,"o":"m 67 0 m 803 0 l 67 0 l 67 51 l 71 51 q 138 72 118 51 q 160 119 157 92 q 163 219 163 147 l 163 814 q 167 911 163 869 l 67 906 l 67 972 l 754 972 l 761 724 l 696 724 q 651 880 697 839 q 518 918 604 921 l 399 915 q 333 897 353 914 q 308 850 313 881 q 303 753 303 819 l 303 536 l 544 535 l 535 654 l 615 654 l 615 357 l 550 357 q 540 436 550 410 q 506 472 529 463 q 439 481 483 481 l 394 479 l 303 475 l 303 163 q 299 57 303 93 l 554 61 q 697 110 649 63 q 744 276 746 157 l 811 276 l 803 0 m 308 1269 q 323 1281 313 1275 q 347 1288 333 1288 q 401 1263 372 1288 l 576 1096 l 546 1056 l 344 1179 q 300 1240 300 1207 q 308 1269 300 1258 z "},"Ē":{"ha":864,"x_min":67,"x_max":811,"o":"m 67 0 m 803 0 l 67 0 l 67 51 l 71 51 q 138 72 118 51 q 160 119 157 92 q 163 219 163 147 l 163 814 q 167 911 163 869 l 67 906 l 67 972 l 754 972 l 761 724 l 696 724 q 651 880 697 839 q 518 918 604 921 l 399 915 q 333 897 353 914 q 308 850 313 881 q 303 753 303 819 l 303 536 l 544 535 l 535 654 l 615 654 l 615 357 l 550 357 q 540 436 550 410 q 506 472 529 463 q 439 481 483 481 l 394 479 l 303 475 l 303 163 q 299 57 303 93 l 554 61 q 697 110 649 63 q 744 276 746 157 l 811 276 l 803 0 m 269 1167 l 269 1250 l 638 1250 l 638 1172 l 269 1167 z "},"Ę":{"ha":864,"x_min":67,"x_max":811,"o":"m 761 0 q 642 -76 688 -29 q 596 -183 596 -122 q 621 -253 596 -226 q 682 -279 646 -279 q 772 -240 726 -279 l 796 -265 q 722 -327 767 -301 q 631 -353 678 -353 q 524 -313 564 -353 q 483 -211 483 -274 q 535 -94 483 -149 q 667 0 586 -39 l 67 0 l 67 51 l 71 51 q 138 72 118 51 q 160 119 157 92 q 163 219 163 147 l 163 814 q 167 911 163 869 l 67 906 l 67 972 l 754 972 l 761 724 l 696 724 q 651 880 697 839 q 518 918 604 921 l 399 915 q 333 897 353 914 q 308 850 313 881 q 303 753 303 819 l 303 536 l 544 535 l 535 654 l 615 654 l 615 357 l 550 357 q 540 436 550 410 q 506 472 529 463 q 439 481 483 481 l 394 479 l 303 475 l 303 163 q 299 57 303 93 l 554 61 q 697 110 649 63 q 744 276 746 157 l 811 276 l 803 0 l 761 0 z "},"F":{"ha":761,"x_min":67,"x_max":738,"o":"m 672 724 q 626 880 674 839 q 490 918 578 921 l 389 915 q 326 894 344 914 q 306 845 308 874 q 303 747 303 817 l 303 514 l 525 513 l 515 633 l 596 633 l 596 335 l 532 335 q 522 414 532 388 q 489 450 511 440 q 425 460 467 460 q 376 458 394 460 l 303 454 l 303 168 q 299 61 303 99 l 440 67 l 440 0 l 67 0 l 67 51 l 71 51 q 138 72 118 51 q 160 119 157 92 q 163 219 163 147 l 163 814 q 167 911 163 869 l 67 906 l 67 972 l 731 972 l 738 724 l 672 724 z "},"G":{"ha":1057,"x_min":56,"x_max":1038,"o":"m 1038 425 l 1033 425 q 953 378 969 428 q 938 267 938 329 l 938 51 l 890 51 q 744 15 836 51 q 644 -11 703 -1 q 538 -21 586 -21 q 287 39 396 -21 q 117 208 178 99 q 56 465 56 318 q 112 719 56 599 q 280 917 168 840 q 549 993 392 993 q 694 975 619 993 q 826 925 769 957 l 821 983 l 917 983 l 917 660 l 847 660 q 759 860 839 789 q 558 932 679 932 q 384 876 464 932 q 258 722 304 821 q 211 497 211 622 q 258 267 211 369 q 386 108 304 165 q 574 51 468 51 q 691 68 631 51 q 803 118 751 85 l 801 118 l 801 415 l 704 410 l 704 476 l 1038 476 l 1038 425 z "},"Ğ":{"ha":1057,"x_min":56,"x_max":1038,"o":"m 56 0 m 1038 425 l 1033 425 q 953 378 969 428 q 938 267 938 329 l 938 51 l 890 51 q 744 15 836 51 q 644 -11 703 -1 q 538 -21 586 -21 q 287 39 396 -21 q 117 208 178 99 q 56 465 56 318 q 112 719 56 599 q 280 917 168 840 q 549 993 392 993 q 694 975 619 993 q 826 925 769 957 l 821 983 l 917 983 l 917 660 l 847 660 q 759 860 839 789 q 558 932 679 932 q 384 876 464 932 q 258 722 304 821 q 211 497 211 622 q 258 267 211 369 q 386 108 304 165 q 574 51 468 51 q 691 68 631 51 q 803 118 751 85 l 801 118 l 801 415 l 704 410 l 704 476 l 1038 476 l 1038 425 m 754 1267 q 668 1160 722 1197 q 550 1124 614 1124 q 432 1160 486 1124 q 347 1267 378 1197 l 383 1283 q 453 1231 407 1253 q 550 1208 499 1208 q 647 1231 601 1208 q 717 1283 693 1253 l 754 1267 z "},"Ģ":{"ha":1057,"x_min":56,"x_max":1038,"o":"m 56 0 m 1038 425 l 1033 425 q 953 378 969 428 q 938 267 938 329 l 938 51 l 890 51 q 744 15 836 51 q 644 -11 703 -1 q 538 -21 586 -21 q 287 39 396 -21 q 117 208 178 99 q 56 465 56 318 q 112 719 56 599 q 280 917 168 840 q 549 993 392 993 q 694 975 619 993 q 826 925 769 957 l 821 983 l 917 983 l 917 660 l 847 660 q 759 860 839 789 q 558 932 679 932 q 384 876 464 932 q 258 722 304 821 q 211 497 211 622 q 258 267 211 369 q 386 108 304 165 q 574 51 468 51 q 691 68 631 51 q 803 118 751 85 l 801 118 l 801 415 l 704 410 l 704 476 l 1038 476 l 1038 425 m 632 -56 q 654 -144 654 -99 q 542 -360 654 -247 l 506 -333 q 553 -178 553 -246 q 536 -83 553 -132 l 632 -56 z "},"H":{"ha":1083,"x_min":71,"x_max":1013,"o":"m 1013 921 q 943 901 964 921 q 919 853 922 881 q 917 753 917 825 l 917 168 q 913 61 917 97 l 1013 67 l 1013 0 l 689 0 l 689 51 q 758 72 738 51 q 782 119 779 92 q 785 219 785 147 l 785 467 l 299 461 l 299 168 q 294 61 299 97 l 394 67 l 394 0 l 71 0 l 71 51 q 140 72 119 51 q 164 119 161 92 q 167 219 167 147 l 167 814 q 171 911 167 869 l 71 906 l 71 972 l 394 972 l 394 921 q 325 901 346 921 q 301 853 304 881 q 299 753 299 825 l 299 528 l 785 528 l 785 814 q 789 911 785 869 l 689 906 l 689 972 l 1013 972 l 1013 921 z "},"I":{"ha":465,"x_min":67,"x_max":399,"o":"m 394 921 q 328 901 347 921 q 306 853 308 881 q 303 753 303 825 l 303 168 q 299 61 303 99 l 399 67 l 399 0 l 67 0 l 67 51 l 71 51 q 138 72 118 51 q 160 119 157 92 q 163 219 163 147 l 163 814 q 167 911 163 869 l 67 906 l 67 972 l 399 972 l 399 921 l 394 921 z "},"Í":{"ha":465,"x_min":67,"x_max":399,"o":"m 67 0 m 394 921 q 328 901 347 921 q 306 853 308 881 q 303 753 303 825 l 303 168 q 299 61 303 99 l 399 67 l 399 0 l 67 0 l 67 51 l 71 51 q 138 72 118 51 q 160 119 157 92 q 163 219 163 147 l 163 814 q 167 911 163 869 l 67 906 l 67 972 l 399 972 l 399 921 l 394 921 m 383 1269 q 369 1281 379 1275 q 344 1288 358 1288 q 290 1263 319 1288 l 115 1096 l 146 1056 l 347 1179 q 392 1240 392 1207 q 383 1269 392 1258 z "},"Î":{"ha":465,"x_min":-12,"x_max":488,"o":"m 457 1050 l 240 1172 l 238 1172 l 15 1051 l -12 1096 l 243 1293 l 246 1293 l 488 1097 l 457 1050 m 399 972 l 399 921 l 394 921 q 328 901 347 921 q 306 853 308 881 q 303 753 303 825 l 303 168 q 299 61 303 99 l 399 67 l 399 0 l 67 0 l 67 51 l 71 51 q 138 72 118 51 q 160 119 157 92 q 163 219 163 147 l 163 814 q 167 911 163 869 l 67 906 l 67 972 l 399 972 z "},"Ï":{"ha":465,"x_min":51,"x_max":438,"o":"m 51 0 m 394 921 q 328 901 347 921 q 306 853 308 881 q 303 753 303 825 l 303 168 q 299 61 303 99 l 399 67 l 399 0 l 67 0 l 67 51 l 71 51 q 138 72 118 51 q 160 119 157 92 q 163 219 163 147 l 163 814 q 167 911 163 869 l 67 906 l 67 972 l 399 972 l 399 921 l 394 921 m 356 1259 q 414 1231 390 1259 q 437 1163 437 1202 q 412 1095 437 1123 q 355 1067 387 1067 q 298 1095 323 1067 q 273 1163 273 1123 q 299 1231 273 1202 q 356 1259 324 1259 m 134 1259 q 191 1231 167 1259 q 215 1163 215 1202 q 190 1095 215 1123 q 133 1067 165 1067 q 76 1095 100 1067 q 51 1163 51 1123 q 76 1231 51 1202 q 134 1259 102 1259 z "},"İ":{"ha":465,"x_min":67,"x_max":399,"o":"m 67 0 m 394 921 q 328 901 347 921 q 306 853 308 881 q 303 753 303 825 l 303 168 q 299 61 303 99 l 399 67 l 399 0 l 67 0 l 67 51 l 71 51 q 138 72 118 51 q 160 119 157 92 q 163 219 163 147 l 163 814 q 167 911 163 869 l 67 906 l 67 972 l 399 972 l 399 921 l 394 921 m 239 1296 q 296 1269 272 1296 q 319 1206 319 1243 q 294 1143 319 1169 q 238 1117 269 1117 q 181 1143 206 1117 q 157 1206 157 1169 q 182 1269 157 1243 q 239 1296 207 1296 z "},"Ì":{"ha":465,"x_min":67,"x_max":399,"o":"m 67 0 m 394 921 q 328 901 347 921 q 306 853 308 881 q 303 753 303 825 l 303 168 q 299 61 303 99 l 399 67 l 399 0 l 67 0 l 67 51 l 71 51 q 138 72 118 51 q 160 119 157 92 q 163 219 163 147 l 163 814 q 167 911 163 869 l 67 906 l 67 972 l 399 972 l 399 921 l 394 921 m 92 1269 q 106 1281 96 1275 q 131 1288 117 1288 q 185 1263 156 1288 l 360 1096 l 329 1056 l 128 1179 q 83 1240 83 1207 q 92 1269 83 1258 z "},"Ī":{"ha":465,"x_min":53,"x_max":421,"o":"m 53 0 m 394 921 q 328 901 347 921 q 306 853 308 881 q 303 753 303 825 l 303 168 q 299 61 303 99 l 399 67 l 399 0 l 67 0 l 67 51 l 71 51 q 138 72 118 51 q 160 119 157 92 q 163 219 163 147 l 163 814 q 167 911 163 869 l 67 906 l 67 972 l 399 972 l 399 921 l 394 921 m 53 1167 l 53 1250 l 421 1250 l 421 1172 l 53 1167 z "},"Į":{"ha":465,"x_min":67,"x_max":399,"o":"m 394 921 q 328 901 347 921 q 306 853 308 881 q 303 753 303 825 l 303 168 q 299 61 303 99 l 399 67 l 399 0 l 382 0 q 250 -76 301 -28 q 199 -190 199 -125 q 224 -260 199 -233 q 285 -286 249 -286 q 375 -247 329 -286 l 399 -272 q 325 -334 369 -308 q 233 -360 281 -360 q 126 -320 167 -360 q 86 -218 86 -281 q 142 -97 86 -153 q 285 0 197 -40 l 67 0 l 67 51 l 71 51 q 138 72 118 51 q 160 119 157 92 q 163 219 163 147 l 163 814 q 167 911 163 869 l 67 906 l 67 972 l 399 972 l 399 921 l 394 921 z "},"J":{"ha":518,"x_min":-12,"x_max":486,"o":"m 482 921 q 400 888 421 922 q 379 786 379 854 l 379 343 q 324 64 379 149 q 144 -21 269 -21 q 34 8 81 -21 q -12 81 -12 36 q 6 133 -12 111 q 63 156 25 156 q 112 135 96 156 q 128 92 128 115 q 122 61 128 76 q 142 45 129 50 q 167 42 156 40 q 222 78 204 43 q 239 197 239 113 l 239 911 l 97 906 l 97 972 l 486 972 l 486 921 l 482 921 z "},"K":{"ha":949,"x_min":67,"x_max":951,"o":"m 951 0 l 772 0 q 624 138 731 0 l 457 360 q 399 433 421 407 q 357 471 376 458 l 303 469 l 303 168 q 303 131 303 157 q 301 90 303 104 q 294 61 299 76 l 399 67 l 399 0 l 67 0 l 67 51 l 71 51 q 138 72 118 51 q 160 119 157 92 q 163 219 163 147 l 163 814 q 167 911 163 869 l 67 906 l 67 972 l 399 972 l 399 921 l 394 921 q 328 901 347 921 q 306 853 308 881 q 303 753 303 825 l 303 531 l 390 531 l 563 800 q 657 913 610 872 l 575 910 l 575 972 l 893 972 l 893 921 q 783 902 826 917 q 699 849 740 888 q 611 735 658 810 l 475 522 q 534 475 511 500 q 590 406 557 450 l 746 201 q 831 100 799 132 q 888 60 864 68 q 947 51 911 51 l 951 51 l 951 0 z "},"Ķ":{"ha":949,"x_min":67,"x_max":951,"o":"m 67 0 m 951 0 l 772 0 q 624 138 731 0 l 457 360 q 399 433 421 407 q 357 471 376 458 l 303 469 l 303 168 q 303 131 303 157 q 301 90 303 104 q 294 61 299 76 l 399 67 l 399 0 l 67 0 l 67 51 l 71 51 q 138 72 118 51 q 160 119 157 92 q 163 219 163 147 l 163 814 q 167 911 163 869 l 67 906 l 67 972 l 399 972 l 399 921 l 394 921 q 328 901 347 921 q 306 853 308 881 q 303 753 303 825 l 303 531 l 390 531 l 563 800 q 657 913 610 872 l 575 910 l 575 972 l 893 972 l 893 921 q 783 902 826 917 q 699 849 740 888 q 611 735 658 810 l 475 522 q 534 475 511 500 q 590 406 557 450 l 746 201 q 831 100 799 132 q 888 60 864 68 q 947 51 911 51 l 951 51 l 951 0 m 564 -56 q 586 -144 586 -99 q 474 -360 586 -247 l 438 -333 q 485 -178 485 -246 q 468 -83 485 -132 l 564 -56 z "},"L":{"ha":803,"x_min":67,"x_max":783,"o":"m 775 0 l 67 0 l 67 51 l 71 51 q 138 72 118 51 q 160 119 157 92 q 163 219 163 147 l 163 814 q 167 911 163 869 l 67 906 l 67 972 l 399 972 l 399 921 l 394 921 q 328 901 347 921 q 306 853 308 881 q 303 753 303 825 l 303 163 q 299 57 303 93 l 549 61 q 676 117 635 63 q 717 293 717 171 l 783 293 l 775 0 z "},"Ĺ":{"ha":803,"x_min":67,"x_max":783,"o":"m 67 0 m 775 0 l 67 0 l 67 51 l 71 51 q 138 72 118 51 q 160 119 157 92 q 163 219 163 147 l 163 814 q 167 911 163 869 l 67 906 l 67 972 l 399 972 l 399 921 l 394 921 q 328 901 347 921 q 306 853 308 881 q 303 753 303 825 l 303 163 q 299 57 303 93 l 549 61 q 676 117 635 63 q 717 293 717 171 l 783 293 l 775 0 m 413 1269 q 421 1240 421 1258 q 376 1179 421 1207 l 175 1056 l 144 1096 l 319 1263 q 374 1288 349 1288 q 398 1281 388 1288 q 413 1269 408 1275 z "},"Ľ":{"ha":803,"x_min":67,"x_max":783,"o":"m 540 706 q 592 890 592 804 q 579 985 592 939 l 675 967 q 692 906 692 932 q 660 788 692 847 q 576 678 628 729 l 540 706 m 775 0 l 67 0 l 67 51 l 71 51 q 138 72 118 51 q 160 119 157 92 q 163 219 163 147 l 163 814 q 167 911 163 869 l 67 906 l 67 972 l 399 972 l 399 921 l 394 921 q 328 901 347 921 q 306 853 308 881 q 303 753 303 825 l 303 163 q 299 57 303 93 l 549 61 q 676 117 635 63 q 717 293 717 171 l 783 293 l 775 0 z "},"Ļ":{"ha":803,"x_min":67,"x_max":783,"o":"m 67 0 m 775 0 l 67 0 l 67 51 l 71 51 q 138 72 118 51 q 160 119 157 92 q 163 219 163 147 l 163 814 q 167 911 163 869 l 67 906 l 67 972 l 399 972 l 399 921 l 394 921 q 328 901 347 921 q 306 853 308 881 q 303 753 303 825 l 303 163 q 299 57 303 93 l 549 61 q 676 117 635 63 q 717 293 717 171 l 783 293 l 775 0 m 482 -56 q 504 -144 504 -99 q 392 -360 504 -247 l 356 -333 q 403 -178 403 -246 q 386 -83 403 -132 l 482 -56 z "},"Ł":{"ha":803,"x_min":67,"x_max":783,"o":"m 775 0 l 67 0 l 67 51 l 71 51 q 138 72 118 51 q 160 119 157 92 q 163 219 163 147 l 163 388 l 67 317 l 67 394 l 163 465 l 163 814 q 167 911 163 869 l 67 906 l 67 972 l 399 972 l 399 921 l 394 921 q 328 901 347 921 q 306 853 308 881 q 303 753 303 825 l 303 568 l 542 744 l 542 668 l 303 492 l 303 163 q 299 57 303 93 l 549 61 q 676 117 635 63 q 717 293 717 171 l 783 293 l 775 0 z "},"M":{"ha":1275,"x_min":51,"x_max":1238,"o":"m 1238 0 l 907 0 l 907 51 l 911 51 q 981 80 963 51 q 1000 172 1000 108 q 999 214 1000 199 l 965 764 l 963 757 l 650 -6 l 592 -6 l 488 226 q 356 517 410 394 q 253 767 301 640 l 253 754 q 251 721 253 733 q 238 176 240 351 q 236 147 238 157 q 232 61 236 101 l 336 67 l 336 0 l 51 0 l 51 51 l 56 51 q 128 81 111 50 q 147 176 144 113 l 178 911 l 78 907 l 78 972 l 308 972 l 649 200 q 711 354 693 306 q 831 639 750 454 q 969 972 926 861 l 1193 972 l 1193 921 l 1189 921 q 1119 897 1142 924 q 1096 801 1096 869 l 1097 772 l 1133 146 q 1136 63 1136 115 l 1238 67 l 1238 0 z "},"N":{"ha":1058,"x_min":69,"x_max":1008,"o":"m 1008 921 l 1004 921 q 931 892 947 919 q 915 804 915 865 l 915 753 l 913 -22 l 829 -22 l 242 761 l 246 196 q 243 61 246 106 l 343 67 l 343 0 l 69 0 l 69 51 l 74 51 q 144 81 126 50 q 161 158 161 113 l 163 911 l 69 906 l 69 972 l 251 972 l 828 207 l 829 814 q 833 911 829 869 l 733 906 l 733 972 l 1008 972 l 1008 921 z "},"Ń":{"ha":1058,"x_min":69,"x_max":1008,"o":"m 69 0 m 1008 921 l 1004 921 q 931 892 947 919 q 915 804 915 865 l 915 753 l 913 -22 l 829 -22 l 242 761 l 246 196 q 243 61 246 106 l 343 67 l 343 0 l 69 0 l 69 51 l 74 51 q 144 81 126 50 q 161 158 161 113 l 163 911 l 69 906 l 69 972 l 251 972 l 828 207 l 829 814 q 833 911 829 869 l 733 906 l 733 972 l 1008 972 l 1008 921 m 710 1269 q 718 1240 718 1258 q 674 1179 718 1207 l 472 1056 l 442 1096 l 617 1263 q 671 1288 646 1288 q 695 1281 685 1288 q 710 1269 706 1275 z "},"Ň":{"ha":1058,"x_min":69,"x_max":1008,"o":"m 69 0 m 1008 921 l 1004 921 q 931 892 947 919 q 915 804 915 865 l 915 753 l 913 -22 l 829 -22 l 242 761 l 246 196 q 243 61 246 106 l 343 67 l 343 0 l 69 0 l 69 51 l 74 51 q 144 81 126 50 q 161 158 161 113 l 163 911 l 69 906 l 69 972 l 251 972 l 828 207 l 829 814 q 833 911 829 869 l 733 906 l 733 972 l 1008 972 l 1008 921 m 538 1083 l 535 1083 l 279 1279 l 310 1326 l 543 1204 l 779 1329 l 807 1285 l 538 1083 z "},"Ņ":{"ha":1058,"x_min":69,"x_max":1008,"o":"m 69 0 m 1008 921 l 1004 921 q 931 892 947 919 q 915 804 915 865 l 915 753 l 913 -22 l 829 -22 l 242 761 l 246 196 q 243 61 246 106 l 343 67 l 343 0 l 69 0 l 69 51 l 74 51 q 144 81 126 50 q 161 158 161 113 l 163 911 l 69 906 l 69 972 l 251 972 l 828 207 l 829 814 q 833 911 829 869 l 733 906 l 733 972 l 1008 972 l 1008 921 m 568 -56 q 590 -144 590 -99 q 478 -360 590 -247 l 442 -333 q 489 -178 489 -246 q 472 -83 489 -132 l 568 -56 z "},"Ñ":{"ha":1058,"x_min":69,"x_max":1008,"o":"m 69 0 m 1008 921 l 1004 921 q 931 892 947 919 q 915 804 915 865 l 915 753 l 913 -22 l 829 -22 l 242 761 l 246 196 q 243 61 246 106 l 343 67 l 343 0 l 69 0 l 69 51 l 74 51 q 144 81 126 50 q 161 158 161 113 l 163 911 l 69 906 l 69 972 l 251 972 l 828 207 l 829 814 q 833 911 829 869 l 733 906 l 733 972 l 1008 972 l 1008 921 m 431 1264 q 497 1250 469 1264 q 561 1208 525 1236 q 607 1177 588 1188 q 649 1167 626 1167 q 710 1191 683 1167 q 761 1257 738 1215 l 806 1235 q 734 1117 778 1154 q 640 1079 690 1079 q 570 1094 600 1079 q 501 1138 540 1110 q 456 1168 474 1158 q 419 1178 439 1178 q 369 1158 392 1178 q 317 1094 346 1138 l 269 1121 q 340 1224 294 1183 q 431 1264 386 1264 z "},"O":{"ha":1103,"x_min":54,"x_max":1051,"o":"m 547 994 q 825 918 711 994 q 995 724 939 842 q 1051 486 1051 607 q 996 248 1051 365 q 828 54 940 131 q 558 -22 717 -22 q 274 52 388 -22 q 108 242 161 126 q 54 486 54 358 q 110 725 54 608 q 277 918 165 842 q 547 994 389 994 m 543 933 q 363 872 438 933 q 249 714 288 811 q 210 511 210 617 q 249 293 210 401 q 369 113 289 185 q 561 40 449 40 q 741 101 665 40 q 855 258 817 161 q 893 460 893 354 q 851 685 893 576 q 728 864 808 794 q 543 933 649 933 z "},"Ó":{"ha":1103,"x_min":54,"x_max":1051,"o":"m 54 0 m 547 994 q 825 918 711 994 q 995 724 939 842 q 1051 486 1051 607 q 996 248 1051 365 q 828 54 940 131 q 558 -22 717 -22 q 274 52 388 -22 q 108 242 161 126 q 54 486 54 358 q 110 725 54 608 q 277 918 165 842 q 547 994 389 994 m 543 933 q 363 872 438 933 q 249 714 288 811 q 210 511 210 617 q 249 293 210 401 q 369 113 289 185 q 561 40 449 40 q 741 101 665 40 q 855 258 817 161 q 893 460 893 354 q 851 685 893 576 q 728 864 808 794 q 543 933 649 933 m 686 1269 q 672 1281 682 1275 q 647 1288 661 1288 q 593 1263 622 1288 l 418 1096 l 449 1056 l 650 1179 q 694 1240 694 1207 q 686 1269 694 1258 z "},"Ô":{"ha":1103,"x_min":54,"x_max":1051,"o":"m 54 0 m 547 994 q 825 918 711 994 q 995 724 939 842 q 1051 486 1051 607 q 996 248 1051 365 q 828 54 940 131 q 558 -22 717 -22 q 274 52 388 -22 q 108 242 161 126 q 54 486 54 358 q 110 725 54 608 q 277 918 165 842 q 547 994 389 994 m 543 933 q 363 872 438 933 q 249 714 288 811 q 210 511 210 617 q 249 293 210 401 q 369 113 289 185 q 561 40 449 40 q 741 101 665 40 q 855 258 817 161 q 893 460 893 354 q 851 685 893 576 q 728 864 808 794 q 543 933 649 933 m 790 1050 l 560 1172 l 557 1172 l 321 1051 l 293 1096 l 563 1293 l 565 1293 l 821 1097 l 790 1050 z "},"Ö":{"ha":1103,"x_min":54,"x_max":1051,"o":"m 54 0 m 547 994 q 825 918 711 994 q 995 724 939 842 q 1051 486 1051 607 q 996 248 1051 365 q 828 54 940 131 q 558 -22 717 -22 q 274 52 388 -22 q 108 242 161 126 q 54 486 54 358 q 110 725 54 608 q 277 918 165 842 q 547 994 389 994 m 543 933 q 363 872 438 933 q 249 714 288 811 q 210 511 210 617 q 249 293 210 401 q 369 113 289 185 q 561 40 449 40 q 741 101 665 40 q 855 258 817 161 q 893 460 893 354 q 851 685 893 576 q 728 864 808 794 q 543 933 649 933 m 678 1259 q 736 1231 712 1259 q 760 1163 760 1202 q 735 1095 760 1123 q 677 1067 709 1067 q 620 1095 645 1067 q 596 1163 596 1123 q 621 1231 596 1202 q 678 1259 646 1259 m 428 1259 q 486 1231 462 1259 q 510 1163 510 1202 q 485 1095 510 1123 q 427 1067 459 1067 q 370 1095 395 1067 q 346 1163 346 1123 q 371 1231 346 1202 q 428 1259 396 1259 z "},"Ò":{"ha":1103,"x_min":54,"x_max":1051,"o":"m 54 0 m 547 994 q 825 918 711 994 q 995 724 939 842 q 1051 486 1051 607 q 996 248 1051 365 q 828 54 940 131 q 558 -22 717 -22 q 274 52 388 -22 q 108 242 161 126 q 54 486 54 358 q 110 725 54 608 q 277 918 165 842 q 547 994 389 994 m 543 933 q 363 872 438 933 q 249 714 288 811 q 210 511 210 617 q 249 293 210 401 q 369 113 289 185 q 561 40 449 40 q 741 101 665 40 q 855 258 817 161 q 893 460 893 354 q 851 685 893 576 q 728 864 808 794 q 543 933 649 933 m 394 1269 q 409 1281 399 1275 q 433 1288 419 1288 q 488 1263 458 1288 l 663 1096 l 632 1056 l 431 1179 q 386 1240 386 1207 q 394 1269 386 1258 z "},"Ő":{"ha":1103,"x_min":54,"x_max":1051,"o":"m 54 0 m 547 994 q 825 918 711 994 q 995 724 939 842 q 1051 486 1051 607 q 996 248 1051 365 q 828 54 940 131 q 558 -22 717 -22 q 274 52 388 -22 q 108 242 161 126 q 54 486 54 358 q 110 725 54 608 q 277 918 165 842 q 547 994 389 994 m 543 933 q 363 872 438 933 q 249 714 288 811 q 210 511 210 617 q 249 293 210 401 q 369 113 289 185 q 561 40 449 40 q 741 101 665 40 q 855 258 817 161 q 893 460 893 354 q 851 685 893 576 q 728 864 808 794 q 543 933 649 933 m 558 1271 q 575 1233 575 1254 q 551 1188 575 1207 l 424 1072 l 388 1099 l 472 1247 q 526 1285 494 1285 q 558 1271 544 1285 m 708 1250 q 747 1267 725 1267 q 790 1240 774 1267 q 797 1213 797 1226 q 788 1181 797 1196 q 765 1161 779 1167 l 575 1072 l 556 1108 l 708 1250 z "},"Ō":{"ha":1103,"x_min":54,"x_max":1051,"o":"m 54 0 m 547 994 q 825 918 711 994 q 995 724 939 842 q 1051 486 1051 607 q 996 248 1051 365 q 828 54 940 131 q 558 -22 717 -22 q 274 52 388 -22 q 108 242 161 126 q 54 486 54 358 q 110 725 54 608 q 277 918 165 842 q 547 994 389 994 m 543 933 q 363 872 438 933 q 249 714 288 811 q 210 511 210 617 q 249 293 210 401 q 369 113 289 185 q 561 40 449 40 q 741 101 665 40 q 855 258 817 161 q 893 460 893 354 q 851 685 893 576 q 728 864 808 794 q 543 933 649 933 m 356 1167 l 356 1250 l 724 1250 l 724 1172 l 356 1167 z "},"Ø":{"ha":1103,"x_min":53,"x_max":1050,"o":"m 860 893 q 1001 709 953 819 q 1050 486 1050 599 q 994 248 1050 365 q 827 54 939 131 q 557 -22 715 -22 q 343 17 438 -22 l 268 -111 l 201 -69 l 272 53 q 108 240 163 122 q 53 486 53 357 q 108 725 53 608 q 276 918 164 842 q 546 994 388 994 q 786 940 678 994 l 849 1049 l 924 1001 l 860 893 m 208 511 q 240 318 208 415 q 329 151 271 221 l 738 856 q 542 933 653 933 q 361 872 436 933 q 247 714 286 811 q 208 511 208 617 m 560 40 q 740 101 664 40 q 853 258 815 161 q 892 460 892 354 q 867 633 892 547 q 796 786 842 719 l 389 94 q 560 40 465 40 z "},"Õ":{"ha":1103,"x_min":54,"x_max":1051,"o":"m 54 0 m 547 994 q 825 918 711 994 q 995 724 939 842 q 1051 486 1051 607 q 996 248 1051 365 q 828 54 940 131 q 558 -22 717 -22 q 274 52 388 -22 q 108 242 161 126 q 54 486 54 358 q 110 725 54 608 q 277 918 165 842 q 547 994 389 994 m 543 933 q 363 872 438 933 q 249 714 288 811 q 210 511 210 617 q 249 293 210 401 q 369 113 289 185 q 561 40 449 40 q 741 101 665 40 q 855 258 817 161 q 893 460 893 354 q 851 685 893 576 q 728 864 808 794 q 543 933 649 933 m 454 1264 q 521 1250 493 1264 q 585 1208 549 1236 q 631 1177 611 1188 q 672 1167 650 1167 q 734 1191 707 1167 q 785 1257 761 1215 l 829 1235 q 758 1117 801 1154 q 664 1079 714 1079 q 594 1094 624 1079 q 525 1138 564 1110 q 480 1168 497 1158 q 443 1178 463 1178 q 392 1158 415 1178 q 340 1094 369 1138 l 293 1121 q 364 1224 318 1183 q 454 1264 410 1264 z "},"Œ":{"ha":1419,"x_min":64,"x_max":1357,"o":"m 551 994 q 728 972 629 994 l 1300 972 l 1307 729 l 1261 729 q 1212 885 1261 843 q 1074 924 1163 926 l 954 921 q 882 902 904 919 q 854 853 860 885 q 849 756 849 822 l 849 532 l 1113 532 l 1101 651 l 1164 651 l 1164 360 l 1118 360 q 1106 438 1118 411 q 1067 474 1093 465 q 996 483 1042 483 l 953 482 l 849 476 l 849 168 q 844 60 849 96 l 1111 51 q 1310 271 1310 44 l 1357 271 l 1349 0 l 728 0 q 535 -22 621 -22 q 285 40 392 -22 q 121 210 178 101 q 64 457 64 318 q 117 715 64 594 q 281 913 171 836 q 551 994 392 990 m 556 936 q 376 881 457 936 q 247 724 294 826 q 200 485 200 622 q 247 253 200 353 q 380 99 294 154 q 575 44 465 44 q 728 67 647 44 l 728 904 q 556 936 657 936 z "},"P":{"ha":842,"x_min":67,"x_max":815,"o":"m 303 168 q 299 61 303 99 l 426 68 l 426 0 l 67 0 l 67 51 l 71 51 q 138 72 118 51 q 160 119 157 92 q 163 219 163 147 l 163 814 q 167 911 163 869 l 67 906 l 67 972 q 386 975 272 975 q 706 901 596 975 q 815 688 815 828 q 772 533 815 606 q 624 411 729 460 q 343 363 518 363 q 303 364 318 363 l 303 168 m 383 915 q 317 888 332 915 q 303 797 303 860 l 303 753 l 303 426 l 299 426 q 383 422 331 422 q 524 452 461 422 q 624 540 588 482 q 661 676 661 597 q 383 915 661 915 z "},"Þ":{"ha":828,"x_min":67,"x_max":792,"o":"m 303 168 q 299 61 303 99 l 399 67 l 399 0 l 67 0 l 67 51 l 71 51 q 138 72 118 51 q 160 119 157 92 q 163 219 163 147 l 163 814 q 167 911 163 869 l 67 906 l 67 972 l 399 972 l 399 921 l 394 921 q 320 892 338 919 q 303 803 303 864 l 368 804 q 792 525 792 804 q 749 379 792 447 q 603 267 706 311 q 329 224 500 224 l 303 224 l 303 168 m 303 750 l 303 281 q 383 278 338 275 q 588 348 518 281 q 657 524 657 415 q 585 693 657 635 q 376 751 514 751 l 303 750 z "},"Q":{"ha":1106,"x_min":54,"x_max":1101,"o":"m 900 -119 q 1000 -209 971 -185 q 1051 -244 1029 -233 q 1101 -254 1074 -254 l 1101 -306 l 1047 -306 q 952 -302 986 -306 q 883 -281 918 -299 q 806 -226 847 -264 q 700 -122 761 -186 q 622 -47 650 -69 q 558 -22 593 -25 l 546 -22 l 544 -22 l 544 -22 q 268 56 378 -19 q 106 245 158 131 q 54 486 54 360 q 110 725 54 608 q 277 918 165 842 q 547 994 389 994 q 825 918 711 994 q 995 724 939 842 q 1051 486 1051 607 q 1011 283 1051 385 q 890 102 971 181 q 692 -6 808 24 q 781 -28 740 -8 q 876 -97 822 -47 l 900 -119 m 210 511 q 249 293 210 401 q 369 113 289 185 q 561 40 449 40 q 741 101 665 40 q 855 258 817 161 q 893 460 893 354 q 851 685 893 576 q 728 864 808 794 q 543 933 649 933 q 363 872 438 933 q 249 714 288 811 q 210 511 210 617 z "},"R":{"ha":872,"x_min":67,"x_max":882,"o":"m 711 182 q 763 106 743 131 q 812 65 783 81 q 882 51 840 50 l 882 0 l 692 0 q 627 67 653 33 q 565 156 601 100 l 472 301 q 465 315 469 307 q 454 332 460 322 q 428 373 450 338 q 382 432 406 408 q 349 431 371 431 q 303 432 318 431 l 303 168 q 299 61 303 99 l 399 67 l 399 0 l 67 0 l 67 51 l 71 51 q 138 72 118 51 q 160 119 157 92 q 163 219 163 147 l 163 814 q 167 911 163 869 l 67 906 l 67 972 l 71 972 q 293 975 215 975 q 394 974 361 975 q 782 722 782 968 q 725 553 783 628 q 521 446 667 478 l 524 446 q 567 401 549 426 q 617 328 586 375 l 711 182 m 356 489 q 557 538 486 489 q 628 707 628 588 q 570 865 628 814 q 389 915 513 915 q 332 901 350 915 q 308 863 314 888 q 303 794 303 839 l 303 753 l 303 492 l 299 492 q 356 489 340 489 z "},"Ŕ":{"ha":872,"x_min":67,"x_max":882,"o":"m 67 0 m 711 182 q 763 106 743 131 q 812 65 783 81 q 882 51 840 50 l 882 0 l 692 0 q 627 67 653 33 q 565 156 601 100 l 472 301 q 465 315 469 307 q 454 332 460 322 q 428 373 450 338 q 382 432 406 408 q 349 431 371 431 q 303 432 318 431 l 303 168 q 299 61 303 99 l 399 67 l 399 0 l 67 0 l 67 51 l 71 51 q 138 72 118 51 q 160 119 157 92 q 163 219 163 147 l 163 814 q 167 911 163 869 l 67 906 l 67 972 l 71 972 q 293 975 215 975 q 394 974 361 975 q 782 722 782 968 q 725 553 783 628 q 521 446 667 478 l 524 446 q 567 401 549 426 q 617 328 586 375 l 711 182 m 356 489 q 557 538 486 489 q 628 707 628 588 q 570 865 628 814 q 389 915 513 915 q 332 901 350 915 q 308 863 314 888 q 303 794 303 839 l 303 753 l 303 492 l 299 492 q 356 489 340 489 m 597 1269 q 606 1240 606 1258 q 561 1179 606 1207 l 360 1056 l 329 1096 l 504 1263 q 558 1288 533 1288 q 583 1281 572 1288 q 597 1269 593 1275 z "},"Ř":{"ha":872,"x_min":67,"x_max":882,"o":"m 67 0 m 711 182 q 763 106 743 131 q 812 65 783 81 q 882 51 840 50 l 882 0 l 692 0 q 627 67 653 33 q 565 156 601 100 l 472 301 q 465 315 469 307 q 454 332 460 322 q 428 373 450 338 q 382 432 406 408 q 349 431 371 431 q 303 432 318 431 l 303 168 q 299 61 303 99 l 399 67 l 399 0 l 67 0 l 67 51 l 71 51 q 138 72 118 51 q 160 119 157 92 q 163 219 163 147 l 163 814 q 167 911 163 869 l 67 906 l 67 972 l 71 972 q 293 975 215 975 q 394 974 361 975 q 782 722 782 968 q 725 553 783 628 q 521 446 667 478 l 524 446 q 567 401 549 426 q 617 328 586 375 l 711 182 m 356 489 q 557 538 486 489 q 628 707 628 588 q 570 865 628 814 q 389 915 513 915 q 332 901 350 915 q 308 863 314 888 q 303 794 303 839 l 303 753 l 303 492 l 299 492 q 356 489 340 489 m 436 1083 l 433 1083 l 178 1279 l 208 1326 l 442 1204 l 678 1329 l 706 1285 l 436 1083 z "},"Ŗ":{"ha":872,"x_min":67,"x_max":882,"o":"m 67 0 m 711 182 q 763 106 743 131 q 812 65 783 81 q 882 51 840 50 l 882 0 l 692 0 q 627 67 653 33 q 565 156 601 100 l 472 301 q 465 315 469 307 q 454 332 460 322 q 428 373 450 338 q 382 432 406 408 q 349 431 371 431 q 303 432 318 431 l 303 168 q 299 61 303 99 l 399 67 l 399 0 l 67 0 l 67 51 l 71 51 q 138 72 118 51 q 160 119 157 92 q 163 219 163 147 l 163 814 q 167 911 163 869 l 67 906 l 67 972 l 71 972 q 293 975 215 975 q 394 974 361 975 q 782 722 782 968 q 725 553 783 628 q 521 446 667 478 l 524 446 q 567 401 549 426 q 617 328 586 375 l 711 182 m 356 489 q 557 538 486 489 q 628 707 628 588 q 570 865 628 814 q 389 915 513 915 q 332 901 350 915 q 308 863 314 888 q 303 794 303 839 l 303 753 l 303 492 l 299 492 q 356 489 340 489 m 503 -56 q 525 -144 525 -99 q 413 -360 525 -247 l 376 -333 q 424 -178 424 -246 q 407 -83 424 -132 l 503 -56 z "},"S":{"ha":788,"x_min":71,"x_max":736,"o":"m 207 771 q 238 678 207 717 q 316 613 269 639 q 443 553 363 588 q 597 477 539 511 q 695 387 654 443 q 736 247 736 331 q 697 110 736 171 q 581 15 657 50 q 401 -19 506 -19 q 278 -3 342 -19 q 165 40 214 13 l 171 -8 l 79 -8 l 71 293 l 144 293 q 222 108 150 172 q 407 44 294 44 q 543 90 489 44 q 597 215 597 135 q 565 315 597 274 q 486 383 533 356 q 357 446 439 410 q 208 519 265 486 q 113 608 151 553 q 74 744 74 663 q 100 856 74 800 q 192 952 126 913 q 365 992 257 992 q 483 978 422 992 q 596 932 544 964 l 592 981 l 682 981 l 682 669 l 613 669 q 546 856 607 781 q 375 931 485 931 q 251 885 296 931 q 207 771 207 840 z "},"Ś":{"ha":788,"x_min":71,"x_max":736,"o":"m 71 0 m 207 771 q 238 678 207 717 q 316 613 269 639 q 443 553 363 588 q 597 477 539 511 q 695 387 654 443 q 736 247 736 331 q 697 110 736 171 q 581 15 657 50 q 401 -19 506 -19 q 278 -3 342 -19 q 165 40 214 13 l 171 -8 l 79 -8 l 71 293 l 144 293 q 222 108 150 172 q 407 44 294 44 q 543 90 489 44 q 597 215 597 135 q 565 315 597 274 q 486 383 533 356 q 357 446 439 410 q 208 519 265 486 q 113 608 151 553 q 74 744 74 663 q 100 856 74 800 q 192 952 126 913 q 365 992 257 992 q 483 978 422 992 q 596 932 544 964 l 592 981 l 682 981 l 682 669 l 613 669 q 546 856 607 781 q 375 931 485 931 q 251 885 296 931 q 207 771 207 840 m 539 1269 q 547 1240 547 1258 q 503 1179 547 1207 l 301 1056 l 271 1096 l 446 1263 q 500 1288 475 1288 q 524 1281 514 1288 q 539 1269 535 1275 z "},"Š":{"ha":788,"x_min":71,"x_max":736,"o":"m 71 0 m 207 771 q 238 678 207 717 q 316 613 269 639 q 443 553 363 588 q 597 477 539 511 q 695 387 654 443 q 736 247 736 331 q 697 110 736 171 q 581 15 657 50 q 401 -19 506 -19 q 278 -3 342 -19 q 165 40 214 13 l 171 -8 l 79 -8 l 71 293 l 144 293 q 222 108 150 172 q 407 44 294 44 q 543 90 489 44 q 597 215 597 135 q 565 315 597 274 q 486 383 533 356 q 357 446 439 410 q 208 519 265 486 q 113 608 151 553 q 74 744 74 663 q 100 856 74 800 q 192 952 126 913 q 365 992 257 992 q 483 978 422 992 q 596 932 544 964 l 592 981 l 682 981 l 682 669 l 613 669 q 546 856 607 781 q 375 931 485 931 q 251 885 296 931 q 207 771 207 840 m 397 1083 l 394 1083 l 139 1279 l 169 1326 l 403 1204 l 639 1329 l 667 1285 l 397 1083 z "},"Ş":{"ha":788,"x_min":71,"x_max":736,"o":"m 736 247 q 697 110 736 171 q 581 15 657 50 q 403 -19 506 -19 l 375 -103 q 469 -79 415 -79 q 538 -104 513 -79 q 563 -171 563 -129 q 479 -282 563 -244 q 290 -335 396 -319 l 282 -289 q 403 -248 358 -275 q 449 -182 449 -221 q 404 -140 449 -140 q 342 -161 372 -140 l 294 -139 l 328 -14 q 165 40 236 0 l 171 -8 l 79 -8 l 71 293 l 144 293 q 222 108 150 172 q 407 44 294 44 q 543 90 489 44 q 597 215 597 135 q 565 315 597 274 q 486 383 533 356 q 357 446 439 410 q 208 519 265 486 q 113 608 151 553 q 74 744 74 663 q 100 856 74 800 q 192 952 126 913 q 365 992 257 992 q 483 978 422 992 q 596 932 544 964 l 592 981 l 682 981 l 682 669 l 613 669 q 546 856 607 781 q 375 931 485 931 q 251 885 296 931 q 207 771 207 840 q 238 678 207 717 q 316 613 269 639 q 443 553 363 588 q 597 477 539 511 q 695 387 654 443 q 736 247 736 331 z "},"Ș":{"ha":788,"x_min":71,"x_max":736,"o":"m 71 0 m 207 771 q 238 678 207 717 q 316 613 269 639 q 443 553 363 588 q 597 477 539 511 q 695 387 654 443 q 736 247 736 331 q 697 110 736 171 q 581 15 657 50 q 401 -19 506 -19 q 278 -3 342 -19 q 165 40 214 13 l 171 -8 l 79 -8 l 71 293 l 144 293 q 222 108 150 172 q 407 44 294 44 q 543 90 489 44 q 597 215 597 135 q 565 315 597 274 q 486 383 533 356 q 357 446 439 410 q 208 519 265 486 q 113 608 151 553 q 74 744 74 663 q 100 856 74 800 q 192 952 126 913 q 365 992 257 992 q 483 978 422 992 q 596 932 544 964 l 592 981 l 682 981 l 682 669 l 613 669 q 546 856 607 781 q 375 931 485 931 q 251 885 296 931 q 207 771 207 840 m 461 -56 q 483 -144 483 -99 q 371 -360 483 -247 l 335 -333 q 382 -178 382 -246 q 365 -83 382 -132 l 461 -56 z "},"T":{"ha":889,"x_min":21,"x_max":867,"o":"m 794 674 q 778 815 793 763 q 727 892 764 867 q 624 917 690 917 l 515 917 l 514 168 q 510 61 514 99 l 625 67 l 625 0 l 279 0 l 279 51 l 283 51 q 357 82 340 53 q 374 175 374 111 l 374 219 l 375 915 l 242 914 q 126 857 161 914 q 92 674 92 800 l 21 674 l 29 972 l 858 972 l 867 674 l 794 674 z "},"Ť":{"ha":889,"x_min":21,"x_max":867,"o":"m 21 0 m 794 674 q 778 815 793 763 q 727 892 764 867 q 624 917 690 917 l 515 917 l 514 168 q 510 61 514 99 l 625 67 l 625 0 l 279 0 l 279 51 l 283 51 q 357 82 340 53 q 374 175 374 111 l 374 219 l 375 915 l 242 914 q 126 857 161 914 q 92 674 92 800 l 21 674 l 29 972 l 858 972 l 867 674 l 794 674 m 442 1083 l 439 1083 l 183 1279 l 214 1326 l 447 1204 l 683 1329 l 711 1285 l 442 1083 z "},"Ț":{"ha":889,"x_min":21,"x_max":867,"o":"m 21 0 m 794 674 q 778 815 793 763 q 727 892 764 867 q 624 917 690 917 l 515 917 l 514 168 q 510 61 514 99 l 625 67 l 625 0 l 279 0 l 279 51 l 283 51 q 357 82 340 53 q 374 175 374 111 l 374 219 l 375 915 l 242 914 q 126 857 161 914 q 92 674 92 800 l 21 674 l 29 972 l 858 972 l 867 674 l 794 674 m 485 -56 q 507 -144 507 -99 q 394 -360 507 -247 l 358 -333 q 406 -178 406 -246 q 389 -83 406 -132 l 485 -56 z "},"U":{"ha":1044,"x_min":33,"x_max":1013,"o":"m 1013 921 l 1008 921 q 941 901 961 921 q 918 853 921 881 q 915 753 915 825 l 913 438 q 821 108 911 236 q 529 -21 731 -21 q 290 32 378 -21 q 165 193 203 85 q 128 478 128 301 l 128 753 q 133 911 128 836 l 33 907 l 33 972 l 364 972 l 364 921 l 360 921 q 285 891 301 922 q 269 814 269 860 l 269 471 q 326 174 269 283 q 547 64 383 64 q 754 162 686 64 q 825 431 822 260 l 829 814 q 833 911 829 869 l 735 906 l 735 972 l 1013 972 l 1013 921 z "},"Ú":{"ha":1044,"x_min":33,"x_max":1013,"o":"m 33 0 m 1013 921 l 1008 921 q 941 901 961 921 q 918 853 921 881 q 915 753 915 825 l 913 438 q 821 108 911 236 q 529 -21 731 -21 q 290 32 378 -21 q 165 193 203 85 q 128 478 128 301 l 128 753 q 133 911 128 836 l 33 907 l 33 972 l 364 972 l 364 921 l 360 921 q 285 891 301 922 q 269 814 269 860 l 269 471 q 326 174 269 283 q 547 64 383 64 q 754 162 686 64 q 825 431 822 260 l 829 814 q 833 911 829 869 l 735 906 l 735 972 l 1013 972 l 1013 921 m 685 1269 q 670 1281 681 1275 q 646 1288 660 1288 q 592 1263 621 1288 l 417 1096 l 447 1056 l 649 1179 q 693 1240 693 1207 q 685 1269 693 1258 z "},"Û":{"ha":1044,"x_min":33,"x_max":1013,"o":"m 33 0 m 1013 921 l 1008 921 q 941 901 961 921 q 918 853 921 881 q 915 753 915 825 l 913 438 q 821 108 911 236 q 529 -21 731 -21 q 290 32 378 -21 q 165 193 203 85 q 128 478 128 301 l 128 753 q 133 911 128 836 l 33 907 l 33 972 l 364 972 l 364 921 l 360 921 q 285 891 301 922 q 269 814 269 860 l 269 471 q 326 174 269 283 q 547 64 383 64 q 754 162 686 64 q 825 431 822 260 l 829 814 q 833 911 829 869 l 735 906 l 735 972 l 1013 972 l 1013 921 m 775 1050 l 544 1172 l 542 1172 l 306 1051 l 278 1096 l 547 1293 l 550 1293 l 806 1097 l 775 1050 z "},"Ü":{"ha":1044,"x_min":33,"x_max":1013,"o":"m 33 0 m 1013 921 l 1008 921 q 941 901 961 921 q 918 853 921 881 q 915 753 915 825 l 913 438 q 821 108 911 236 q 529 -21 731 -21 q 290 32 378 -21 q 165 193 203 85 q 128 478 128 301 l 128 753 q 133 911 128 836 l 33 907 l 33 972 l 364 972 l 364 921 l 360 921 q 285 891 301 922 q 269 814 269 860 l 269 471 q 326 174 269 283 q 547 64 383 64 q 754 162 686 64 q 825 431 822 260 l 829 814 q 833 911 829 869 l 735 906 l 735 972 l 1013 972 l 1013 921 m 673 1259 q 730 1231 706 1259 q 754 1163 754 1202 q 729 1095 754 1123 q 671 1067 704 1067 q 615 1095 639 1067 q 590 1163 590 1123 q 615 1231 590 1202 q 673 1259 640 1259 m 423 1259 q 480 1231 456 1259 q 504 1163 504 1202 q 479 1095 504 1123 q 421 1067 454 1067 q 365 1095 389 1067 q 340 1163 340 1123 q 365 1231 340 1202 q 423 1259 390 1259 z "},"Ù":{"ha":1044,"x_min":33,"x_max":1013,"o":"m 33 0 m 1013 921 l 1008 921 q 941 901 961 921 q 918 853 921 881 q 915 753 915 825 l 913 438 q 821 108 911 236 q 529 -21 731 -21 q 290 32 378 -21 q 165 193 203 85 q 128 478 128 301 l 128 753 q 133 911 128 836 l 33 907 l 33 972 l 364 972 l 364 921 l 360 921 q 285 891 301 922 q 269 814 269 860 l 269 471 q 326 174 269 283 q 547 64 383 64 q 754 162 686 64 q 825 431 822 260 l 829 814 q 833 911 829 869 l 735 906 l 735 972 l 1013 972 l 1013 921 m 393 1269 q 408 1281 397 1275 q 432 1288 418 1288 q 486 1263 457 1288 l 661 1096 l 631 1056 l 429 1179 q 385 1240 385 1207 q 393 1269 385 1258 z "},"Ű":{"ha":1044,"x_min":33,"x_max":1013,"o":"m 33 0 m 1013 921 l 1008 921 q 941 901 961 921 q 918 853 921 881 q 915 753 915 825 l 913 438 q 821 108 911 236 q 529 -21 731 -21 q 290 32 378 -21 q 165 193 203 85 q 128 478 128 301 l 128 753 q 133 911 128 836 l 33 907 l 33 972 l 364 972 l 364 921 l 360 921 q 285 891 301 922 q 269 814 269 860 l 269 471 q 326 174 269 283 q 547 64 383 64 q 754 162 686 64 q 825 431 822 260 l 829 814 q 833 911 829 869 l 735 906 l 735 972 l 1013 972 l 1013 921 m 557 1271 q 574 1233 574 1254 q 550 1188 574 1207 l 422 1072 l 386 1099 l 471 1247 q 525 1285 493 1285 q 557 1271 543 1285 m 707 1250 q 746 1267 724 1267 q 789 1240 772 1267 q 796 1213 796 1226 q 787 1181 796 1196 q 764 1161 778 1167 l 574 1072 l 554 1108 l 707 1250 z "},"Ū":{"ha":1044,"x_min":33,"x_max":1013,"o":"m 33 0 m 1013 921 l 1008 921 q 941 901 961 921 q 918 853 921 881 q 915 753 915 825 l 913 438 q 821 108 911 236 q 529 -21 731 -21 q 290 32 378 -21 q 165 193 203 85 q 128 478 128 301 l 128 753 q 133 911 128 836 l 33 907 l 33 972 l 364 972 l 364 921 l 360 921 q 285 891 301 922 q 269 814 269 860 l 269 471 q 326 174 269 283 q 547 64 383 64 q 754 162 686 64 q 825 431 822 260 l 829 814 q 833 911 829 869 l 735 906 l 735 972 l 1013 972 l 1013 921 m 354 1167 l 354 1250 l 722 1250 l 722 1172 l 354 1167 z "},"Ų":{"ha":1044,"x_min":33,"x_max":1013,"o":"m 1013 921 l 1008 921 q 941 901 961 921 q 918 853 921 881 q 915 753 915 825 l 913 438 q 859 171 911 285 q 692 8 807 57 l 692 7 q 560 -69 611 -21 q 508 -183 508 -118 q 533 -253 508 -226 q 594 -279 558 -279 q 685 -240 639 -279 l 708 -265 q 635 -327 679 -301 q 543 -353 590 -353 q 436 -313 476 -353 q 396 -211 396 -274 q 435 -108 396 -157 q 540 -21 474 -60 l 529 -21 q 290 32 378 -21 q 165 193 203 85 q 128 478 128 301 l 128 753 q 133 911 128 836 l 33 907 l 33 972 l 364 972 l 364 921 l 360 921 q 285 891 301 922 q 269 814 269 860 l 269 471 q 326 174 269 283 q 547 64 383 64 q 754 162 686 64 q 825 431 822 260 l 829 814 q 833 911 829 869 l 735 906 l 735 972 l 1013 972 l 1013 921 z "},"Ů":{"ha":1044,"x_min":33,"x_max":1013,"o":"m 33 0 m 1013 921 l 1008 921 q 941 901 961 921 q 918 853 921 881 q 915 753 915 825 l 913 438 q 821 108 911 236 q 529 -21 731 -21 q 290 32 378 -21 q 165 193 203 85 q 128 478 128 301 l 128 753 q 133 911 128 836 l 33 907 l 33 972 l 364 972 l 364 921 l 360 921 q 285 891 301 922 q 269 814 269 860 l 269 471 q 326 174 269 283 q 547 64 383 64 q 754 162 686 64 q 825 431 822 260 l 829 814 q 833 911 829 869 l 735 906 l 735 972 l 1013 972 l 1013 921 m 538 1335 q 634 1301 593 1335 q 675 1204 675 1268 q 633 1108 675 1146 q 540 1069 592 1069 q 444 1103 485 1069 q 403 1200 403 1136 q 444 1297 403 1258 q 538 1335 485 1335 m 539 1292 q 494 1269 511 1292 q 476 1208 476 1246 q 494 1140 476 1167 q 543 1113 513 1113 q 585 1135 568 1113 q 601 1194 601 1157 q 585 1265 601 1239 q 539 1292 568 1292 z "},"V":{"ha":907,"x_min":-15,"x_max":942,"o":"m 942 921 l 938 921 q 846 891 876 918 q 789 786 815 864 q 494 -12 765 726 l 439 -12 l 124 721 q 63 908 72 838 l -15 906 l -15 972 l 326 972 l 326 919 q 256 900 278 917 q 235 851 235 883 q 254 774 235 821 q 290 686 286 694 q 386 453 347 540 q 492 210 456 300 q 553 383 508 265 q 570 433 561 407 q 590 485 579 458 l 707 813 q 746 911 731 876 l 640 906 l 640 972 l 942 972 l 942 921 z "},"W":{"ha":1382,"x_min":0,"x_max":1413,"o":"m 1413 921 q 1336 901 1361 915 q 1292 849 1311 888 q 1240 717 1272 810 l 1174 519 q 989 -17 1064 186 l 931 -17 l 679 699 l 443 -17 l 386 -17 l 136 721 l 117 778 q 78 908 83 882 l 0 906 l 0 972 l 357 972 l 357 921 l 353 921 q 274 904 297 918 q 251 856 251 890 q 267 774 251 828 q 340 544 292 675 l 372 453 q 394 385 381 422 q 415 325 408 347 q 444 244 440 258 q 493 403 456 285 q 601 733 558 608 q 679 975 667 929 l 740 975 q 872 576 763 894 l 914 453 q 954 328 929 401 l 988 225 q 1036 382 1010 303 q 1157 742 1092 538 q 1179 813 1167 779 q 1197 856 1185 825 q 1221 910 1208 886 l 1111 906 l 1111 972 l 1413 972 l 1413 921 z "},"X":{"ha":901,"x_min":3,"x_max":921,"o":"m 921 0 l 561 0 l 561 51 l 565 51 q 644 90 644 47 q 621 149 644 118 l 571 214 q 426 404 499 307 q 296 214 360 311 q 259 158 292 207 q 185 61 226 108 l 299 67 l 299 0 l 7 0 l 7 50 l 10 50 q 81 79 51 58 q 135 129 111 100 q 199 217 158 158 l 378 471 l 275 614 q 128 820 158 775 q 81 908 99 865 l 3 906 l 3 972 l 382 972 l 382 921 l 311 918 q 254 883 254 917 q 288 810 254 860 q 450 575 347 714 l 576 754 q 696 911 663 876 l 582 906 l 582 972 l 875 972 l 875 921 l 871 921 q 765 866 814 915 q 656 729 717 817 l 500 511 q 721 221 597 378 l 743 192 l 838 64 l 921 67 l 921 0 z "},"Y":{"ha":881,"x_min":-18,"x_max":904,"o":"m 904 921 l 900 921 q 794 880 836 919 q 699 743 751 840 l 525 417 l 522 172 q 519 61 524 103 l 635 67 l 635 0 l 289 0 l 289 51 l 293 51 q 367 82 350 53 q 383 175 383 111 l 383 219 l 385 375 l 144 753 q 69 908 81 854 l -18 906 l -18 972 l 360 972 l 360 921 l 356 921 q 250 863 250 922 q 285 774 250 828 q 474 485 394 599 q 581 686 481 499 l 646 808 q 667 848 649 814 q 710 910 686 882 l 601 906 l 601 972 l 904 972 l 904 921 z "},"Ý":{"ha":881,"x_min":-18,"x_max":904,"o":"m 0 0 m 904 921 l 900 921 q 794 880 836 919 q 699 743 751 840 l 525 417 l 522 172 q 519 61 524 103 l 635 67 l 635 0 l 289 0 l 289 51 l 293 51 q 367 82 350 53 q 383 175 383 111 l 383 219 l 385 375 l 144 753 q 69 908 81 854 l -18 906 l -18 972 l 360 972 l 360 921 l 356 921 q 250 863 250 922 q 285 774 250 828 q 474 485 394 599 q 581 686 481 499 l 646 808 q 667 848 649 814 q 710 910 686 882 l 601 906 l 601 972 l 904 972 l 904 921 m 606 1269 q 591 1281 601 1275 q 567 1288 581 1288 q 513 1263 542 1288 l 338 1096 l 368 1056 l 569 1179 q 614 1240 614 1207 q 606 1269 614 1258 z "},"Ÿ":{"ha":881,"x_min":-18,"x_max":904,"o":"m 0 0 m 904 921 l 900 921 q 794 880 836 919 q 699 743 751 840 l 525 417 l 522 172 q 519 61 524 103 l 635 67 l 635 0 l 289 0 l 289 51 l 293 51 q 367 82 350 53 q 383 175 383 111 l 383 219 l 385 375 l 144 753 q 69 908 81 854 l -18 906 l -18 972 l 360 972 l 360 921 l 356 921 q 250 863 250 922 q 285 774 250 828 q 474 485 394 599 q 581 686 481 499 l 646 808 q 667 848 649 814 q 710 910 686 882 l 601 906 l 601 972 l 904 972 l 904 921 m 344 1292 q 394 1267 374 1292 q 414 1208 414 1243 q 393 1151 414 1175 q 344 1126 372 1126 q 296 1150 317 1126 q 275 1208 275 1174 q 296 1267 275 1242 q 344 1292 317 1292 m 576 1292 q 626 1267 606 1292 q 646 1208 646 1243 q 625 1151 646 1175 q 576 1126 604 1126 q 528 1150 549 1126 q 507 1208 507 1174 q 528 1267 507 1242 q 576 1292 549 1292 z "},"Z":{"ha":867,"x_min":60,"x_max":800,"o":"m 792 0 l 60 0 l 60 67 l 115 144 q 324 442 222 293 q 554 794 426 590 q 640 915 604 874 l 297 910 q 181 852 218 907 q 143 679 143 797 l 76 679 l 85 972 l 793 972 l 793 921 l 293 168 q 203 57 239 89 l 528 63 q 678 120 622 64 q 733 290 735 176 l 800 290 l 792 0 z "},"Ź":{"ha":867,"x_min":60,"x_max":800,"o":"m 60 0 m 792 0 l 60 0 l 60 67 l 115 144 q 324 442 222 293 q 554 794 426 590 q 640 915 604 874 l 297 910 q 181 852 218 907 q 143 679 143 797 l 76 679 l 85 972 l 793 972 l 793 921 l 293 168 q 203 57 239 89 l 528 63 q 678 120 622 64 q 733 290 735 176 l 800 290 l 792 0 m 594 1269 q 603 1240 603 1258 q 558 1179 603 1207 l 357 1056 l 326 1096 l 501 1263 q 556 1288 531 1288 q 580 1281 569 1288 q 594 1269 590 1275 z "},"Ž":{"ha":867,"x_min":60,"x_max":800,"o":"m 60 0 m 792 0 l 60 0 l 60 67 l 115 144 q 324 442 222 293 q 554 794 426 590 q 640 915 604 874 l 297 910 q 181 852 218 907 q 143 679 143 797 l 76 679 l 85 972 l 793 972 l 793 921 l 293 168 q 203 57 239 89 l 528 63 q 678 120 622 64 q 733 290 735 176 l 800 290 l 792 0 m 444 1083 l 442 1083 l 186 1279 l 217 1326 l 450 1204 l 686 1329 l 714 1285 l 444 1083 z "},"Ż":{"ha":867,"x_min":60,"x_max":800,"o":"m 60 0 m 792 0 l 60 0 l 60 67 l 115 144 q 324 442 222 293 q 554 794 426 590 q 640 915 604 874 l 297 910 q 181 852 218 907 q 143 679 143 797 l 76 679 l 85 972 l 793 972 l 793 921 l 293 168 q 203 57 239 89 l 528 63 q 678 120 622 64 q 733 290 735 176 l 800 290 l 792 0 m 435 1296 q 492 1269 468 1296 q 515 1206 515 1243 q 490 1143 515 1169 q 433 1117 465 1117 q 377 1143 401 1117 q 353 1206 353 1169 q 378 1269 353 1243 q 435 1296 403 1296 z "},"a":{"ha":668,"x_min":42,"x_max":639,"o":"m 326 661 q 492 599 429 661 q 554 418 556 538 l 553 143 q 549 68 553 113 l 639 72 l 639 0 l 449 0 q 438 69 443 29 q 240 -21 344 -21 q 94 24 146 -21 q 42 140 42 69 q 101 269 42 217 q 252 347 161 321 q 435 372 343 372 l 435 431 q 411 557 435 513 q 311 601 388 601 q 240 584 275 601 q 188 539 204 567 q 200 519 197 529 q 203 492 203 510 q 187 449 203 469 q 140 428 171 428 q 97 449 114 428 q 81 500 81 469 q 149 615 81 569 q 326 661 217 661 m 435 310 q 244 268 329 304 q 160 161 160 232 q 192 94 160 118 q 269 71 224 71 q 358 88 319 71 q 435 142 396 106 q 433 200 433 161 q 434 231 433 207 q 435 310 435 256 z "},"á":{"ha":668,"x_min":42,"x_max":639,"o":"m 42 0 m 326 661 q 492 599 429 661 q 554 418 556 538 l 553 143 q 549 68 553 113 l 639 72 l 639 0 l 449 0 q 438 69 443 29 q 240 -21 344 -21 q 94 24 146 -21 q 42 140 42 69 q 101 269 42 217 q 252 347 161 321 q 435 372 343 372 l 435 431 q 411 557 435 513 q 311 601 388 601 q 240 584 275 601 q 188 539 204 567 q 200 519 197 529 q 203 492 203 510 q 187 449 203 469 q 140 428 171 428 q 97 449 114 428 q 81 500 81 469 q 149 615 81 569 q 326 661 217 661 m 435 310 q 244 268 329 304 q 160 161 160 232 q 192 94 160 118 q 269 71 224 71 q 358 88 319 71 q 435 142 396 106 q 433 200 433 161 q 434 231 433 207 q 435 310 435 256 m 421 989 q 388 1000 404 1000 q 331 963 357 1000 l 214 775 l 253 743 l 408 890 q 438 950 438 921 q 421 989 438 972 z "},"ă":{"ha":668,"x_min":42,"x_max":639,"o":"m 42 0 m 326 661 q 492 599 429 661 q 554 418 556 538 l 553 143 q 549 68 553 113 l 639 72 l 639 0 l 449 0 q 438 69 443 29 q 240 -21 344 -21 q 94 24 146 -21 q 42 140 42 69 q 101 269 42 217 q 252 347 161 321 q 435 372 343 372 l 435 431 q 411 557 435 513 q 311 601 388 601 q 240 584 275 601 q 188 539 204 567 q 200 519 197 529 q 203 492 203 510 q 187 449 203 469 q 140 428 171 428 q 97 449 114 428 q 81 500 81 469 q 149 615 81 569 q 326 661 217 661 m 435 310 q 244 268 329 304 q 160 161 160 232 q 192 94 160 118 q 269 71 224 71 q 358 88 319 71 q 435 142 396 106 q 433 200 433 161 q 434 231 433 207 q 435 310 435 256 m 515 944 q 324 776 454 776 q 213 818 265 776 q 136 938 161 860 l 176 958 q 240 890 199 918 q 328 861 282 861 q 415 890 374 861 q 478 961 457 919 l 515 944 z "},"â":{"ha":668,"x_min":42,"x_max":639,"o":"m 42 0 m 326 661 q 492 599 429 661 q 554 418 556 538 l 553 143 q 549 68 553 113 l 639 72 l 639 0 l 449 0 q 438 69 443 29 q 240 -21 344 -21 q 94 24 146 -21 q 42 140 42 69 q 101 269 42 217 q 252 347 161 321 q 435 372 343 372 l 435 431 q 411 557 435 513 q 311 601 388 601 q 240 584 275 601 q 188 539 204 567 q 200 519 197 529 q 203 492 203 510 q 187 449 203 469 q 140 428 171 428 q 97 449 114 428 q 81 500 81 469 q 149 615 81 569 q 326 661 217 661 m 435 310 q 244 268 329 304 q 160 161 160 232 q 192 94 160 118 q 269 71 224 71 q 358 88 319 71 q 435 142 396 106 q 433 200 433 161 q 434 231 433 207 q 435 310 435 256 m 504 747 l 328 899 l 325 899 l 146 757 l 111 797 l 332 1018 l 335 1018 l 542 792 l 504 747 z "},"ä":{"ha":668,"x_min":42,"x_max":639,"o":"m 42 0 m 326 661 q 492 599 429 661 q 554 418 556 538 l 553 143 q 549 68 553 113 l 639 72 l 639 0 l 449 0 q 438 69 443 29 q 240 -21 344 -21 q 94 24 146 -21 q 42 140 42 69 q 101 269 42 217 q 252 347 161 321 q 435 372 343 372 l 435 431 q 411 557 435 513 q 311 601 388 601 q 240 584 275 601 q 188 539 204 567 q 200 519 197 529 q 203 492 203 510 q 187 449 203 469 q 140 428 171 428 q 97 449 114 428 q 81 500 81 469 q 149 615 81 569 q 326 661 217 661 m 435 310 q 244 268 329 304 q 160 161 160 232 q 192 94 160 118 q 269 71 224 71 q 358 88 319 71 q 435 142 396 106 q 433 200 433 161 q 434 231 433 207 q 435 310 435 256 m 223 1019 q 276 992 254 1019 q 297 928 297 965 q 274 865 297 891 q 222 839 251 839 q 170 865 192 839 q 147 928 147 891 q 170 992 147 965 q 223 1019 193 1019 m 455 1019 q 507 992 486 1019 q 529 928 529 965 q 506 865 529 891 q 454 839 483 839 q 402 865 424 839 q 379 928 379 891 q 402 992 379 965 q 455 1019 425 1019 z "},"à":{"ha":668,"x_min":42,"x_max":639,"o":"m 42 0 m 326 661 q 492 599 429 661 q 554 418 556 538 l 553 143 q 549 68 553 113 l 639 72 l 639 0 l 449 0 q 438 69 443 29 q 240 -21 344 -21 q 94 24 146 -21 q 42 140 42 69 q 101 269 42 217 q 252 347 161 321 q 435 372 343 372 l 435 431 q 411 557 435 513 q 311 601 388 601 q 240 584 275 601 q 188 539 204 567 q 200 519 197 529 q 203 492 203 510 q 187 449 203 469 q 140 428 171 428 q 97 449 114 428 q 81 500 81 469 q 149 615 81 569 q 326 661 217 661 m 435 310 q 244 268 329 304 q 160 161 160 232 q 192 94 160 118 q 269 71 224 71 q 358 88 319 71 q 435 142 396 106 q 433 200 433 161 q 434 231 433 207 q 435 310 435 256 m 232 989 q 265 1000 249 1000 q 322 963 296 1000 l 439 775 l 400 743 l 244 890 q 215 950 215 921 q 232 989 215 972 z "},"ā":{"ha":668,"x_min":42,"x_max":639,"o":"m 42 0 m 326 661 q 492 599 429 661 q 554 418 556 538 l 553 143 q 549 68 553 113 l 639 72 l 639 0 l 449 0 q 438 69 443 29 q 240 -21 344 -21 q 94 24 146 -21 q 42 140 42 69 q 101 269 42 217 q 252 347 161 321 q 435 372 343 372 l 435 431 q 411 557 435 513 q 311 601 388 601 q 240 584 275 601 q 188 539 204 567 q 200 519 197 529 q 203 492 203 510 q 187 449 203 469 q 140 428 171 428 q 97 449 114 428 q 81 500 81 469 q 149 615 81 569 q 326 661 217 661 m 435 310 q 244 268 329 304 q 160 161 160 232 q 192 94 160 118 q 269 71 224 71 q 358 88 319 71 q 435 142 396 106 q 433 200 433 161 q 434 231 433 207 q 435 310 435 256 m 142 826 l 142 910 l 510 910 l 510 832 l 142 826 z "},"ą":{"ha":668,"x_min":42,"x_max":639,"o":"m 608 0 q 476 -76 528 -28 q 425 -190 425 -125 q 450 -260 425 -233 q 511 -286 475 -286 q 601 -247 556 -286 l 625 -272 q 551 -334 596 -308 q 460 -360 507 -360 q 353 -320 393 -360 q 313 -218 313 -281 q 368 -97 313 -153 q 511 0 424 -40 l 449 0 q 438 69 443 29 q 240 -21 344 -21 q 94 24 146 -21 q 42 140 42 69 q 101 269 42 217 q 252 347 161 321 q 435 372 343 372 l 435 431 q 411 557 435 513 q 311 601 388 601 q 240 584 275 601 q 188 539 204 567 q 200 519 197 529 q 203 492 203 510 q 187 449 203 469 q 140 428 171 428 q 97 449 114 428 q 81 500 81 469 q 149 615 81 569 q 326 661 217 661 q 492 599 429 661 q 554 418 556 538 l 553 143 q 549 68 553 113 l 639 72 l 639 0 l 608 0 m 435 142 q 433 200 433 161 q 434 231 433 207 q 435 310 435 256 q 244 268 329 304 q 160 161 160 232 q 192 94 160 118 q 269 71 224 71 q 358 88 319 71 q 435 142 396 106 z "},"å":{"ha":668,"x_min":42,"x_max":639,"o":"m 42 0 m 326 661 q 492 599 429 661 q 554 418 556 538 l 553 143 q 549 68 553 113 l 639 72 l 639 0 l 449 0 q 438 69 443 29 q 240 -21 344 -21 q 94 24 146 -21 q 42 140 42 69 q 101 269 42 217 q 252 347 161 321 q 435 372 343 372 l 435 431 q 411 557 435 513 q 311 601 388 601 q 240 584 275 601 q 188 539 204 567 q 200 519 197 529 q 203 492 203 510 q 187 449 203 469 q 140 428 171 428 q 97 449 114 428 q 81 500 81 469 q 149 615 81 569 q 326 661 217 661 m 435 310 q 244 268 329 304 q 160 161 160 232 q 192 94 160 118 q 269 71 224 71 q 358 88 319 71 q 435 142 396 106 q 433 200 433 161 q 434 231 433 207 q 435 310 435 256 m 325 994 q 422 961 381 994 q 463 864 463 928 q 421 767 463 806 q 328 729 379 729 q 231 763 272 729 q 190 860 190 796 q 231 956 190 918 q 325 994 272 994 m 326 951 q 281 928 299 951 q 264 868 264 906 q 282 799 264 826 q 331 772 300 772 q 372 794 356 772 q 389 854 389 817 q 372 925 389 899 q 326 951 356 951 z "},"ã":{"ha":668,"x_min":42,"x_max":639,"o":"m 42 0 m 326 661 q 492 599 429 661 q 554 418 556 538 l 553 143 q 549 68 553 113 l 639 72 l 639 0 l 449 0 q 438 69 443 29 q 240 -21 344 -21 q 94 24 146 -21 q 42 140 42 69 q 101 269 42 217 q 252 347 161 321 q 435 372 343 372 l 435 431 q 411 557 435 513 q 311 601 388 601 q 240 584 275 601 q 188 539 204 567 q 200 519 197 529 q 203 492 203 510 q 187 449 203 469 q 140 428 171 428 q 97 449 114 428 q 81 500 81 469 q 149 615 81 569 q 326 661 217 661 m 435 310 q 244 268 329 304 q 160 161 160 232 q 192 94 160 118 q 269 71 224 71 q 358 88 319 71 q 435 142 396 106 q 433 200 433 161 q 434 231 433 207 q 435 310 435 256 m 239 947 q 292 936 269 947 q 344 906 315 925 q 383 881 367 889 q 418 874 400 874 q 476 892 449 874 q 519 940 503 910 l 560 919 q 499 822 539 856 q 418 788 458 788 q 361 799 386 788 q 303 832 336 810 q 266 855 281 847 q 236 863 251 863 q 181 848 208 863 q 135 804 153 833 l 93 828 q 155 913 111 878 q 239 947 199 947 z "},"æ":{"ha":1079,"x_min":47,"x_max":1022,"o":"m 768 717 q 947 642 881 717 q 1014 410 1013 568 l 590 401 q 589 350 589 383 q 647 128 589 208 q 796 49 704 49 q 988 164 907 49 l 1022 136 q 763 -22 917 -22 q 515 110 588 -22 l 514 110 q 250 -22 418 -22 q 102 23 157 -22 q 47 139 47 68 q 111 275 47 219 q 272 357 175 331 q 467 382 368 383 l 467 467 q 440 613 467 560 q 329 665 414 665 q 244 643 283 665 q 192 583 206 621 q 205 562 200 576 q 210 538 210 547 q 195 499 210 518 q 153 479 181 479 q 108 497 125 479 q 92 546 92 514 q 124 628 92 589 q 215 692 156 667 q 350 717 274 717 q 467 685 418 717 q 542 597 517 654 q 640 685 582 653 q 768 717 697 717 m 763 663 q 600 460 624 663 l 889 460 q 863 606 889 550 q 763 663 836 663 m 465 335 q 265 288 351 329 q 179 160 179 246 q 208 85 179 111 q 276 57 238 60 q 479 149 392 49 q 465 335 467 256 z "},"b":{"ha":754,"x_min":4,"x_max":703,"o":"m 403 660 q 555 619 486 660 q 663 503 624 578 q 703 331 703 429 q 655 143 703 225 q 528 16 607 61 q 361 -29 450 -29 q 262 -12 313 -29 q 172 44 211 6 l 146 -8 l 89 -8 l 92 789 q 93 863 92 833 l 4 858 l 4 928 l 6 928 q 119 936 88 928 q 168 961 151 944 l 217 961 l 217 594 q 301 643 253 626 q 403 660 349 660 m 361 40 q 503 111 450 40 q 557 299 557 182 q 508 506 557 429 q 365 582 460 582 q 285 563 325 582 q 217 514 244 544 l 217 199 q 256 75 217 110 q 361 40 294 40 z "},"c":{"ha":699,"x_min":51,"x_max":658,"o":"m 396 660 q 522 637 465 660 q 609 576 578 614 q 640 496 640 539 q 620 443 640 465 q 569 421 600 421 q 522 443 539 421 q 506 486 506 465 q 524 539 506 517 q 472 584 508 572 q 399 596 436 596 q 253 528 310 596 q 197 336 197 460 q 256 132 197 210 q 413 54 315 54 q 526 85 471 54 q 611 164 581 117 l 613 164 l 658 132 q 531 12 610 53 q 376 -29 453 -29 q 213 11 288 -29 q 95 127 139 51 q 51 304 51 203 q 96 476 51 393 q 219 609 140 558 q 396 660 299 660 z "},"ć":{"ha":699,"x_min":51,"x_max":658,"o":"m 51 0 m 396 660 q 522 637 465 660 q 609 576 578 614 q 640 496 640 539 q 620 443 640 465 q 569 421 600 421 q 522 443 539 421 q 506 486 506 465 q 524 539 506 517 q 472 584 508 572 q 399 596 436 596 q 253 528 310 596 q 197 336 197 460 q 256 132 197 210 q 413 54 315 54 q 526 85 471 54 q 611 164 581 117 l 613 164 l 658 132 q 531 12 610 53 q 376 -29 453 -29 q 213 11 288 -29 q 95 127 139 51 q 51 304 51 203 q 96 476 51 393 q 219 609 140 558 q 396 660 299 660 m 506 989 q 522 950 522 972 q 493 890 522 921 l 338 743 l 299 775 l 415 963 q 472 1000 442 1000 q 506 989 489 1000 z "},"č":{"ha":699,"x_min":51,"x_max":658,"o":"m 51 0 m 396 660 q 522 637 465 660 q 609 576 578 614 q 640 496 640 539 q 620 443 640 465 q 569 421 600 421 q 522 443 539 421 q 506 486 506 465 q 524 539 506 517 q 472 584 508 572 q 399 596 436 596 q 253 528 310 596 q 197 336 197 460 q 256 132 197 210 q 413 54 315 54 q 526 85 471 54 q 611 164 581 117 l 613 164 l 658 132 q 531 12 610 53 q 376 -29 453 -29 q 213 11 288 -29 q 95 127 139 51 q 51 304 51 203 q 96 476 51 393 q 219 609 140 558 q 396 660 299 660 m 376 733 l 374 733 l 167 960 l 204 1004 l 381 853 l 383 853 l 563 1007 l 597 967 l 376 733 z "},"ç":{"ha":699,"x_min":51,"x_max":658,"o":"m 658 132 q 554 26 617 65 q 424 -25 492 -14 l 399 -103 q 493 -79 439 -79 q 561 -104 536 -79 q 586 -171 586 -129 q 503 -282 586 -244 q 314 -335 419 -319 l 306 -289 q 427 -248 382 -275 q 472 -182 472 -221 q 428 -140 472 -140 q 365 -161 396 -140 l 318 -139 l 347 -28 q 198 21 265 -21 q 91 135 131 63 q 51 304 51 208 q 96 476 51 393 q 219 609 140 558 q 396 660 299 660 q 522 637 465 660 q 609 576 578 614 q 640 496 640 539 q 620 443 640 465 q 569 421 600 421 q 522 443 539 421 q 506 486 506 465 q 524 539 506 517 q 472 584 508 572 q 399 596 436 596 q 253 528 310 596 q 197 336 197 460 q 256 132 197 210 q 413 54 315 54 q 526 85 471 54 q 611 164 581 117 l 613 164 l 658 132 z "},"d":{"ha":779,"x_min":51,"x_max":744,"o":"m 744 -8 l 547 -8 q 538 49 539 35 q 447 -8 499 13 q 338 -29 396 -29 q 192 11 257 -29 q 89 126 126 51 q 51 299 51 201 q 95 484 51 401 q 217 613 139 567 q 390 660 294 660 q 466 651 426 660 q 533 628 506 642 l 533 789 q 536 863 533 833 l 447 858 l 447 928 l 449 928 q 562 936 531 928 q 610 961 593 944 l 658 961 l 658 133 q 654 57 658 101 l 744 61 l 744 -8 m 533 128 q 532 194 532 149 l 533 553 q 397 594 478 594 q 253 522 308 594 q 199 329 199 450 q 247 126 199 203 q 383 50 294 50 q 464 72 424 50 q 533 128 504 93 z "},"ð":{"ha":776,"x_min":60,"x_max":697,"o":"m 383 986 q 614 736 531 901 q 697 374 697 571 q 613 88 697 199 q 360 -22 528 -22 q 208 18 276 -22 q 99 133 139 58 q 60 308 60 208 q 97 497 60 410 q 205 637 135 585 q 368 689 275 689 q 478 667 425 689 q 560 597 531 644 l 563 597 q 482 781 539 690 q 338 929 425 872 l 253 822 l 203 864 l 283 960 q 143 997 215 992 l 149 1056 q 329 1013 242 1050 l 404 1101 l 444 1064 l 383 986 m 386 632 q 249 547 299 632 q 199 338 199 463 q 250 114 199 194 q 382 33 301 33 q 478 67 435 33 q 548 165 522 100 q 574 324 574 231 q 528 538 574 443 q 386 632 483 632 z "},"ď":{"ha":921,"x_min":51,"x_max":935,"o":"m 918 1058 q 935 997 935 1024 q 903 880 935 939 q 819 769 871 821 l 783 797 q 835 982 835 896 q 822 1076 835 1031 l 918 1058 m 658 133 q 654 57 658 101 l 744 61 l 744 -8 l 547 -8 q 538 49 539 35 q 447 -8 499 13 q 338 -29 396 -29 q 192 11 257 -29 q 89 126 126 51 q 51 299 51 201 q 95 484 51 401 q 217 613 139 567 q 390 660 294 660 q 466 651 426 660 q 533 628 506 642 l 533 789 q 536 863 533 833 l 447 858 l 447 928 l 449 928 q 562 936 531 928 q 610 961 593 944 l 658 961 l 658 133 m 533 128 q 532 194 532 149 l 533 553 q 397 594 478 594 q 253 522 308 594 q 199 329 199 450 q 247 126 199 203 q 383 50 294 50 q 464 72 424 50 q 533 128 504 93 z "},"đ":{"ha":831,"x_min":51,"x_max":804,"o":"m 658 133 q 654 57 658 101 l 744 61 l 744 -8 l 547 -8 q 538 49 539 35 q 447 -8 499 13 q 338 -29 396 -29 q 192 11 257 -29 q 89 126 126 51 q 51 299 51 201 q 95 484 51 401 q 217 613 139 567 q 390 660 294 660 q 466 651 426 660 q 533 628 506 642 l 533 789 l 533 811 l 354 810 l 354 872 l 447 872 l 447 928 l 449 928 q 562 936 531 928 q 610 961 593 944 l 658 961 l 658 872 l 804 872 l 804 814 l 658 813 l 658 133 m 533 128 q 532 194 532 149 l 533 553 q 397 594 478 594 q 253 522 308 594 q 199 329 199 450 q 247 126 199 203 q 383 50 294 50 q 464 72 424 50 q 533 128 504 93 z "},"e":{"ha":711,"x_min":53,"x_max":664,"o":"m 664 125 q 532 10 614 49 q 374 -29 450 -29 q 210 13 283 -29 q 95 134 138 56 q 53 314 53 213 q 95 484 53 404 q 213 612 138 564 q 383 660 289 660 q 521 626 460 660 q 617 526 582 593 q 651 364 653 460 l 650 364 l 197 357 l 199 357 q 250 132 200 211 q 404 53 300 53 q 527 83 465 53 q 619 158 589 114 l 622 158 l 664 125 m 385 594 q 266 554 311 594 q 204 426 221 514 l 517 426 q 483 546 515 497 q 385 594 450 594 z "},"é":{"ha":711,"x_min":53,"x_max":664,"o":"m 53 0 m 664 125 q 532 10 614 49 q 374 -29 450 -29 q 210 13 283 -29 q 95 134 138 56 q 53 314 53 213 q 95 484 53 404 q 213 612 138 564 q 383 660 289 660 q 521 626 460 660 q 617 526 582 593 q 651 364 653 460 l 650 364 l 197 357 l 199 357 q 250 132 200 211 q 404 53 300 53 q 527 83 465 53 q 619 158 589 114 l 622 158 l 664 125 m 385 594 q 266 554 311 594 q 204 426 221 514 l 517 426 q 483 546 515 497 q 385 594 450 594 m 460 989 q 426 1000 443 1000 q 369 963 396 1000 l 253 775 l 292 743 l 447 890 q 476 950 476 921 q 460 989 476 972 z "},"ě":{"ha":711,"x_min":53,"x_max":664,"o":"m 53 0 m 664 125 q 532 10 614 49 q 374 -29 450 -29 q 210 13 283 -29 q 95 134 138 56 q 53 314 53 213 q 95 484 53 404 q 213 612 138 564 q 383 660 289 660 q 521 626 460 660 q 617 526 582 593 q 651 364 653 460 l 650 364 l 197 357 l 199 357 q 250 132 200 211 q 404 53 300 53 q 527 83 465 53 q 619 158 589 114 l 622 158 l 664 125 m 385 594 q 266 554 311 594 q 204 426 221 514 l 517 426 q 483 546 515 497 q 385 594 450 594 m 360 733 l 357 733 l 150 960 l 188 1004 l 364 853 l 367 853 l 546 1007 l 581 967 l 360 733 z "},"ê":{"ha":711,"x_min":53,"x_max":664,"o":"m 53 0 m 664 125 q 532 10 614 49 q 374 -29 450 -29 q 210 13 283 -29 q 95 134 138 56 q 53 314 53 213 q 95 484 53 404 q 213 612 138 564 q 383 660 289 660 q 521 626 460 660 q 617 526 582 593 q 651 364 653 460 l 650 364 l 197 357 l 199 357 q 250 132 200 211 q 404 53 300 53 q 527 83 465 53 q 619 158 589 114 l 622 158 l 664 125 m 385 594 q 266 554 311 594 q 204 426 221 514 l 517 426 q 483 546 515 497 q 385 594 450 594 m 543 747 l 367 899 l 364 899 l 185 757 l 150 797 l 371 1018 l 374 1018 l 581 792 l 543 747 z "},"ë":{"ha":711,"x_min":53,"x_max":664,"o":"m 53 0 m 664 125 q 532 10 614 49 q 374 -29 450 -29 q 210 13 283 -29 q 95 134 138 56 q 53 314 53 213 q 95 484 53 404 q 213 612 138 564 q 383 660 289 660 q 521 626 460 660 q 617 526 582 593 q 651 364 653 460 l 650 364 l 197 357 l 199 357 q 250 132 200 211 q 404 53 300 53 q 527 83 465 53 q 619 158 589 114 l 622 158 l 664 125 m 385 594 q 266 554 311 594 q 204 426 221 514 l 517 426 q 483 546 515 497 q 385 594 450 594 m 279 1019 q 331 992 309 1019 q 353 928 353 965 q 330 865 353 891 q 277 839 307 839 q 225 865 248 839 q 203 928 203 891 q 226 992 203 965 q 279 1019 249 1019 m 510 1019 q 563 992 541 1019 q 585 928 585 965 q 562 865 585 891 q 509 839 539 839 q 457 865 480 839 q 435 928 435 891 q 458 992 435 965 q 510 1019 481 1019 z "},"ė":{"ha":711,"x_min":53,"x_max":664,"o":"m 53 0 m 664 125 q 532 10 614 49 q 374 -29 450 -29 q 210 13 283 -29 q 95 134 138 56 q 53 314 53 213 q 95 484 53 404 q 213 612 138 564 q 383 660 289 660 q 521 626 460 660 q 617 526 582 593 q 651 364 653 460 l 650 364 l 197 357 l 199 357 q 250 132 200 211 q 404 53 300 53 q 527 83 465 53 q 619 158 589 114 l 622 158 l 664 125 m 385 594 q 266 554 311 594 q 204 426 221 514 l 517 426 q 483 546 515 497 q 385 594 450 594 m 367 956 q 424 929 400 956 q 447 865 447 903 q 422 803 447 829 q 365 776 397 776 q 309 803 333 776 q 285 865 285 829 q 310 929 285 903 q 367 956 335 956 z "},"è":{"ha":711,"x_min":53,"x_max":664,"o":"m 53 0 m 664 125 q 532 10 614 49 q 374 -29 450 -29 q 210 13 283 -29 q 95 134 138 56 q 53 314 53 213 q 95 484 53 404 q 213 612 138 564 q 383 660 289 660 q 521 626 460 660 q 617 526 582 593 q 651 364 653 460 l 650 364 l 197 357 l 199 357 q 250 132 200 211 q 404 53 300 53 q 527 83 465 53 q 619 158 589 114 l 622 158 l 664 125 m 385 594 q 266 554 311 594 q 204 426 221 514 l 517 426 q 483 546 515 497 q 385 594 450 594 m 271 989 q 304 1000 288 1000 q 361 963 335 1000 l 478 775 l 439 743 l 283 890 q 254 950 254 921 q 271 989 254 972 z "},"ē":{"ha":711,"x_min":53,"x_max":664,"o":"m 53 0 m 664 125 q 532 10 614 49 q 374 -29 450 -29 q 210 13 283 -29 q 95 134 138 56 q 53 314 53 213 q 95 484 53 404 q 213 612 138 564 q 383 660 289 660 q 521 626 460 660 q 617 526 582 593 q 651 364 653 460 l 650 364 l 197 357 l 199 357 q 250 132 200 211 q 404 53 300 53 q 527 83 465 53 q 619 158 589 114 l 622 158 l 664 125 m 385 594 q 266 554 311 594 q 204 426 221 514 l 517 426 q 483 546 515 497 q 385 594 450 594 m 181 826 l 181 910 l 549 910 l 549 832 l 181 826 z "},"ę":{"ha":711,"x_min":53,"x_max":664,"o":"m 442 -22 q 356 -92 388 -51 q 324 -183 324 -133 q 349 -253 324 -226 q 410 -279 374 -279 q 500 -240 454 -279 l 524 -265 q 450 -327 494 -301 q 358 -353 406 -353 q 251 -313 292 -353 q 211 -211 211 -274 q 247 -112 211 -160 q 344 -28 283 -65 q 194 23 261 -21 q 90 142 128 67 q 53 314 53 218 q 95 484 53 404 q 213 612 138 564 q 383 660 289 660 q 521 626 460 660 q 617 526 582 593 q 651 364 653 460 l 650 364 l 197 357 l 199 357 q 250 132 200 211 q 404 53 300 53 q 527 83 465 53 q 619 158 589 114 l 622 158 l 664 125 q 566 28 625 65 q 442 -22 507 -8 m 385 594 q 266 554 311 594 q 204 426 221 514 l 517 426 q 483 546 515 497 q 385 594 450 594 z "},"f":{"ha":438,"x_min":31,"x_max":521,"o":"m 375 968 q 474 942 426 968 q 521 867 521 915 q 503 820 521 839 q 458 801 486 801 q 414 822 429 801 q 399 861 399 842 q 404 892 399 881 q 357 906 386 906 q 284 865 306 906 q 263 764 263 825 l 263 640 l 436 640 l 436 574 l 435 574 l 261 569 l 263 569 l 264 133 q 260 57 264 82 l 339 60 l 339 -8 l 63 -8 l 63 46 l 64 46 q 116 60 100 44 q 135 104 132 76 q 139 192 139 132 l 138 568 l 31 567 l 31 640 l 138 640 l 138 658 q 194 888 138 807 q 375 968 250 968 z "},"g":{"ha":714,"x_min":43,"x_max":743,"o":"m 622 647 q 560 576 581 638 q 610 506 592 546 q 629 424 629 467 q 590 294 629 353 q 487 203 551 236 q 350 171 422 171 q 306 175 326 171 q 264 178 281 178 q 197 162 224 178 q 171 122 171 146 q 216 81 171 92 q 369 67 261 71 q 613 14 531 58 q 694 -132 694 -31 q 647 -249 694 -200 q 526 -324 600 -299 q 371 -350 451 -350 q 124 -299 204 -350 q 43 -172 43 -247 q 74 -83 43 -122 q 147 -22 104 -43 q 72 79 72 10 q 103 160 72 122 q 185 213 135 199 q 101 291 132 242 q 71 401 71 340 q 111 535 71 476 q 216 627 151 594 q 350 660 281 660 q 510 615 436 660 q 574 702 531 668 q 668 736 618 736 q 723 717 703 736 q 743 664 743 697 q 728 624 743 644 q 685 604 713 604 q 645 617 661 604 q 622 647 629 629 m 354 233 q 455 278 421 233 q 489 397 489 322 q 452 541 489 483 q 347 599 415 599 q 245 552 282 599 q 208 429 208 506 q 247 286 208 339 q 354 233 285 233 m 226 -40 q 158 -157 158 -87 q 215 -250 158 -215 q 369 -285 272 -285 q 536 -248 475 -285 q 597 -158 597 -211 q 538 -76 597 -97 q 357 -50 478 -54 q 226 -40 279 -47 z "},"ğ":{"ha":714,"x_min":43,"x_max":743,"o":"m 43 0 m 622 647 q 560 576 581 638 q 610 506 592 546 q 629 424 629 467 q 590 294 629 353 q 487 203 551 236 q 350 171 422 171 q 306 175 326 171 q 264 178 281 178 q 197 162 224 178 q 171 122 171 146 q 216 81 171 92 q 369 67 261 71 q 613 14 531 58 q 694 -132 694 -31 q 647 -249 694 -200 q 526 -324 600 -299 q 371 -350 451 -350 q 124 -299 204 -350 q 43 -172 43 -247 q 74 -83 43 -122 q 147 -22 104 -43 q 72 79 72 10 q 103 160 72 122 q 185 213 135 199 q 101 291 132 242 q 71 401 71 340 q 111 535 71 476 q 216 627 151 594 q 350 660 281 660 q 510 615 436 660 q 574 702 531 668 q 668 736 618 736 q 723 717 703 736 q 743 664 743 697 q 728 624 743 644 q 685 604 713 604 q 645 617 661 604 q 622 647 629 629 m 354 233 q 455 278 421 233 q 489 397 489 322 q 452 541 489 483 q 347 599 415 599 q 245 552 282 599 q 208 429 208 506 q 247 286 208 339 q 354 233 285 233 m 226 -40 q 158 -157 158 -87 q 215 -250 158 -215 q 369 -285 272 -285 q 536 -248 475 -285 q 597 -158 597 -211 q 538 -76 597 -97 q 357 -50 478 -54 q 226 -40 279 -47 m 533 944 q 342 776 472 776 q 231 818 283 776 q 154 938 179 860 l 194 958 q 258 890 217 918 q 346 861 300 861 q 433 890 392 861 q 496 961 475 919 l 533 944 z "},"ģ":{"ha":768,"x_min":43,"x_max":743,"o":"m 43 0 m 622 647 q 560 576 581 638 q 610 506 592 546 q 629 424 629 467 q 590 294 629 353 q 487 203 551 236 q 350 171 422 171 q 306 175 326 171 q 264 178 281 178 q 197 162 224 178 q 171 122 171 146 q 216 81 171 92 q 369 67 261 71 q 613 14 531 58 q 694 -132 694 -31 q 647 -249 694 -200 q 526 -324 600 -299 q 371 -350 451 -350 q 124 -299 204 -350 q 43 -172 43 -247 q 74 -83 43 -122 q 147 -22 104 -43 q 72 79 72 10 q 103 160 72 122 q 185 213 135 199 q 101 291 132 242 q 71 401 71 340 q 111 535 71 476 q 216 627 151 594 q 350 660 281 660 q 510 615 436 660 q 574 702 531 668 q 668 736 618 736 q 723 717 703 736 q 743 664 743 697 q 728 624 743 644 q 685 604 713 604 q 645 617 661 604 q 622 647 629 629 m 354 233 q 455 278 421 233 q 489 397 489 322 q 452 541 489 483 q 347 599 415 599 q 245 552 282 599 q 208 429 208 506 q 247 286 208 339 q 354 233 285 233 m 226 -40 q 158 -157 158 -87 q 215 -250 158 -215 q 369 -285 272 -285 q 536 -248 475 -285 q 597 -158 597 -211 q 538 -76 597 -97 q 357 -50 478 -54 q 226 -40 279 -47 m 317 788 q 294 876 294 831 q 407 1092 294 979 l 443 1065 q 396 910 396 978 q 413 815 396 864 l 317 788 z "},"h":{"ha":778,"x_min":29,"x_max":743,"o":"m 743 -8 l 465 -8 l 465 46 l 467 46 q 520 60 504 44 q 539 103 536 76 q 542 192 542 131 l 542 368 q 509 526 542 475 q 404 576 476 576 q 314 556 360 576 q 242 503 268 535 l 242 133 q 236 57 242 90 l 317 60 l 317 -8 l 39 -8 l 39 46 l 40 46 q 94 60 78 44 q 113 104 110 76 q 117 192 117 132 l 117 789 q 119 863 117 833 l 29 858 l 29 928 l 31 928 q 144 936 111 928 q 196 961 176 944 l 242 961 l 242 585 q 341 639 286 618 q 446 660 396 660 q 611 588 558 660 q 665 368 664 517 l 667 133 q 663 57 667 82 l 743 60 l 743 -8 z "},"i":{"ha":376,"x_min":47,"x_max":333,"o":"m 192 839 q 135 865 160 839 q 111 928 111 892 q 136 992 111 965 q 193 1018 161 1018 q 250 992 226 1018 q 274 928 274 965 q 249 865 274 892 q 192 839 224 839 m 333 -8 l 57 -8 l 57 46 l 58 46 q 110 60 94 44 q 129 103 126 76 q 132 192 132 131 l 132 479 q 136 554 132 511 l 47 549 l 47 618 l 49 618 q 163 627 131 618 q 210 653 194 636 l 258 653 l 258 133 q 254 57 258 82 l 333 60 l 333 -8 z "},"ı":{"ha":390,"x_min":50,"x_max":344,"o":"m 263 147 q 257 53 263 85 l 344 57 l 344 0 l 61 0 l 61 42 q 119 62 101 42 q 140 113 136 82 q 143 211 143 144 l 143 528 q 149 618 143 568 l 50 613 l 50 671 q 167 681 132 671 q 222 708 203 690 l 263 708 l 263 147 z "},"í":{"ha":390,"x_min":50,"x_max":364,"o":"m 50 0 m 263 147 q 257 53 263 85 l 344 57 l 344 0 l 61 0 l 61 42 q 119 62 101 42 q 140 113 136 82 q 143 211 143 144 l 143 528 q 149 618 143 568 l 50 613 l 50 671 q 167 681 132 671 q 222 708 203 690 l 263 708 l 263 147 m 347 1051 q 314 1063 331 1063 q 257 1025 283 1063 l 140 838 l 179 806 l 335 953 q 364 1013 364 983 q 347 1051 364 1035 z "},"î":{"ha":390,"x_min":0,"x_max":389,"o":"m 351 810 l 196 954 l 193 954 l 35 819 l 0 860 l 200 1081 l 203 1081 l 389 854 l 351 810 m 263 147 q 257 53 263 85 l 344 57 l 344 0 l 61 0 l 61 42 q 119 62 101 42 q 140 113 136 82 q 143 211 143 144 l 143 528 q 149 618 143 568 l 50 613 l 50 671 q 167 681 132 671 q 222 708 203 690 l 263 708 l 263 147 z "},"ï":{"ha":390,"x_min":19,"x_max":364,"o":"m 19 0 m 263 147 q 257 53 263 85 l 344 57 l 344 0 l 61 0 l 61 42 q 119 62 101 42 q 140 113 136 82 q 143 211 143 144 l 143 528 q 149 618 143 568 l 50 613 l 50 671 q 167 681 132 671 q 222 708 203 690 l 263 708 l 263 147 m 95 1019 q 148 992 126 1019 q 170 928 170 965 q 147 865 170 891 q 94 839 124 839 q 42 865 65 839 q 20 928 20 891 q 43 992 20 965 q 95 1019 66 1019 m 290 1019 q 342 992 320 1019 q 364 928 364 965 q 341 865 364 891 q 288 839 318 839 q 237 865 259 839 q 214 928 214 891 q 237 992 214 965 q 290 1019 260 1019 z "},"ì":{"ha":390,"x_min":7,"x_max":344,"o":"m 7 0 m 263 147 q 257 53 263 85 l 344 57 l 344 0 l 61 0 l 61 42 q 119 62 101 42 q 140 113 136 82 q 143 211 143 144 l 143 528 q 149 618 143 568 l 50 613 l 50 671 q 167 681 132 671 q 222 708 203 690 l 263 708 l 263 147 m 24 1051 q 57 1063 40 1063 q 114 1025 88 1063 l 231 838 l 192 806 l 36 953 q 7 1013 7 983 q 24 1051 7 1035 z "},"ī":{"ha":390,"x_min":4,"x_max":372,"o":"m 4 0 m 263 147 q 257 53 263 85 l 344 57 l 344 0 l 61 0 l 61 42 q 119 62 101 42 q 140 113 136 82 q 143 211 143 144 l 143 528 q 149 618 143 568 l 50 613 l 50 671 q 167 681 132 671 q 222 708 203 690 l 263 708 l 263 147 m 4 889 l 4 972 l 372 972 l 372 894 l 4 889 z "},"į":{"ha":390,"x_min":47,"x_max":361,"o":"m 192 839 q 135 865 160 839 q 111 928 111 892 q 136 992 111 965 q 193 1018 161 1018 q 250 992 226 1018 q 274 928 274 965 q 249 865 274 892 q 192 839 224 839 m 361 -272 q 288 -334 332 -308 q 196 -360 243 -360 q 89 -320 129 -360 q 49 -218 49 -281 q 99 -101 49 -156 q 229 -8 149 -47 l 57 -8 l 57 46 l 58 46 q 110 60 94 44 q 129 103 126 76 q 132 192 132 131 l 132 479 q 136 554 132 511 l 47 549 l 47 618 l 49 618 q 163 627 131 618 q 210 653 194 636 l 258 653 l 258 133 q 254 57 258 82 l 333 60 l 333 33 l 344 36 l 344 0 l 333 -4 l 333 -8 l 322 -8 q 206 -84 250 -37 q 161 -190 161 -131 q 186 -260 161 -233 q 247 -286 211 -286 q 338 -247 292 -286 l 361 -272 z "},"j":{"ha":336,"x_min":-128,"x_max":244,"o":"m 163 839 q 106 865 131 839 q 82 928 82 892 q 107 992 82 965 q 164 1018 132 1018 q 221 992 197 1018 q 244 928 244 965 q 219 865 244 892 q 163 839 194 839 m 21 618 q 135 627 103 618 q 186 653 168 636 l 232 653 l 232 -4 q 163 -263 232 -176 q -19 -350 93 -350 q -100 -327 -72 -350 q -128 -271 -128 -304 q -110 -225 -128 -246 q -62 -204 -92 -204 q -17 -224 -33 -204 q -1 -265 -1 -244 l -1 -271 l -3 -271 q 24 -276 10 -276 q 69 -257 50 -276 q 104 -108 104 -224 l 107 479 q 110 554 107 524 l 19 549 l 19 618 l 21 618 z "},"k":{"ha":696,"x_min":31,"x_max":693,"o":"m 693 -8 l 569 -8 q 523 8 546 -8 q 475 54 500 25 q 426 114 450 83 l 379 179 q 283 301 310 275 l 240 299 l 240 133 q 238 57 240 82 l 319 60 l 319 -8 l 42 -8 l 42 46 l 43 46 q 96 60 81 44 q 114 103 111 76 q 117 192 117 129 q 117 330 117 206 q 118 789 118 454 q 121 863 118 833 l 31 858 l 31 928 l 32 928 q 144 936 113 928 q 194 961 175 944 l 240 961 l 240 364 l 283 364 l 438 524 q 492 575 464 551 l 424 572 l 424 640 l 674 640 l 674 585 l 672 585 q 594 561 632 582 q 532 519 556 540 q 464 456 508 499 l 371 360 q 406 336 392 350 q 444 294 419 322 l 536 179 q 615 85 574 129 q 692 46 656 42 l 693 46 l 693 -8 z "},"ķ":{"ha":696,"x_min":31,"x_max":693,"o":"m 31 0 m 693 -8 l 569 -8 q 523 8 546 -8 q 475 54 500 25 q 426 114 450 83 l 379 179 q 283 301 310 275 l 240 299 l 240 133 q 238 57 240 82 l 319 60 l 319 -8 l 42 -8 l 42 46 l 43 46 q 96 60 81 44 q 114 103 111 76 q 117 192 117 129 q 117 330 117 206 q 118 789 118 454 q 121 863 118 833 l 31 858 l 31 928 l 32 928 q 144 936 113 928 q 194 961 175 944 l 240 961 l 240 364 l 283 364 l 438 524 q 492 575 464 551 l 424 572 l 424 640 l 674 640 l 674 585 l 672 585 q 594 561 632 582 q 532 519 556 540 q 464 456 508 499 l 371 360 q 406 336 392 350 q 444 294 419 322 l 536 179 q 615 85 574 129 q 692 46 656 42 l 693 46 l 693 -8 m 389 -56 q 411 -144 411 -99 q 299 -360 411 -247 l 263 -333 q 310 -178 310 -246 q 293 -83 310 -132 l 389 -56 z "},"l":{"ha":365,"x_min":32,"x_max":321,"o":"m 321 -8 l 43 -8 l 43 46 l 44 46 q 98 60 82 44 q 117 103 114 76 q 119 192 119 131 l 119 789 q 122 863 119 833 l 32 858 l 32 928 l 33 928 q 147 936 114 928 q 199 961 179 944 l 244 961 l 246 133 q 240 57 246 90 l 321 60 l 321 -8 z "},"ĺ":{"ha":365,"x_min":32,"x_max":322,"o":"m 32 0 m 321 -8 l 43 -8 l 43 46 l 44 46 q 98 60 82 44 q 117 103 114 76 q 119 192 119 131 l 119 789 q 122 863 119 833 l 32 858 l 32 928 l 33 928 q 147 936 114 928 q 199 961 179 944 l 244 961 l 246 133 q 240 57 246 90 l 321 60 l 321 -8 m 306 1243 q 322 1204 322 1226 q 293 1144 322 1175 l 138 997 l 99 1029 l 215 1217 q 272 1254 242 1254 q 306 1243 289 1254 z "},"ľ":{"ha":474,"x_min":32,"x_max":486,"o":"m 469 1058 q 486 997 486 1024 q 454 880 486 939 q 371 769 422 821 l 335 797 q 386 982 386 896 q 374 1076 386 1031 l 469 1058 m 246 133 q 240 57 246 90 l 321 60 l 321 -8 l 43 -8 l 43 46 l 44 46 q 98 60 82 44 q 117 103 114 76 q 119 192 119 131 l 119 789 q 122 863 119 833 l 32 858 l 32 928 l 33 928 q 147 936 114 928 q 199 961 179 944 l 244 961 l 246 133 z "},"ļ":{"ha":365,"x_min":32,"x_max":321,"o":"m 32 0 m 321 -8 l 43 -8 l 43 46 l 44 46 q 98 60 82 44 q 117 103 114 76 q 119 192 119 131 l 119 789 q 122 863 119 833 l 32 858 l 32 928 l 33 928 q 147 936 114 928 q 199 961 179 944 l 244 961 l 246 133 q 240 57 246 90 l 321 60 l 321 -8 m 221 -56 q 243 -144 243 -99 q 131 -360 243 -247 l 94 -333 q 142 -178 142 -246 q 125 -83 142 -132 l 221 -56 z "},"ł":{"ha":407,"x_min":36,"x_max":383,"o":"m 274 486 l 274 133 q 268 57 274 90 l 349 60 l 349 -8 l 71 -8 l 71 46 l 72 46 q 126 60 110 44 q 144 103 142 76 q 147 192 147 131 l 147 394 l 36 314 l 36 396 l 147 476 l 147 789 q 150 863 147 833 l 60 858 l 60 928 l 61 928 q 174 936 142 928 q 226 961 207 944 l 272 961 l 272 567 l 383 646 l 383 567 l 274 486 z "},"m":{"ha":1151,"x_min":39,"x_max":1118,"o":"m 1118 -8 l 842 -8 l 842 46 l 843 46 q 895 60 879 44 q 914 103 911 76 q 917 192 917 131 l 917 368 q 885 526 917 475 q 781 576 853 576 q 703 561 742 576 q 636 519 665 546 q 647 431 647 482 l 646 133 q 642 57 646 82 l 721 60 l 721 -8 l 444 -8 l 444 46 l 446 46 q 498 60 482 44 q 517 103 514 76 q 519 192 519 131 l 521 368 q 491 528 522 476 q 389 579 460 579 q 313 564 350 579 q 250 522 276 549 l 250 458 l 250 133 q 247 57 250 82 l 326 60 l 326 -8 l 51 -8 l 51 46 l 53 46 q 105 60 89 44 q 124 103 121 76 q 126 192 126 131 l 126 479 q 131 554 126 528 l 39 549 l 39 618 l 40 618 q 128 623 97 618 q 170 634 158 628 q 197 653 182 640 l 242 653 q 249 592 246 636 q 337 641 289 622 q 431 660 385 660 q 538 638 492 660 q 610 578 583 617 q 713 637 656 614 q 821 660 769 660 q 991 590 936 660 q 1044 368 1046 519 l 1043 133 q 1039 57 1043 82 l 1118 60 l 1118 -8 z "},"n":{"ha":783,"x_min":44,"x_max":749,"o":"m 749 0 l 478 0 l 478 57 q 531 72 515 56 q 550 115 547 88 q 553 201 553 142 l 553 368 q 519 527 551 476 q 413 578 488 578 q 323 556 368 578 q 249 500 278 535 q 250 456 250 488 l 249 143 q 246 68 249 92 l 325 71 l 325 0 l 54 0 l 54 57 q 107 72 92 56 q 125 113 122 88 q 129 201 128 139 l 131 479 q 135 553 131 526 l 44 547 l 44 619 q 153 628 125 619 q 200 653 182 636 l 200 654 l 242 654 l 242 651 q 249 576 246 629 l 249 579 q 347 639 293 617 q 454 661 401 661 q 619 590 565 661 q 674 368 674 518 l 674 143 q 669 68 674 92 l 749 71 l 749 0 z "},"ń":{"ha":783,"x_min":44,"x_max":749,"o":"m 44 0 m 749 0 l 478 0 l 478 57 q 531 72 515 56 q 550 115 547 88 q 553 201 553 142 l 553 368 q 519 527 551 476 q 413 578 488 578 q 323 556 368 578 q 249 500 278 535 q 250 456 250 488 l 249 143 q 246 68 249 92 l 325 71 l 325 0 l 54 0 l 54 57 q 107 72 92 56 q 125 113 122 88 q 129 201 128 139 l 131 479 q 135 553 131 526 l 44 547 l 44 619 q 153 628 125 619 q 200 653 182 636 l 200 654 l 242 654 l 242 651 q 249 576 246 629 l 249 579 q 347 639 293 617 q 454 661 401 661 q 619 590 565 661 q 674 368 674 518 l 674 143 q 669 68 674 92 l 749 71 l 749 0 m 536 989 q 553 950 553 972 q 524 890 553 921 l 368 743 l 329 775 l 446 963 q 503 1000 472 1000 q 536 989 519 1000 z "},"ň":{"ha":783,"x_min":44,"x_max":749,"o":"m 44 0 m 749 0 l 478 0 l 478 57 q 531 72 515 56 q 550 115 547 88 q 553 201 553 142 l 553 368 q 519 527 551 476 q 413 578 488 578 q 323 556 368 578 q 249 500 278 535 q 250 456 250 488 l 249 143 q 246 68 249 92 l 325 71 l 325 0 l 54 0 l 54 57 q 107 72 92 56 q 125 113 122 88 q 129 201 128 139 l 131 479 q 135 553 131 526 l 44 547 l 44 619 q 153 628 125 619 q 200 653 182 636 l 200 654 l 242 654 l 242 651 q 249 576 246 629 l 249 579 q 347 639 293 617 q 454 661 401 661 q 619 590 565 661 q 674 368 674 518 l 674 143 q 669 68 674 92 l 749 71 l 749 0 m 407 733 l 404 733 l 197 960 l 235 1004 l 411 853 l 414 853 l 593 1007 l 628 967 l 407 733 z "},"ņ":{"ha":783,"x_min":44,"x_max":749,"o":"m 44 0 m 749 0 l 478 0 l 478 57 q 531 72 515 56 q 550 115 547 88 q 553 201 553 142 l 553 368 q 519 527 551 476 q 413 578 488 578 q 323 556 368 578 q 249 500 278 535 q 250 456 250 488 l 249 143 q 246 68 249 92 l 325 71 l 325 0 l 54 0 l 54 57 q 107 72 92 56 q 125 113 122 88 q 129 201 128 139 l 131 479 q 135 553 131 526 l 44 547 l 44 619 q 153 628 125 619 q 200 653 182 636 l 200 654 l 242 654 l 242 651 q 249 576 246 629 l 249 579 q 347 639 293 617 q 454 661 401 661 q 619 590 565 661 q 674 368 674 518 l 674 143 q 669 68 674 92 l 749 71 l 749 0 m 432 -56 q 454 -144 454 -99 q 342 -360 454 -247 l 306 -333 q 353 -178 353 -246 q 336 -83 353 -132 l 432 -56 z "},"ñ":{"ha":783,"x_min":44,"x_max":749,"o":"m 44 0 m 749 0 l 478 0 l 478 57 q 531 72 515 56 q 550 115 547 88 q 553 201 553 142 l 553 368 q 519 527 551 476 q 413 578 488 578 q 323 556 368 578 q 249 500 278 535 q 250 456 250 488 l 249 143 q 246 68 249 92 l 325 71 l 325 0 l 54 0 l 54 57 q 107 72 92 56 q 125 113 122 88 q 129 201 128 139 l 131 479 q 135 553 131 526 l 44 547 l 44 619 q 153 628 125 619 q 200 653 182 636 l 200 654 l 242 654 l 242 651 q 249 576 246 629 l 249 579 q 347 639 293 617 q 454 661 401 661 q 619 590 565 661 q 674 368 674 518 l 674 143 q 669 68 674 92 l 749 71 l 749 0 m 325 947 q 378 936 356 947 q 431 906 401 925 q 469 881 453 889 q 504 874 486 874 q 562 892 535 874 q 606 940 589 910 l 646 919 q 585 822 625 856 q 504 788 544 788 q 447 799 472 788 q 389 832 422 810 q 352 855 367 847 q 322 863 338 863 q 267 848 294 863 q 221 804 239 833 l 179 828 q 241 913 197 878 q 325 947 285 947 z "},"o":{"ha":690,"x_min":43,"x_max":676,"o":"m 358 661 q 520 618 447 661 q 635 499 593 575 q 676 331 676 424 q 635 148 676 231 q 521 17 593 65 q 358 -31 449 -31 q 197 12 269 -31 q 84 130 125 54 q 43 300 43 206 q 84 484 43 401 q 197 614 125 567 q 358 661 269 661 m 358 594 q 219 521 265 594 q 172 338 172 447 q 223 126 172 213 q 368 40 274 40 q 506 112 463 40 q 549 294 549 183 q 501 506 549 418 q 358 594 453 594 z "},"ó":{"ha":690,"x_min":43,"x_max":676,"o":"m 43 0 m 358 661 q 520 618 447 661 q 635 499 593 575 q 676 331 676 424 q 635 148 676 231 q 521 17 593 65 q 358 -31 449 -31 q 197 12 269 -31 q 84 130 125 54 q 43 300 43 206 q 84 484 43 401 q 197 614 125 567 q 358 661 269 661 m 358 594 q 219 521 265 594 q 172 338 172 447 q 223 126 172 213 q 368 40 274 40 q 506 112 463 40 q 549 294 549 183 q 501 506 549 418 q 358 594 453 594 m 457 989 q 424 1000 440 1000 q 367 963 393 1000 l 250 775 l 289 743 l 444 890 q 474 950 474 921 q 457 989 474 972 z "},"ô":{"ha":690,"x_min":43,"x_max":676,"o":"m 43 0 m 358 661 q 520 618 447 661 q 635 499 593 575 q 676 331 676 424 q 635 148 676 231 q 521 17 593 65 q 358 -31 449 -31 q 197 12 269 -31 q 84 130 125 54 q 43 300 43 206 q 84 484 43 401 q 197 614 125 567 q 358 661 269 661 m 358 594 q 219 521 265 594 q 172 338 172 447 q 223 126 172 213 q 368 40 274 40 q 506 112 463 40 q 549 294 549 183 q 501 506 549 418 q 358 594 453 594 m 540 747 l 364 899 l 361 899 l 182 757 l 147 797 l 368 1018 l 371 1018 l 578 792 l 540 747 z "},"ö":{"ha":690,"x_min":43,"x_max":676,"o":"m 43 0 m 358 661 q 520 618 447 661 q 635 499 593 575 q 676 331 676 424 q 635 148 676 231 q 521 17 593 65 q 358 -31 449 -31 q 197 12 269 -31 q 84 130 125 54 q 43 300 43 206 q 84 484 43 401 q 197 614 125 567 q 358 661 269 661 m 358 594 q 219 521 265 594 q 172 338 172 447 q 223 126 172 213 q 368 40 274 40 q 506 112 463 40 q 549 294 549 183 q 501 506 549 418 q 358 594 453 594 m 285 1019 q 338 992 316 1019 q 360 928 360 965 q 337 865 360 891 q 284 839 314 839 q 232 865 255 839 q 210 928 210 891 q 233 992 210 965 q 285 1019 256 1019 m 517 1019 q 570 992 548 1019 q 592 928 592 965 q 569 865 592 891 q 516 839 546 839 q 464 865 487 839 q 442 928 442 891 q 465 992 442 965 q 517 1019 488 1019 z "},"ò":{"ha":690,"x_min":43,"x_max":676,"o":"m 43 0 m 358 661 q 520 618 447 661 q 635 499 593 575 q 676 331 676 424 q 635 148 676 231 q 521 17 593 65 q 358 -31 449 -31 q 197 12 269 -31 q 84 130 125 54 q 43 300 43 206 q 84 484 43 401 q 197 614 125 567 q 358 661 269 661 m 358 594 q 219 521 265 594 q 172 338 172 447 q 223 126 172 213 q 368 40 274 40 q 506 112 463 40 q 549 294 549 183 q 501 506 549 418 q 358 594 453 594 m 268 989 q 301 1000 285 1000 q 358 963 332 1000 l 475 775 l 436 743 l 281 890 q 251 950 251 921 q 268 989 251 972 z "},"ő":{"ha":690,"x_min":43,"x_max":676,"o":"m 43 0 m 358 661 q 520 618 447 661 q 635 499 593 575 q 676 331 676 424 q 635 148 676 231 q 521 17 593 65 q 358 -31 449 -31 q 197 12 269 -31 q 84 130 125 54 q 43 300 43 206 q 84 484 43 401 q 197 614 125 567 q 358 661 269 661 m 358 594 q 219 521 265 594 q 172 338 172 447 q 223 126 172 213 q 368 40 274 40 q 506 112 463 40 q 549 294 549 183 q 501 506 549 418 q 358 594 453 594 m 375 1004 q 394 967 394 990 q 372 913 394 943 l 251 764 l 211 789 l 289 967 q 346 1014 311 1014 q 375 1004 360 1014 m 607 976 q 615 950 615 964 q 583 893 615 915 l 381 754 l 354 790 l 522 974 q 569 996 544 996 q 607 976 592 996 z "},"ō":{"ha":690,"x_min":43,"x_max":676,"o":"m 43 0 m 358 661 q 520 618 447 661 q 635 499 593 575 q 676 331 676 424 q 635 148 676 231 q 521 17 593 65 q 358 -31 449 -31 q 197 12 269 -31 q 84 130 125 54 q 43 300 43 206 q 84 484 43 401 q 197 614 125 567 q 358 661 269 661 m 358 594 q 219 521 265 594 q 172 338 172 447 q 223 126 172 213 q 368 40 274 40 q 506 112 463 40 q 549 294 549 183 q 501 506 549 418 q 358 594 453 594 m 178 826 l 178 910 l 546 910 l 546 832 l 178 826 z "},"ø":{"ha":813,"x_min":43,"x_max":713,"o":"m 593 558 q 655 456 633 514 q 676 331 676 397 q 635 148 676 231 q 521 17 593 65 q 358 -31 449 -31 q 228 -3 288 -31 l 163 -104 l 111 -67 l 172 29 q 77 144 111 74 q 43 300 43 215 q 84 484 43 401 q 197 614 125 567 q 358 661 269 661 q 536 608 457 661 l 647 785 l 713 742 l 593 558 m 172 338 q 186 217 172 274 q 228 119 200 160 l 486 529 q 358 594 436 594 q 219 521 265 594 q 172 338 172 447 m 549 294 q 525 453 549 386 l 275 69 q 368 40 318 40 q 506 112 463 40 q 549 294 549 183 z "},"õ":{"ha":690,"x_min":43,"x_max":676,"o":"m 43 0 m 358 661 q 520 618 447 661 q 635 499 593 575 q 676 331 676 424 q 635 148 676 231 q 521 17 593 65 q 358 -31 449 -31 q 197 12 269 -31 q 84 130 125 54 q 43 300 43 206 q 84 484 43 401 q 197 614 125 567 q 358 661 269 661 m 358 594 q 219 521 265 594 q 172 338 172 447 q 223 126 172 213 q 368 40 274 40 q 506 112 463 40 q 549 294 549 183 q 501 506 549 418 q 358 594 453 594 m 275 947 q 328 936 306 947 q 381 906 351 925 q 419 881 403 889 q 454 874 436 874 q 512 892 485 874 q 556 940 539 910 l 596 919 q 535 822 575 856 q 454 788 494 788 q 397 799 422 788 q 339 832 372 810 q 302 855 317 847 q 272 863 288 863 q 217 848 244 863 q 171 804 189 833 l 129 828 q 191 913 147 878 q 275 947 235 947 z "},"œ":{"ha":1226,"x_min":57,"x_max":1172,"o":"m 893 717 q 1085 638 1013 717 q 1157 408 1157 558 l 704 400 q 919 49 704 49 q 1042 81 982 49 q 1138 164 1103 114 l 1172 136 q 1041 17 1118 56 q 886 -22 964 -22 q 735 15 803 -22 q 629 119 667 51 l 628 119 q 524 15 586 53 q 385 -22 461 -22 q 215 23 289 -22 q 99 149 140 68 q 57 331 57 229 q 98 528 57 440 q 213 666 139 615 q 385 717 288 717 q 638 569 547 717 l 639 569 q 747 676 681 636 q 893 717 814 717 m 386 664 q 244 581 289 664 q 199 371 199 497 q 247 131 199 228 q 394 33 296 33 q 575 344 575 33 q 524 575 569 486 q 386 664 478 664 m 881 663 q 708 458 739 663 l 1026 458 q 990 606 1024 549 q 881 663 957 663 z "},"p":{"ha":778,"x_min":33,"x_max":726,"o":"m 436 660 q 579 620 513 660 q 686 508 646 581 q 726 339 726 435 q 680 148 726 232 q 556 17 633 64 q 390 -29 479 -29 q 243 7 308 -29 l 243 -187 q 239 -265 243 -240 l 318 -262 l 318 -331 l 42 -331 l 42 -276 l 43 -276 q 95 -262 79 -278 q 114 -219 111 -246 q 118 -131 117 -192 l 119 479 q 124 554 119 528 l 33 549 l 33 618 l 35 618 q 122 623 92 618 q 165 634 153 628 q 189 653 176 640 l 236 653 q 242 592 240 604 q 333 641 281 622 q 436 660 385 660 m 388 39 q 527 116 475 39 q 579 318 579 193 q 532 506 579 429 q 389 582 485 582 q 310 563 349 582 q 244 515 272 544 q 246 431 246 506 l 244 85 q 388 39 308 39 z "},"þ":{"ha":801,"x_min":13,"x_max":742,"o":"m 222 642 q 320 697 265 676 q 432 717 375 717 q 588 674 517 717 q 700 551 658 631 q 742 367 742 471 q 694 163 742 251 q 565 26 646 75 q 388 -22 485 -22 q 222 21 290 -22 l 222 -207 q 217 -301 222 -269 l 304 -297 l 304 -354 l 21 -354 l 21 -312 q 78 -292 61 -312 q 99 -242 96 -272 q 103 -143 101 -212 l 106 868 q 111 958 106 926 l 13 953 l 13 1011 q 129 1021 94 1011 q 183 1049 164 1031 l 224 1049 l 222 642 m 385 649 q 297 629 339 649 q 222 578 254 610 l 222 86 q 385 33 292 33 q 540 120 482 33 q 599 346 599 207 q 544 560 599 471 q 385 649 490 649 z "},"q":{"ha":749,"x_min":51,"x_max":735,"o":"m 735 -331 l 458 -331 l 458 -276 l 460 -276 q 512 -262 496 -278 q 531 -219 528 -246 q 533 -131 533 -192 l 533 40 q 349 -29 461 -29 q 199 12 267 -29 q 91 128 131 53 q 51 301 51 204 q 97 488 51 406 q 220 615 143 569 q 390 660 297 660 q 464 652 429 660 q 504 643 499 644 q 530 637 510 642 q 565 632 550 632 q 610 650 593 632 l 614 653 l 658 653 l 660 -187 q 656 -265 660 -240 l 735 -262 l 735 -331 m 394 50 q 472 71 435 50 q 533 125 508 92 l 533 453 q 503 563 533 529 q 393 596 472 596 q 251 524 303 596 q 200 332 200 453 q 252 130 200 210 q 394 50 304 50 z "},"r":{"ha":567,"x_min":46,"x_max":563,"o":"m 465 660 q 534 638 506 660 q 563 572 563 615 q 544 526 563 550 q 494 503 526 503 q 445 524 465 503 q 425 574 425 546 q 334 535 379 572 q 258 442 289 499 l 258 133 q 254 57 258 82 l 335 60 l 335 -8 l 57 -8 l 57 46 l 58 46 q 110 60 94 44 q 129 103 126 76 q 132 192 132 131 l 132 479 q 136 554 132 528 l 46 550 l 46 618 l 93 618 q 163 626 142 618 q 203 653 183 635 l 249 653 q 256 543 254 608 q 349 625 292 590 q 465 660 406 660 z "},"ŕ":{"ha":567,"x_min":46,"x_max":563,"o":"m 46 0 m 465 660 q 534 638 506 660 q 563 572 563 615 q 544 526 563 550 q 494 503 526 503 q 445 524 465 503 q 425 574 425 546 q 334 535 379 572 q 258 442 289 499 l 258 133 q 254 57 258 82 l 335 60 l 335 -8 l 57 -8 l 57 46 l 58 46 q 110 60 94 44 q 129 103 126 76 q 132 192 132 131 l 132 479 q 136 554 132 528 l 46 550 l 46 618 l 93 618 q 163 626 142 618 q 203 653 183 635 l 249 653 q 256 543 254 608 q 349 625 292 590 q 465 660 406 660 m 458 989 q 475 950 475 972 q 446 890 475 921 l 290 743 l 251 775 l 368 963 q 425 1000 394 1000 q 458 989 442 1000 z "},"ř":{"ha":567,"x_min":46,"x_max":563,"o":"m 46 0 m 465 660 q 534 638 506 660 q 563 572 563 615 q 544 526 563 550 q 494 503 526 503 q 445 524 465 503 q 425 574 425 546 q 334 535 379 572 q 258 442 289 499 l 258 133 q 254 57 258 82 l 335 60 l 335 -8 l 57 -8 l 57 46 l 58 46 q 110 60 94 44 q 129 103 126 76 q 132 192 132 131 l 132 479 q 136 554 132 528 l 46 550 l 46 618 l 93 618 q 163 626 142 618 q 203 653 183 635 l 249 653 q 256 543 254 608 q 349 625 292 590 q 465 660 406 660 m 329 733 l 326 733 l 119 960 l 157 1004 l 333 853 l 336 853 l 515 1007 l 550 967 l 329 733 z "},"ŗ":{"ha":567,"x_min":46,"x_max":563,"o":"m 46 0 m 465 660 q 534 638 506 660 q 563 572 563 615 q 544 526 563 550 q 494 503 526 503 q 445 524 465 503 q 425 574 425 546 q 334 535 379 572 q 258 442 289 499 l 258 133 q 254 57 258 82 l 335 60 l 335 -8 l 57 -8 l 57 46 l 58 46 q 110 60 94 44 q 129 103 126 76 q 132 192 132 131 l 132 479 q 136 554 132 528 l 46 550 l 46 618 l 93 618 q 163 626 142 618 q 203 653 183 635 l 249 653 q 256 543 254 608 q 349 625 292 590 q 465 660 406 660 m 325 -56 q 347 -144 347 -99 q 235 -360 347 -247 l 199 -333 q 246 -178 246 -246 q 229 -83 246 -132 l 325 -56 z "},"s":{"ha":611,"x_min":68,"x_max":560,"o":"m 183 508 q 223 434 183 461 q 344 375 263 407 q 456 325 413 349 q 530 262 500 301 q 560 165 560 222 q 526 58 560 101 q 440 -8 493 14 q 329 -29 388 -29 q 225 -15 274 -29 q 140 19 176 -1 l 146 -17 l 76 -17 l 68 217 l 124 217 q 148 124 124 165 q 215 60 172 83 q 306 38 257 38 q 399 61 358 38 q 440 129 440 85 q 403 199 440 174 q 285 256 365 224 q 173 303 217 281 q 99 367 129 326 q 68 468 68 407 q 90 554 68 510 q 162 629 111 599 q 296 660 213 660 q 449 613 379 660 l 446 654 l 514 654 l 514 415 l 460 415 q 417 543 456 490 q 301 596 378 596 q 215 571 246 596 q 183 508 183 546 z "},"ś":{"ha":611,"x_min":68,"x_max":560,"o":"m 68 0 m 183 508 q 223 434 183 461 q 344 375 263 407 q 456 325 413 349 q 530 262 500 301 q 560 165 560 222 q 526 58 560 101 q 440 -8 493 14 q 329 -29 388 -29 q 225 -15 274 -29 q 140 19 176 -1 l 146 -17 l 76 -17 l 68 217 l 124 217 q 148 124 124 165 q 215 60 172 83 q 306 38 257 38 q 399 61 358 38 q 440 129 440 85 q 403 199 440 174 q 285 256 365 224 q 173 303 217 281 q 99 367 129 326 q 68 468 68 407 q 90 554 68 510 q 162 629 111 599 q 296 660 213 660 q 449 613 379 660 l 446 654 l 514 654 l 514 415 l 460 415 q 417 543 456 490 q 301 596 378 596 q 215 571 246 596 q 183 508 183 546 m 440 989 q 457 950 457 972 q 428 890 457 921 l 272 743 l 233 775 l 350 963 q 407 1000 376 1000 q 440 989 424 1000 z "},"š":{"ha":611,"x_min":68,"x_max":560,"o":"m 68 0 m 183 508 q 223 434 183 461 q 344 375 263 407 q 456 325 413 349 q 530 262 500 301 q 560 165 560 222 q 526 58 560 101 q 440 -8 493 14 q 329 -29 388 -29 q 225 -15 274 -29 q 140 19 176 -1 l 146 -17 l 76 -17 l 68 217 l 124 217 q 148 124 124 165 q 215 60 172 83 q 306 38 257 38 q 399 61 358 38 q 440 129 440 85 q 403 199 440 174 q 285 256 365 224 q 173 303 217 281 q 99 367 129 326 q 68 468 68 407 q 90 554 68 510 q 162 629 111 599 q 296 660 213 660 q 449 613 379 660 l 446 654 l 514 654 l 514 415 l 460 415 q 417 543 456 490 q 301 596 378 596 q 215 571 246 596 q 183 508 183 546 m 311 733 l 308 733 l 101 960 l 139 1004 l 315 853 l 318 853 l 497 1007 l 532 967 l 311 733 z "},"ş":{"ha":611,"x_min":68,"x_max":560,"o":"m 560 165 q 496 26 560 76 q 344 -29 432 -25 l 319 -103 q 414 -79 360 -79 q 482 -104 457 -79 q 507 -171 507 -129 q 424 -282 507 -244 q 235 -335 340 -319 l 226 -289 q 348 -248 303 -275 q 393 -182 393 -221 q 349 -140 393 -140 q 286 -161 317 -140 l 239 -139 l 269 -25 q 140 19 200 -14 l 146 -17 l 76 -17 l 68 217 l 124 217 q 148 124 124 165 q 215 60 172 83 q 306 38 257 38 q 399 61 358 38 q 440 129 440 85 q 403 199 440 174 q 285 256 365 224 q 173 303 217 281 q 99 367 129 326 q 68 468 68 407 q 90 554 68 510 q 162 629 111 599 q 296 660 213 660 q 449 613 379 660 l 446 654 l 514 654 l 514 415 l 460 415 q 417 543 456 490 q 301 596 378 596 q 215 571 246 596 q 183 508 183 546 q 223 434 183 461 q 344 375 263 407 q 456 325 413 349 q 530 262 500 301 q 560 165 560 222 z "},"ș":{"ha":611,"x_min":68,"x_max":560,"o":"m 68 0 m 183 508 q 223 434 183 461 q 344 375 263 407 q 456 325 413 349 q 530 262 500 301 q 560 165 560 222 q 526 58 560 101 q 440 -8 493 14 q 329 -29 388 -29 q 225 -15 274 -29 q 140 19 176 -1 l 146 -17 l 76 -17 l 68 217 l 124 217 q 148 124 124 165 q 215 60 172 83 q 306 38 257 38 q 399 61 358 38 q 440 129 440 85 q 403 199 440 174 q 285 256 365 224 q 173 303 217 281 q 99 367 129 326 q 68 468 68 407 q 90 554 68 510 q 162 629 111 599 q 296 660 213 660 q 449 613 379 660 l 446 654 l 514 654 l 514 415 l 460 415 q 417 543 456 490 q 301 596 378 596 q 215 571 246 596 q 183 508 183 546 m 406 -56 q 428 -144 428 -99 q 315 -360 428 -247 l 279 -333 q 326 -178 326 -246 q 310 -83 326 -132 l 406 -56 z "},"ß":{"ha":946,"x_min":35,"x_max":907,"o":"m 483 1056 q 627 1028 553 1056 q 756 922 701 1000 q 804 704 810 843 q 800 664 804 689 q 718 668 733 668 q 542 560 542 668 q 583 473 542 507 q 708 397 625 439 q 812 339 772 365 q 879 274 851 313 q 907 183 907 236 q 844 30 907 82 q 671 -22 781 -22 q 592 -10 638 -22 q 511 22 546 1 l 515 -11 l 457 -11 l 449 228 l 492 228 q 544 85 497 139 q 668 32 590 32 q 754 62 718 32 q 790 144 790 92 q 769 206 790 179 q 718 251 749 232 q 633 296 688 269 q 528 352 568 326 q 460 418 489 378 q 432 515 432 458 q 498 665 432 611 q 685 717 564 719 q 628 941 688 886 q 486 996 568 996 q 306 888 360 996 q 276 783 285 843 q 268 636 268 724 l 269 147 q 264 53 269 85 l 351 57 l 351 0 l 68 0 l 68 42 q 126 62 108 42 q 147 113 143 82 q 150 211 150 144 l 149 635 l 35 632 l 35 694 l 149 694 l 149 696 q 187 881 149 800 q 300 1009 225 963 q 483 1056 375 1056 z "},"t":{"ha":508,"x_min":25,"x_max":508,"o":"m 251 721 l 250 640 l 467 640 l 467 574 l 251 571 l 249 229 q 268 100 249 140 q 339 60 288 60 q 405 80 372 60 q 460 138 438 100 l 463 138 l 508 101 q 304 -29 421 -29 q 121 213 119 -29 l 124 569 l 25 568 l 25 640 q 131 692 89 638 q 196 817 174 746 l 251 817 l 251 721 z "},"ť":{"ha":508,"x_min":25,"x_max":531,"o":"m 514 1074 q 531 1013 531 1039 q 499 895 531 954 q 415 785 467 836 l 379 813 q 431 997 431 911 q 418 1092 431 1046 l 514 1074 m 251 721 l 250 640 l 467 640 l 467 574 l 251 571 l 249 229 q 268 100 249 140 q 339 60 288 60 q 405 80 372 60 q 460 138 438 100 l 463 138 l 508 101 q 304 -29 421 -29 q 121 213 119 -29 l 124 569 l 25 568 l 25 640 q 131 692 89 638 q 196 817 174 746 l 251 817 l 251 721 z "},"u":{"ha":775,"x_min":29,"x_max":742,"o":"m 742 -8 l 544 -8 q 535 60 538 25 q 437 -4 492 21 q 331 -29 382 -29 q 166 36 219 -29 q 113 256 113 101 l 113 479 q 115 554 113 528 l 29 550 l 29 618 l 76 618 q 152 627 128 618 q 192 653 176 636 l 240 653 l 240 258 q 269 102 240 151 q 369 53 299 53 q 458 79 415 53 q 529 144 501 106 l 529 465 q 535 554 529 519 l 444 550 l 444 618 l 490 618 q 567 627 542 618 q 607 653 592 636 l 656 653 l 654 167 q 649 57 654 103 l 742 61 l 742 -8 z "},"ú":{"ha":775,"x_min":29,"x_max":742,"o":"m 29 0 m 742 -8 l 544 -8 q 535 60 538 25 q 437 -4 492 21 q 331 -29 382 -29 q 166 36 219 -29 q 113 256 113 101 l 113 479 q 115 554 113 528 l 29 550 l 29 618 l 76 618 q 152 627 128 618 q 192 653 176 636 l 240 653 l 240 258 q 269 102 240 151 q 369 53 299 53 q 458 79 415 53 q 529 144 501 106 l 529 465 q 535 554 529 519 l 444 550 l 444 618 l 490 618 q 567 627 542 618 q 607 653 592 636 l 656 653 l 654 167 q 649 57 654 103 l 742 61 l 742 -8 m 465 989 q 432 1000 449 1000 q 375 963 401 1000 l 258 775 l 297 743 l 453 890 q 482 950 482 921 q 465 989 482 972 z "},"û":{"ha":775,"x_min":29,"x_max":742,"o":"m 29 0 m 742 -8 l 544 -8 q 535 60 538 25 q 437 -4 492 21 q 331 -29 382 -29 q 166 36 219 -29 q 113 256 113 101 l 113 479 q 115 554 113 528 l 29 550 l 29 618 l 76 618 q 152 627 128 618 q 192 653 176 636 l 240 653 l 240 258 q 269 102 240 151 q 369 53 299 53 q 458 79 415 53 q 529 144 501 106 l 529 465 q 535 554 529 519 l 444 550 l 444 618 l 490 618 q 567 627 542 618 q 607 653 592 636 l 656 653 l 654 167 q 649 57 654 103 l 742 61 l 742 -8 m 549 747 l 372 899 l 369 899 l 190 757 l 156 797 l 376 1018 l 379 1018 l 586 792 l 549 747 z "},"ü":{"ha":775,"x_min":29,"x_max":742,"o":"m 29 0 m 742 -8 l 544 -8 q 535 60 538 25 q 437 -4 492 21 q 331 -29 382 -29 q 166 36 219 -29 q 113 256 113 101 l 113 479 q 115 554 113 528 l 29 550 l 29 618 l 76 618 q 152 627 128 618 q 192 653 176 636 l 240 653 l 240 258 q 269 102 240 151 q 369 53 299 53 q 458 79 415 53 q 529 144 501 106 l 529 465 q 535 554 529 519 l 444 550 l 444 618 l 490 618 q 567 627 542 618 q 607 653 592 636 l 656 653 l 654 167 q 649 57 654 103 l 742 61 l 742 -8 m 308 1019 q 360 992 338 1019 q 382 928 382 965 q 359 865 382 891 q 307 839 336 839 q 255 865 277 839 q 232 928 232 891 q 255 992 232 965 q 308 1019 278 1019 m 540 1019 q 592 992 570 1019 q 614 928 614 965 q 591 865 614 891 q 538 839 568 839 q 487 865 509 839 q 464 928 464 891 q 487 992 464 965 q 540 1019 510 1019 z "},"ù":{"ha":775,"x_min":29,"x_max":742,"o":"m 29 0 m 742 -8 l 544 -8 q 535 60 538 25 q 437 -4 492 21 q 331 -29 382 -29 q 166 36 219 -29 q 113 256 113 101 l 113 479 q 115 554 113 528 l 29 550 l 29 618 l 76 618 q 152 627 128 618 q 192 653 176 636 l 240 653 l 240 258 q 269 102 240 151 q 369 53 299 53 q 458 79 415 53 q 529 144 501 106 l 529 465 q 535 554 529 519 l 444 550 l 444 618 l 490 618 q 567 627 542 618 q 607 653 592 636 l 656 653 l 654 167 q 649 57 654 103 l 742 61 l 742 -8 m 276 989 q 310 1000 293 1000 q 367 963 340 1000 l 483 775 l 444 743 l 289 890 q 260 950 260 921 q 276 989 260 972 z "},"ű":{"ha":775,"x_min":29,"x_max":742,"o":"m 29 0 m 742 -8 l 544 -8 q 535 60 538 25 q 437 -4 492 21 q 331 -29 382 -29 q 166 36 219 -29 q 113 256 113 101 l 113 479 q 115 554 113 528 l 29 550 l 29 618 l 76 618 q 152 627 128 618 q 192 653 176 636 l 240 653 l 240 258 q 269 102 240 151 q 369 53 299 53 q 458 79 415 53 q 529 144 501 106 l 529 465 q 535 554 529 519 l 444 550 l 444 618 l 490 618 q 567 627 542 618 q 607 653 592 636 l 656 653 l 654 167 q 649 57 654 103 l 742 61 l 742 -8 m 383 1004 q 403 967 403 990 q 381 913 403 943 l 260 764 l 219 789 l 297 967 q 354 1014 319 1014 q 383 1004 368 1014 m 615 976 q 624 950 624 964 q 592 893 624 915 l 389 754 l 363 790 l 531 974 q 578 996 553 996 q 615 976 600 996 z "},"ū":{"ha":775,"x_min":29,"x_max":742,"o":"m 29 0 m 742 -8 l 544 -8 q 535 60 538 25 q 437 -4 492 21 q 331 -29 382 -29 q 166 36 219 -29 q 113 256 113 101 l 113 479 q 115 554 113 528 l 29 550 l 29 618 l 76 618 q 152 627 128 618 q 192 653 176 636 l 240 653 l 240 258 q 269 102 240 151 q 369 53 299 53 q 458 79 415 53 q 529 144 501 106 l 529 465 q 535 554 529 519 l 444 550 l 444 618 l 490 618 q 567 627 542 618 q 607 653 592 636 l 656 653 l 654 167 q 649 57 654 103 l 742 61 l 742 -8 m 186 826 l 186 910 l 554 910 l 554 832 l 186 826 z "},"ų":{"ha":775,"x_min":29,"x_max":750,"o":"m 750 -272 q 676 -334 721 -308 q 585 -360 632 -360 q 478 -320 518 -360 q 438 -218 438 -281 q 488 -101 438 -156 q 618 -8 538 -47 l 544 -8 q 535 60 538 25 q 437 -4 492 21 q 331 -29 382 -29 q 166 36 219 -29 q 113 256 113 101 l 113 479 q 115 554 113 528 l 29 550 l 29 618 l 76 618 q 152 627 128 618 q 192 653 176 636 l 240 653 l 240 258 q 269 102 240 151 q 369 53 299 53 q 458 79 415 53 q 529 144 501 106 l 529 465 q 535 554 529 519 l 444 550 l 444 618 l 490 618 q 567 627 542 618 q 607 653 592 636 l 656 653 l 654 167 q 649 57 654 103 l 742 61 l 742 -8 l 711 -8 q 594 -84 639 -37 q 550 -190 550 -131 q 575 -260 550 -233 q 636 -286 600 -286 q 726 -247 681 -286 l 750 -272 z "},"ů":{"ha":775,"x_min":29,"x_max":742,"o":"m 29 0 m 742 -8 l 544 -8 q 535 60 538 25 q 437 -4 492 21 q 331 -29 382 -29 q 166 36 219 -29 q 113 256 113 101 l 113 479 q 115 554 113 528 l 29 550 l 29 618 l 76 618 q 152 627 128 618 q 192 653 176 636 l 240 653 l 240 258 q 269 102 240 151 q 369 53 299 53 q 458 79 415 53 q 529 144 501 106 l 529 465 q 535 554 529 519 l 444 550 l 444 618 l 490 618 q 567 627 542 618 q 607 653 592 636 l 656 653 l 654 167 q 649 57 654 103 l 742 61 l 742 -8 m 369 994 q 466 961 425 994 q 507 864 507 928 q 465 767 507 806 q 372 729 424 729 q 276 763 317 729 q 235 860 235 796 q 276 956 235 918 q 369 994 317 994 m 371 951 q 326 928 343 951 q 308 868 308 906 q 326 799 308 826 q 375 772 344 772 q 417 794 400 772 q 433 854 433 817 q 417 925 433 899 q 371 951 400 951 z "},"v":{"ha":653,"x_min":1,"x_max":656,"o":"m 656 585 l 654 585 q 608 569 626 586 q 574 522 589 553 q 531 421 558 490 l 360 -12 l 300 -12 l 113 406 q 58 575 64 515 l 1 571 l 1 640 l 254 640 l 254 585 l 253 585 q 197 544 197 586 q 224 456 197 518 l 324 233 l 356 157 l 379 222 l 482 499 q 514 575 492 528 l 439 571 l 439 640 l 656 640 l 656 585 z "},"w":{"ha":1026,"x_min":-1,"x_max":1035,"o":"m 1035 585 l 1033 585 q 966 573 990 583 q 929 544 942 563 q 904 490 917 525 l 717 -12 l 657 -12 l 493 451 l 329 -12 l 271 -12 l 100 478 q 68 575 74 557 l -1 571 l -1 640 l 286 640 l 286 585 l 285 585 q 234 572 250 585 q 218 535 218 560 q 236 460 218 510 l 329 181 q 488 640 436 486 l 550 640 l 717 171 l 833 501 q 863 574 847 546 l 797 571 l 797 640 l 1035 640 l 1035 585 z "},"x":{"ha":688,"x_min":24,"x_max":679,"o":"m 679 -8 l 415 -8 l 415 46 l 417 46 q 464 64 464 43 q 449 94 464 75 l 319 251 l 215 113 q 171 57 199 89 l 258 60 l 258 -8 l 28 -8 l 28 44 q 88 72 65 53 q 150 146 110 92 l 275 304 l 151 467 q 88 574 107 525 l 24 571 l 24 640 l 303 640 l 303 585 l 301 585 q 253 578 268 583 q 239 558 239 572 q 278 485 239 536 l 347 392 l 460 524 l 503 575 l 426 571 l 426 640 l 651 640 l 651 586 q 574 549 601 572 q 485 453 546 525 l 390 342 l 563 132 q 617 57 594 89 l 679 60 l 679 -8 z "},"y":{"ha":681,"x_min":-1,"x_max":682,"o":"m 682 586 l 681 586 q 614 537 636 571 q 563 426 592 503 l 401 -14 q 324 -208 354 -142 q 253 -312 293 -275 q 156 -350 213 -350 q 83 -328 113 -350 q 53 -265 53 -306 q 72 -217 53 -239 q 118 -196 90 -196 q 161 -217 147 -196 q 175 -258 175 -237 q 174 -271 175 -265 q 206 -262 189 -274 q 240 -225 224 -251 q 328 -14 272 -169 l 128 406 q 61 574 79 513 l -1 571 l -1 640 l 279 640 l 279 585 l 267 585 q 226 572 239 582 q 213 542 213 563 q 243 449 213 514 l 388 146 q 422 244 407 199 q 450 324 438 289 l 492 447 q 544 575 524 540 l 467 571 l 467 640 l 682 640 l 682 586 z "},"ý":{"ha":681,"x_min":-1,"x_max":682,"o":"m 0 0 m 682 586 l 681 586 q 614 537 636 571 q 563 426 592 503 l 401 -14 q 324 -208 354 -142 q 253 -312 293 -275 q 156 -350 213 -350 q 83 -328 113 -350 q 53 -265 53 -306 q 72 -217 53 -239 q 118 -196 90 -196 q 161 -217 147 -196 q 175 -258 175 -237 q 174 -271 175 -265 q 206 -262 189 -274 q 240 -225 224 -251 q 328 -14 272 -169 l 128 406 q 61 574 79 513 l -1 571 l -1 640 l 279 640 l 279 585 l 267 585 q 226 572 239 582 q 213 542 213 563 q 243 449 213 514 l 388 146 q 422 244 407 199 q 450 324 438 289 l 492 447 q 544 575 524 540 l 467 571 l 467 640 l 682 640 l 682 586 m 464 989 q 431 1000 447 1000 q 374 963 400 1000 l 257 775 l 296 743 l 451 890 q 481 950 481 921 q 464 989 481 972 z "},"ÿ":{"ha":681,"x_min":-1,"x_max":682,"o":"m 0 0 m 682 586 l 681 586 q 614 537 636 571 q 563 426 592 503 l 401 -14 q 324 -208 354 -142 q 253 -312 293 -275 q 156 -350 213 -350 q 83 -328 113 -350 q 53 -265 53 -306 q 72 -217 53 -239 q 118 -196 90 -196 q 161 -217 147 -196 q 175 -258 175 -237 q 174 -271 175 -265 q 206 -262 189 -274 q 240 -225 224 -251 q 328 -14 272 -169 l 128 406 q 61 574 79 513 l -1 571 l -1 640 l 279 640 l 279 585 l 267 585 q 226 572 239 582 q 213 542 213 563 q 243 449 213 514 l 388 146 q 422 244 407 199 q 450 324 438 289 l 492 447 q 544 575 524 540 l 467 571 l 467 640 l 682 640 l 682 586 m 287 1019 q 339 992 318 1019 q 361 928 361 965 q 338 865 361 891 q 286 839 315 839 q 234 865 256 839 q 211 928 211 891 q 234 992 211 965 q 287 1019 257 1019 m 519 1019 q 571 992 550 1019 q 593 928 593 965 q 570 865 593 891 q 518 839 547 839 q 466 865 488 839 q 443 928 443 891 q 466 992 443 965 q 519 1019 489 1019 z "},"z":{"ha":669,"x_min":50,"x_max":614,"o":"m 239 117 q 221 94 235 111 q 188 60 207 76 l 186 60 l 414 57 q 519 102 488 56 q 563 238 550 149 l 614 238 l 597 -8 l 50 -8 l 50 56 l 410 511 q 468 579 456 567 l 247 575 q 158 530 183 574 q 121 397 133 486 l 68 397 l 85 640 l 604 640 l 604 586 l 239 117 z "},"ź":{"ha":669,"x_min":50,"x_max":614,"o":"m 50 0 m 239 117 q 221 94 235 111 q 188 60 207 76 l 186 60 l 414 57 q 519 102 488 56 q 563 238 550 149 l 614 238 l 597 -8 l 50 -8 l 50 56 l 410 511 q 468 579 456 567 l 247 575 q 158 530 183 574 q 121 397 133 486 l 68 397 l 85 640 l 604 640 l 604 586 l 239 117 m 471 989 q 488 950 488 972 q 458 890 488 921 l 303 743 l 264 775 l 381 963 q 438 1000 407 1000 q 471 989 454 1000 z "},"ž":{"ha":669,"x_min":50,"x_max":614,"o":"m 50 0 m 239 117 q 221 94 235 111 q 188 60 207 76 l 186 60 l 414 57 q 519 102 488 56 q 563 238 550 149 l 614 238 l 597 -8 l 50 -8 l 50 56 l 410 511 q 468 579 456 567 l 247 575 q 158 530 183 574 q 121 397 133 486 l 68 397 l 85 640 l 604 640 l 604 586 l 239 117 m 342 733 l 339 733 l 132 960 l 169 1004 l 346 853 l 349 853 l 528 1007 l 563 967 l 342 733 z "},"ż":{"ha":669,"x_min":50,"x_max":614,"o":"m 50 0 m 239 117 q 221 94 235 111 q 188 60 207 76 l 186 60 l 414 57 q 519 102 488 56 q 563 238 550 149 l 614 238 l 597 -8 l 50 -8 l 50 56 l 410 511 q 468 579 456 567 l 247 575 q 158 530 183 574 q 121 397 133 486 l 68 397 l 85 640 l 604 640 l 604 586 l 239 117 m 349 956 q 406 929 382 956 q 429 865 429 903 q 404 803 429 829 q 347 776 379 776 q 291 803 315 776 q 267 865 267 829 q 292 929 267 903 q 349 956 317 956 z "},"ﬁ":{"ha":833,"x_min":38,"x_max":824,"o":"m 150 550 l 38 583 l 50 644 l 150 644 q 177 824 150 746 q 275 949 204 901 q 364 987 317 975 q 482 999 411 999 q 575 985 529 999 q 650 956 621 972 q 703 885 703 926 q 674 824 703 854 q 614 794 646 794 q 569 807 594 794 l 539 922 q 481 926 519 926 q 324 857 375 926 q 271 644 272 788 l 703 651 l 703 86 l 824 53 l 813 0 l 471 0 l 482 57 l 582 86 l 582 524 q 539 555 564 542 q 489 574 514 568 l 271 551 l 271 86 l 394 54 l 383 0 l 39 0 l 51 58 l 150 92 l 150 550 z "},"ﬂ":{"ha":836,"x_min":38,"x_max":818,"o":"m 807 0 l 479 0 l 490 57 l 581 86 l 581 808 l 551 922 q 490 926 529 926 q 318 848 364 926 q 271 644 272 769 l 483 644 l 474 590 l 271 551 l 271 86 l 394 54 l 383 0 l 40 0 l 51 58 l 150 92 l 150 550 l 38 585 l 51 644 l 150 644 q 229 909 150 818 q 463 1000 308 1000 q 583 982 538 1000 l 701 999 l 701 86 l 818 57 l 807 0 z "},"ª":{"ha":658,"x_min":94,"x_max":588,"o":"m 243 433 q 161 456 194 433 q 111 512 128 478 q 94 579 94 546 q 114 653 94 629 q 181 697 133 678 q 372 724 243 724 q 392 722 389 724 q 382 834 392 793 q 344 890 372 875 q 269 900 326 900 q 239 897 247 900 l 224 815 q 179 801 192 801 q 138 821 158 801 q 117 864 117 840 q 129 889 117 876 q 160 911 142 901 q 258 949 201 935 q 349 963 315 963 q 457 920 422 963 q 492 807 492 878 l 492 546 q 582 493 513 508 l 576 467 q 515 444 557 456 q 449 433 474 433 q 431 478 444 450 q 406 517 417 506 q 339 462 393 490 q 243 433 285 433 m 257 518 q 272 515 265 515 q 336 525 300 515 q 392 547 372 535 l 392 681 q 273 664 317 676 q 218 639 229 651 q 208 607 208 631 q 223 554 208 582 q 257 518 238 526 m 588 361 l 569 294 q 100 282 374 282 l 117 361 l 588 361 z "},"º":{"ha":644,"x_min":93,"x_max":553,"o":"m 93 678 q 122 817 93 751 q 204 923 151 883 q 322 963 257 963 q 485 900 421 963 q 549 717 549 838 q 519 578 549 643 q 438 473 489 513 q 325 433 386 433 q 158 494 222 433 q 93 678 93 556 m 360 510 q 422 531 400 510 q 449 583 439 544 q 458 654 458 621 q 413 816 458 746 q 282 886 367 886 q 219 865 240 886 q 193 813 203 849 q 183 742 183 778 q 202 632 183 685 q 260 544 221 579 q 360 510 300 510 m 553 361 l 535 294 q 100 282 340 282 l 117 361 l 553 361 z "},"π":{"ha":894,"x_min":46,"x_max":836,"o":"m 628 136 q 642 90 628 106 q 688 70 656 75 q 788 65 721 65 l 782 29 q 586 -14 647 -14 q 506 124 506 -14 q 517 318 508 189 q 532 546 525 447 l 313 546 l 286 13 l 146 -14 l 213 546 l 46 546 l 85 644 l 836 644 l 801 546 l 628 546 l 628 136 z "},"क":{"ha":1011,"x_min":-42,"x_max":1053,"o":"m 793 590 q 922 533 871 590 q 974 367 974 476 q 934 201 974 278 q 824 78 894 124 l 757 176 q 863 284 826 218 q 900 403 900 350 q 878 481 900 454 q 817 507 856 507 q 710 475 768 507 q 593 376 651 443 l 593 -75 l 483 -28 l 483 249 q 383 182 436 204 q 276 160 329 160 q 169 192 218 160 q 90 281 119 225 q 61 404 61 338 q 122 563 61 510 q 283 615 183 615 q 483 558 390 615 l 483 592 q 493 703 483 639 l -3 703 l -42 792 l 1014 792 l 1053 703 l 661 703 q 610 678 626 703 q 593 613 593 653 l 593 492 q 689 565 636 539 q 793 590 742 590 m 264 251 q 374 281 315 251 q 483 361 433 310 l 483 461 q 289 511 393 511 q 178 475 222 511 q 133 369 133 439 q 167 278 133 306 q 264 251 201 251 z "},"ख":{"ha":1011,"x_min":-42,"x_max":1053,"o":"m 939 703 q 888 678 904 703 q 871 613 871 653 l 871 -75 l 761 -28 l 761 97 q 457 21 610 21 q 226 74 319 21 q 87 205 132 126 q 42 360 42 283 q 65 429 42 406 q 121 453 88 453 q 165 442 143 453 q 201 410 186 431 q 217 492 217 444 q 168 703 217 581 l -3 703 l -42 792 l 1014 792 l 1053 703 l 939 703 m 761 592 q 771 703 761 640 l 250 703 q 281 590 269 651 q 293 472 293 529 q 259 317 293 379 q 154 251 225 256 q 255 137 189 169 q 424 104 321 104 q 761 200 589 104 l 761 263 q 632 224 686 224 q 506 258 564 224 q 414 347 449 292 q 379 461 379 401 q 431 589 379 542 q 567 636 482 636 q 665 617 618 636 q 761 569 713 599 l 761 592 m 761 500 q 614 543 686 543 q 512 507 551 543 q 472 400 472 471 q 495 335 472 364 q 565 307 518 307 q 668 329 614 307 q 761 388 722 351 l 761 500 z "},"ग":{"ha":728,"x_min":-42,"x_max":769,"o":"m 661 703 q 610 678 626 703 q 593 613 593 653 l 593 -75 l 483 -28 l 483 592 q 493 703 483 640 l 253 703 q 299 566 282 644 q 315 407 315 488 q 280 197 315 281 q 171 114 244 114 q 85 151 119 114 q 51 242 51 189 q 133 299 51 299 q 164 297 153 299 q 219 449 219 338 q 199 585 219 515 q 144 703 178 656 l -3 703 l -42 792 l 731 792 l 769 703 l 661 703 z "},"घ":{"ha":797,"x_min":-42,"x_max":839,"o":"m 771 703 q 719 678 736 703 q 703 613 703 653 l 703 -75 l 593 -28 l 593 189 q 367 99 489 99 q 246 128 297 99 q 167 206 194 158 q 139 306 139 253 q 186 432 139 374 q 96 589 96 492 q 139 703 96 657 l -3 703 l -42 792 l 800 792 l 839 703 l 771 703 m 593 592 q 603 703 593 640 l 396 703 q 238 662 289 701 q 186 556 186 622 q 226 471 186 511 q 375 538 292 521 l 406 444 q 288 374 332 429 q 244 263 244 319 q 272 192 244 219 q 351 164 299 164 q 593 363 489 164 l 593 592 z "},"ङ":{"ha":825,"x_min":-42,"x_max":867,"o":"m 576 538 l 329 531 q 240 509 267 529 q 213 450 213 489 q 229 392 213 417 q 271 367 246 367 q 311 373 288 367 q 360 386 335 379 q 430 404 403 399 q 483 410 457 410 q 559 378 525 410 q 612 297 593 347 q 631 190 631 246 q 611 92 631 140 q 548 10 592 43 q 436 -22 504 -22 q 215 51 322 -22 q 44 225 107 125 l 89 256 q 235 126 158 169 q 382 83 313 83 q 484 109 443 83 q 544 171 525 135 q 563 238 563 207 q 526 293 563 286 q 510 294 521 294 q 436 283 492 294 q 331 269 369 269 q 256 283 289 269 q 168 365 206 304 q 131 490 131 425 q 174 588 131 556 q 289 618 217 621 l 467 614 q 476 703 467 663 l -3 703 l -42 792 l 828 792 l 867 703 l 644 703 q 593 678 610 703 q 576 613 576 653 l 575 539 l 576 538 m 682 528 q 735 554 708 554 q 793 524 763 554 q 825 465 825 492 q 797 413 825 438 q 744 386 771 386 q 686 417 717 386 q 656 475 656 447 q 682 528 656 501 z "},"च":{"ha":825,"x_min":-42,"x_max":867,"o":"m 758 703 q 707 678 724 703 q 690 613 690 653 l 690 -75 l 581 -28 l 581 181 q 488 130 526 146 q 396 114 449 114 q 274 139 329 114 q 186 208 218 164 q 154 304 154 251 q 187 400 154 356 q 279 472 219 444 l 115 469 l 76 558 l 478 558 l 515 478 q 373 442 432 474 q 284 364 314 410 q 254 274 254 318 q 279 206 254 232 q 351 179 304 179 q 478 222 415 179 q 581 351 542 264 l 581 592 q 590 703 581 640 l -3 703 l -42 792 l 828 792 l 867 703 l 758 703 z "},"छ":{"ha":894,"x_min":-42,"x_max":936,"o":"m 742 561 q 842 478 804 536 q 879 339 879 421 q 816 147 879 233 q 651 13 753 61 q 442 -36 550 -36 q 281 -1 349 -36 q 180 88 214 33 q 146 200 146 142 q 171 290 146 253 q 85 372 114 325 q 56 468 56 419 q 81 553 56 514 q 154 617 106 593 q 269 640 203 640 q 375 625 324 640 l 401 539 q 297 557 347 557 q 176 522 222 557 q 131 440 131 488 q 150 377 131 403 q 214 332 169 351 q 339 363 263 363 q 421 354 378 363 l 433 274 q 376 278 403 278 q 261 247 303 278 q 219 167 219 217 q 266 81 219 113 q 400 50 313 50 q 580 91 488 50 q 726 203 672 132 q 567 297 629 238 q 504 436 504 356 q 540 531 504 496 q 636 574 576 567 l 636 592 q 646 703 636 663 l -3 703 l -42 792 l 897 792 l 936 703 l 810 703 q 758 678 775 703 q 742 613 742 653 l 742 561 m 619 432 q 757 249 619 328 q 783 361 783 304 q 754 473 783 433 q 683 513 725 513 q 637 492 654 513 q 619 432 619 472 z "},"ज":{"ha":926,"x_min":-42,"x_max":968,"o":"m 864 703 q 813 678 829 703 q 796 613 796 653 l 796 -75 l 686 -28 l 686 360 l 454 372 q 566 253 528 324 q 604 121 604 182 q 549 7 604 49 q 393 -35 494 -35 q 258 2 329 -35 q 123 107 188 39 q 14 268 58 175 l 60 299 q 210 131 128 189 q 368 74 292 74 q 436 94 418 74 q 454 154 454 114 q 397 283 454 214 q 249 393 340 351 l 239 453 l 686 453 l 686 592 q 696 703 686 640 l -3 703 l -42 792 l 929 792 l 968 703 l 864 703 z "},"झ":{"ha":1022,"x_min":-42,"x_max":1064,"o":"m 951 703 q 900 678 917 703 q 883 613 883 653 l 883 -75 l 774 -28 l 774 343 l 606 331 q 644 208 644 275 q 572 8 644 78 q 388 -61 499 -61 q 272 -42 331 -61 q 161 11 214 -24 l 150 4 q 215 -97 181 -57 q 306 -183 249 -136 l 218 -258 q 85 -46 131 -131 q 39 103 39 39 q 62 165 39 144 q 119 185 85 185 q 180 160 154 185 q 206 94 206 136 q 197 50 206 69 q 306 15 239 15 q 465 72 401 15 q 529 215 529 128 q 504 268 529 251 q 438 285 479 285 q 322 263 386 285 q 276 256 303 256 q 194 278 233 256 q 131 342 156 301 q 107 433 107 383 q 160 542 107 500 q 289 581 214 583 l 476 572 l 476 592 q 486 703 476 663 l -3 703 l -42 792 l 1025 792 l 1064 703 l 951 703 m 774 592 q 783 703 774 640 l 654 703 q 603 678 619 703 q 586 613 586 653 l 586 499 l 307 488 q 226 460 256 486 q 197 404 197 435 q 210 372 197 383 q 250 360 224 360 q 288 365 271 360 q 335 382 306 371 q 394 403 369 396 q 451 411 419 411 l 774 411 l 774 592 z "},"ञ":{"ha":954,"x_min":-42,"x_max":996,"o":"m 906 703 q 854 678 871 703 q 838 613 838 653 l 838 -75 l 728 -28 l 728 371 l 614 365 q 551 183 615 247 q 389 119 488 119 q 187 186 286 119 q 31 372 88 253 l 75 403 q 210 287 126 328 q 376 246 293 246 q 504 281 454 246 q 554 382 554 317 q 523 463 554 436 q 440 490 492 490 q 292 442 365 490 l 231 532 q 320 585 272 567 q 414 604 368 604 q 532 565 481 604 q 603 453 583 526 l 728 453 l 728 592 q 738 703 728 640 l -3 703 l -42 792 l 957 792 l 996 703 l 906 703 z "},"ट":{"ha":735,"x_min":-42,"x_max":776,"o":"m 363 78 q 474 105 419 78 q 593 204 528 132 l 669 110 q 545 19 604 47 q 418 -8 486 -8 q 242 38 319 -8 q 123 157 165 83 q 81 311 81 231 q 119 442 81 388 q 224 525 158 497 q 368 550 289 553 l 467 547 l 467 592 q 476 703 467 663 l -3 703 l -42 792 l 738 792 l 776 703 l 644 703 q 593 678 610 703 q 576 613 576 653 l 576 463 l 367 449 q 229 395 279 443 q 179 260 179 347 q 228 126 179 175 q 363 78 278 78 z "},"ठ":{"ha":735,"x_min":-42,"x_max":776,"o":"m 576 499 q 678 392 649 450 q 707 250 707 335 q 662 109 707 167 q 547 23 617 51 q 406 -6 478 -6 q 235 40 310 -6 q 121 157 161 85 q 81 306 81 229 q 112 426 81 371 q 205 515 143 482 q 353 549 267 549 l 467 549 l 467 592 q 476 703 467 663 l -3 703 l -42 792 l 738 792 l 776 703 l 644 703 q 593 678 610 703 q 576 613 576 653 l 576 499 m 357 78 q 483 106 426 78 q 573 184 540 133 q 606 300 606 235 q 577 392 606 356 q 494 457 549 429 l 364 447 q 226 387 275 440 q 178 260 178 333 q 226 125 178 172 q 357 78 275 78 z "},"ड":{"ha":707,"x_min":-42,"x_max":749,"o":"m 315 529 q 235 497 264 528 q 207 428 207 465 q 224 380 207 399 q 272 361 242 361 q 347 379 299 361 q 408 397 386 392 q 456 401 429 401 q 540 374 500 401 q 606 299 581 347 q 631 192 631 250 q 581 40 631 100 q 417 -21 531 -21 q 198 58 288 -21 q 44 268 108 136 l 89 299 q 226 131 156 178 q 379 85 296 85 q 519 124 471 85 q 567 217 567 164 q 547 281 567 257 q 494 306 528 306 q 403 288 463 306 q 303 268 336 268 q 225 298 265 268 q 158 378 185 328 q 131 490 131 429 q 172 583 131 549 q 275 618 213 618 l 468 618 q 478 703 471 674 l -3 703 l -42 792 l 710 792 l 749 703 l 646 703 q 594 678 611 703 q 578 613 578 653 l 578 538 l 315 529 z "},"ढ":{"ha":735,"x_min":-42,"x_max":776,"o":"m 451 386 q 558 354 511 386 q 629 271 604 322 q 654 164 654 219 q 589 36 654 82 q 424 -10 524 -10 q 239 38 317 -10 q 121 158 161 85 q 81 303 81 231 q 116 431 81 375 q 213 518 151 488 q 349 549 274 549 l 467 549 l 467 593 q 476 703 467 642 l -3 703 l -42 792 l 738 792 l 776 703 l 629 703 q 576 614 576 693 l 576 468 l 403 460 q 234 398 290 454 q 178 257 178 342 q 239 116 178 163 q 396 68 300 69 q 317 149 344 103 q 289 240 289 194 q 331 344 289 303 q 451 386 374 386 m 471 76 q 548 125 521 90 q 575 207 575 160 q 549 271 575 244 q 481 297 524 297 q 417 269 442 297 q 393 204 393 242 q 413 136 393 165 q 471 76 432 107 z "},"ण":{"ha":864,"x_min":-42,"x_max":906,"o":"m 801 703 q 750 678 767 703 q 733 613 733 653 l 733 -75 l 624 -28 l 624 592 q 633 703 624 640 l 511 703 l 511 406 q 464 233 511 292 q 333 175 417 175 q 197 219 258 175 q 102 342 136 264 q 68 521 68 421 l 68 703 l -3 703 l -42 792 l 867 792 l 906 703 l 801 703 m 178 703 l 178 393 q 207 294 178 326 q 285 263 236 263 q 369 296 336 263 q 401 419 401 329 l 401 703 l 178 703 z "},"त":{"ha":704,"x_min":-42,"x_max":746,"o":"m 642 703 q 590 678 607 703 q 574 613 574 653 l 574 -75 l 464 -28 l 464 463 l 307 463 q 138 326 138 463 q 181 169 138 244 q 303 43 225 94 l 274 -11 q 76 160 147 58 q 6 356 6 261 q 68 497 6 443 q 250 551 131 551 l 464 551 l 464 592 q 474 703 464 640 l -3 703 l -42 792 l 707 792 l 746 703 l 642 703 z "},"थ":{"ha":851,"x_min":90,"x_max":893,"o":"m 789 703 q 738 678 754 703 q 721 613 721 653 l 721 -75 l 611 -28 l 611 175 q 451 143 529 143 q 249 203 338 143 q 117 351 161 264 l 131 407 q 247 451 206 429 q 132 553 174 493 q 90 678 90 613 q 133 775 90 739 q 242 811 175 811 q 356 778 308 811 q 429 692 404 746 q 454 576 454 639 q 389 434 454 494 q 218 342 324 374 q 288 279 242 300 q 392 258 333 258 q 506 276 447 258 q 611 325 565 294 l 611 592 q 621 703 611 640 l 499 703 l 460 792 l 854 792 l 893 703 l 789 703 m 201 658 q 222 562 201 606 q 288 478 243 518 q 335 541 319 504 q 350 632 350 578 q 326 719 350 689 q 271 750 303 750 q 222 726 242 750 q 201 658 201 701 z "},"द":{"ha":750,"x_min":-42,"x_max":778,"o":"m 646 154 q 586 53 646 93 l 746 -124 l 658 -199 q 546 11 628 -126 l 529 39 q 419 19 475 19 q 247 65 321 19 q 135 180 174 110 q 96 325 96 250 q 169 494 96 433 q 363 550 243 554 l 468 546 l 468 592 q 478 703 468 640 l -1 703 l -42 792 l 739 792 l 778 703 l 646 703 q 594 678 611 703 q 578 613 578 653 l 578 457 l 368 449 q 181 286 181 442 q 230 155 181 203 q 364 106 279 107 q 482 138 425 106 q 479 163 479 154 q 504 222 479 200 q 560 244 529 244 q 621 221 596 244 q 646 154 646 197 z "},"ध":{"ha":865,"x_min":76,"x_max":907,"o":"m 803 703 q 751 678 768 703 q 735 613 735 653 l 735 -75 l 625 -28 l 625 143 q 541 89 582 106 q 444 72 500 72 q 297 107 360 72 q 201 199 235 142 q 168 318 168 256 q 210 439 168 389 q 112 539 147 476 q 76 664 76 601 q 119 781 76 733 q 242 829 163 829 q 338 805 297 829 q 401 742 379 781 q 424 661 424 703 q 382 574 424 604 l 314 643 q 340 704 340 669 q 324 748 340 731 q 278 765 307 765 q 204 728 236 765 q 172 632 172 692 q 191 546 172 588 q 246 474 210 504 q 375 511 303 511 q 401 510 393 511 l 433 426 q 293 381 338 421 q 249 281 249 340 q 281 190 249 221 q 372 160 314 160 q 514 208 447 160 q 625 343 581 256 l 625 592 q 635 703 625 640 l 492 703 l 453 792 l 868 792 l 907 703 l 803 703 z "},"न":{"ha":718,"x_min":-42,"x_max":760,"o":"m 661 703 q 610 678 626 703 q 593 613 593 653 l 593 -75 l 483 -28 l 483 374 l 269 367 l 269 293 q 259 234 269 253 q 224 215 249 215 q 154 248 196 215 q 82 326 113 281 q 51 410 51 372 q 66 442 51 432 q 115 453 81 453 l 483 453 l 483 592 q 493 703 483 640 l -3 703 l -42 792 l 721 792 l 760 703 l 661 703 z "},"ऩ":{"ha":718,"x_min":-42,"x_max":760,"o":"m 0 0 m 661 703 q 610 678 626 703 q 593 613 593 653 l 593 -75 l 483 -28 l 483 374 l 269 367 l 269 293 q 259 234 269 253 q 224 215 249 215 q 154 248 196 215 q 82 326 113 281 q 51 410 51 372 q 66 442 51 432 q 115 453 81 453 l 483 453 l 483 592 q 493 703 483 640 l -3 703 l -42 792 l 721 792 l 760 703 l 661 703 m 224 53 q 250 -6 250 26 q 228 -58 250 -36 q 176 -79 207 -79 q 117 -54 142 -79 q 92 6 92 -29 q 113 57 92 36 q 165 78 133 78 q 224 53 199 78 z "},"प":{"ha":724,"x_min":-42,"x_max":765,"o":"m 686 703 q 635 678 651 703 q 618 613 618 653 l 618 -75 l 508 -28 l 508 249 q 354 204 439 204 q 172 286 236 204 q 104 514 108 368 l 104 592 q 114 703 104 640 l -3 703 l -42 792 l 726 792 l 765 703 l 686 703 m 508 592 q 518 703 508 639 l 282 703 q 231 678 247 703 q 214 613 214 653 l 214 382 q 239 305 214 333 q 304 276 264 276 q 417 308 364 276 q 508 403 469 340 l 508 592 z "},"फ":{"ha":1069,"x_min":-42,"x_max":1111,"o":"m 851 569 q 986 509 939 569 q 1033 358 1033 449 q 984 174 1033 264 q 847 36 935 83 l 781 136 q 914 265 865 193 q 963 394 963 338 q 940 456 963 433 q 874 478 917 478 q 749 439 818 478 q 617 332 681 400 l 617 -75 l 507 -28 l 507 247 q 354 196 431 196 q 169 288 233 196 q 104 535 104 379 l 104 592 q 114 703 104 640 l -3 703 l -42 792 l 1072 792 l 1111 703 l 685 703 q 633 678 650 703 q 617 613 617 653 l 617 460 q 738 545 681 521 q 851 569 794 569 m 318 276 q 507 365 415 276 l 507 592 q 517 703 507 640 l 282 703 q 231 678 247 703 q 214 613 214 653 l 214 382 q 243 301 214 326 q 318 276 272 276 z "},"ब":{"ha":771,"x_min":-42,"x_max":813,"o":"m 699 703 q 647 678 664 703 q 631 613 631 653 l 631 -75 l 521 -28 l 521 165 q 418 118 465 132 q 322 104 371 104 q 187 138 246 104 q 94 231 128 172 q 61 364 61 290 q 122 519 61 465 q 285 574 182 574 q 401 556 349 574 q 521 489 453 538 l 521 592 q 531 703 521 640 l -3 703 l -42 792 l 774 792 l 813 703 l 699 703 m 438 228 q 521 271 479 243 l 521 399 q 289 469 394 469 l 268 468 l 438 228 m 275 197 q 381 210 329 197 l 207 454 q 151 403 169 438 q 132 325 132 369 q 173 229 132 261 q 275 197 214 197 z "},"भ":{"ha":854,"x_min":63,"x_max":896,"o":"m 819 703 q 768 678 785 703 q 751 613 751 653 l 751 -75 l 642 -28 l 642 372 l 381 367 l 378 329 q 367 266 375 285 q 339 247 360 247 q 270 274 310 247 q 203 338 231 300 q 175 403 175 375 q 236 453 175 453 l 274 453 l 278 518 q 126 585 189 532 q 63 710 63 638 q 94 792 63 761 q 179 822 126 822 q 335 754 283 822 q 386 526 386 686 q 383 453 386 506 l 642 453 l 642 592 q 651 703 642 640 l 494 703 l 456 792 l 857 792 l 896 703 l 819 703 m 164 700 q 195 628 164 661 q 282 581 226 596 q 271 716 285 672 q 215 760 257 760 q 164 700 164 760 z "},"म":{"ha":732,"x_min":-42,"x_max":774,"o":"m 697 703 q 646 678 663 703 q 629 613 629 653 l 629 -75 l 519 -28 l 519 372 l 226 367 l 226 293 q 216 234 226 253 q 181 215 206 215 q 111 248 153 215 q 39 326 69 281 q 8 410 8 372 q 23 442 8 432 q 72 453 38 453 l 117 453 l 117 592 q 126 703 117 640 l -3 703 l -42 792 l 735 792 l 774 703 l 697 703 m 519 592 q 529 703 519 640 l 294 703 q 243 678 260 703 q 226 613 226 653 l 226 453 l 519 453 l 519 592 z "},"य":{"ha":732,"x_min":-42,"x_max":774,"o":"m 697 703 q 646 678 663 703 q 629 613 629 653 l 629 -75 l 519 -28 l 519 178 q 376 153 449 153 q 191 204 276 153 q 47 360 106 256 l 61 417 q 228 578 228 467 q 188 703 228 631 l -3 703 l -42 792 l 735 792 l 774 703 l 697 703 m 519 592 q 529 703 519 640 l 263 703 q 313 551 313 621 q 269 433 313 483 q 150 353 226 383 q 219 290 174 311 q 324 268 265 268 q 425 282 374 268 q 519 322 476 296 l 519 592 z "},"र":{"ha":525,"x_min":-42,"x_max":567,"o":"m 165 275 q 276 128 197 183 q 453 72 356 72 q 513 78 485 72 l 483 -37 q 251 35 349 -37 q 103 209 154 108 q 53 386 53 310 q 76 445 53 422 q 135 468 99 468 q 190 454 169 468 q 233 410 211 440 q 285 553 285 465 q 254 703 285 621 l -3 703 l -42 792 l 528 792 l 567 703 l 338 703 q 365 532 365 615 q 340 394 365 454 q 269 303 315 335 q 165 275 224 272 z "},"ऱ":{"ha":525,"x_min":-42,"x_max":567,"o":"m 0 0 m 165 275 q 276 128 197 183 q 453 72 356 72 q 513 78 485 72 l 483 -37 q 251 35 349 -37 q 103 209 154 108 q 53 386 53 310 q 76 445 53 422 q 135 468 99 468 q 190 454 169 468 q 233 410 211 440 q 285 553 285 465 q 254 703 285 621 l -3 703 l -42 792 l 528 792 l 567 703 l 338 703 q 365 532 365 615 q 340 394 365 454 q 269 303 315 335 q 165 275 224 272 m 124 25 q 150 -33 150 -1 q 128 -86 150 -64 q 76 -107 107 -107 q 17 -82 42 -107 q -8 -22 -8 -57 q 13 29 -8 8 q 65 50 33 50 q 124 25 99 50 z "},"ल":{"ha":954,"x_min":-42,"x_max":996,"o":"m 881 703 q 829 678 846 703 q 813 613 813 653 l 813 -75 l 703 -28 l 703 471 q 615 499 656 499 q 515 451 557 499 q 443 293 474 404 l 335 313 q 386 461 343 390 q 257 499 318 499 q 186 462 215 499 q 157 369 157 425 q 326 57 157 172 l 297 3 q 103 170 181 65 q 26 383 26 275 q 74 529 26 476 q 214 582 121 582 q 319 562 271 582 q 417 504 368 542 q 491 561 450 540 q 575 582 532 582 q 703 536 644 582 l 703 592 q 713 703 703 640 l -3 703 l -42 792 l 957 792 l 996 703 l 881 703 z "},"ळ":{"ha":981,"x_min":-42,"x_max":1022,"o":"m 785 538 q 876 444 842 506 q 911 304 911 383 q 880 187 911 233 q 801 119 849 140 q 701 99 753 99 q 588 127 643 99 q 472 214 533 156 q 374 126 424 151 q 261 101 325 101 q 134 138 189 101 q 49 235 79 175 q 19 365 19 296 q 78 515 19 460 q 225 569 138 569 q 353 534 293 569 q 479 433 414 499 q 574 531 524 499 q 675 565 625 564 l 675 592 q 685 703 675 640 l -3 703 l -42 792 l 983 792 l 1022 703 l 853 703 q 801 678 818 703 q 785 613 785 653 l 785 538 m 225 194 q 340 232 288 194 q 443 371 392 269 l 450 383 q 339 449 383 433 q 240 465 294 465 q 131 424 171 465 q 92 324 92 382 q 132 227 92 260 q 225 194 172 194 m 685 204 q 797 241 757 204 q 838 344 838 278 q 808 431 838 400 q 732 463 779 463 q 623 422 676 463 q 526 300 569 381 l 506 265 q 598 217 554 231 q 685 204 642 204 z "},"ऴ":{"ha":981,"x_min":-42,"x_max":1022,"o":"m 0 0 m 785 538 q 876 444 842 506 q 911 304 911 383 q 880 187 911 233 q 801 119 849 140 q 701 99 753 99 q 588 127 643 99 q 472 214 533 156 q 374 126 424 151 q 261 101 325 101 q 134 138 189 101 q 49 235 79 175 q 19 365 19 296 q 78 515 19 460 q 225 569 138 569 q 353 534 293 569 q 479 433 414 499 q 574 531 524 499 q 675 565 625 564 l 675 592 q 685 703 675 640 l -3 703 l -42 792 l 983 792 l 1022 703 l 853 703 q 801 678 818 703 q 785 613 785 653 l 785 538 m 225 194 q 340 232 288 194 q 443 371 392 269 l 450 383 q 339 449 383 433 q 240 465 294 465 q 131 424 171 465 q 92 324 92 382 q 132 227 92 260 q 225 194 172 194 m 685 204 q 797 241 757 204 q 838 344 838 278 q 808 431 838 400 q 732 463 779 463 q 623 422 676 463 q 526 300 569 381 l 506 265 q 598 217 554 231 q 685 204 642 204 m 586 -29 q 613 -87 613 -56 q 590 -140 613 -118 q 539 -161 569 -161 q 479 -136 504 -161 q 454 -76 454 -111 q 475 -25 454 -46 q 528 -4 496 -4 q 586 -29 561 -4 z "},"व":{"ha":771,"x_min":-42,"x_max":813,"o":"m 699 703 q 647 678 664 703 q 631 613 631 653 l 631 -75 l 521 -28 l 521 165 q 418 118 465 132 q 322 104 371 104 q 187 138 246 104 q 94 231 128 172 q 61 364 61 290 q 122 519 61 465 q 285 574 182 574 q 401 556 349 574 q 521 489 453 538 l 521 592 q 531 703 521 640 l -3 703 l -42 792 l 774 792 l 813 703 l 699 703 m 275 197 q 405 216 340 197 q 521 271 469 235 l 521 399 q 289 469 394 469 q 172 430 211 469 q 132 325 132 390 q 173 229 132 261 q 275 197 214 197 z "},"श":{"ha":942,"x_min":69,"x_max":983,"o":"m 238 214 q 317 120 272 158 q 403 58 361 82 q 521 -3 444 35 l 425 -97 q 274 42 339 -33 q 151 232 210 118 q 92 282 115 250 q 69 350 69 314 q 90 407 69 385 q 140 429 110 429 q 208 402 186 429 q 231 340 231 375 q 218 299 231 311 q 249 289 232 289 q 317 324 282 289 q 374 417 351 360 q 206 507 276 444 q 136 651 136 569 q 178 753 136 715 q 297 792 219 792 q 452 731 390 792 q 514 568 514 669 q 470 393 514 472 q 362 267 426 314 q 238 214 297 219 m 876 703 q 825 678 842 703 q 808 613 808 653 l 808 -75 l 699 -28 l 699 592 q 708 703 699 640 l 567 703 l 528 792 l 944 792 l 983 703 l 876 703 m 250 643 q 283 542 250 585 q 390 469 317 499 q 403 574 403 519 q 376 699 403 656 q 315 742 350 742 q 269 716 288 742 q 250 643 250 690 z "},"ष":{"ha":724,"x_min":-42,"x_max":765,"o":"m 686 703 q 635 678 651 703 q 618 613 618 653 l 618 -75 l 508 -28 l 508 249 q 354 204 439 204 q 172 286 236 204 q 104 514 108 368 l 104 592 q 114 703 104 640 l -3 703 l -42 792 l 726 792 l 765 703 l 686 703 m 508 592 q 518 703 508 639 l 282 703 q 263 700 274 703 l 503 392 l 508 403 l 508 592 m 304 276 q 471 353 399 276 l 224 665 q 214 613 214 644 l 214 382 q 239 305 214 333 q 304 276 264 276 z "},"स":{"ha":871,"x_min":-42,"x_max":913,"o":"m 808 703 q 757 678 774 703 q 740 613 740 653 l 740 -75 l 631 -28 l 631 254 q 451 225 535 225 q 242 286 325 225 q 146 249 200 260 q 288 128 213 171 q 488 61 364 85 l 444 -68 q 135 121 254 10 q 17 353 17 232 q 41 420 17 394 q 103 446 65 446 q 193 389 165 446 q 265 525 265 429 q 228 703 265 593 l -3 703 l -42 792 l 874 792 l 913 703 l 808 703 m 631 592 q 640 703 631 639 l 313 703 q 353 510 353 594 q 303 342 353 411 q 407 324 349 324 q 631 379 513 324 l 631 592 z "},"ह":{"ha":707,"x_min":-42,"x_max":749,"o":"m 301 503 q 233 483 257 501 q 210 432 210 464 q 235 361 210 399 q 375 392 297 392 q 506 366 444 392 q 606 290 568 340 q 644 171 644 240 q 557 26 644 82 l 496 94 q 549 133 531 110 q 568 183 568 157 q 528 251 568 222 q 414 279 488 279 q 281 241 333 279 q 228 125 228 203 q 301 -29 228 39 q 547 -131 374 -97 l 532 -183 q 300 -111 396 -165 q 156 16 204 -57 q 108 164 108 89 q 171 318 108 258 q 106 392 128 353 q 85 468 85 431 q 131 557 85 522 q 261 592 176 592 l 471 592 q 481 703 471 663 l -3 703 l -42 792 l 710 792 l 749 703 l 644 703 q 593 678 610 703 q 576 613 576 653 l 576 510 l 301 503 z "},"क़":{"ha":1011,"x_min":-42,"x_max":1053,"o":"m 0 0 m 793 590 q 922 533 871 590 q 974 367 974 476 q 934 201 974 278 q 824 78 894 124 l 757 176 q 863 284 826 218 q 900 403 900 350 q 878 481 900 454 q 817 507 856 507 q 710 475 768 507 q 593 376 651 443 l 593 -75 l 483 -28 l 483 249 q 383 182 436 204 q 276 160 329 160 q 169 192 218 160 q 90 281 119 225 q 61 404 61 338 q 122 563 61 510 q 283 615 183 615 q 483 558 390 615 l 483 592 q 493 703 483 639 l -3 703 l -42 792 l 1014 792 l 1053 703 l 661 703 q 610 678 626 703 q 593 613 593 653 l 593 492 q 689 565 636 539 q 793 590 742 590 m 264 251 q 374 281 315 251 q 483 361 433 310 l 483 461 q 289 511 393 511 q 178 475 222 511 q 133 369 133 439 q 167 278 133 306 q 264 251 201 251 m 157 53 q 183 -6 183 26 q 161 -58 183 -36 q 110 -79 140 -79 q 50 -54 75 -79 q 25 6 25 -29 q 46 57 25 36 q 99 78 67 78 q 157 53 132 78 z "},"ख़":{"ha":1011,"x_min":-42,"x_max":1053,"o":"m 0 0 m 939 703 q 888 678 904 703 q 871 613 871 653 l 871 -75 l 761 -28 l 761 97 q 457 21 610 21 q 226 74 319 21 q 87 205 132 126 q 42 360 42 283 q 65 429 42 406 q 121 453 88 453 q 165 442 143 453 q 201 410 186 431 q 217 492 217 444 q 168 703 217 581 l -3 703 l -42 792 l 1014 792 l 1053 703 l 939 703 m 761 592 q 771 703 761 640 l 250 703 q 281 590 269 651 q 293 472 293 529 q 259 317 293 379 q 154 251 225 256 q 255 137 189 169 q 424 104 321 104 q 761 200 589 104 l 761 263 q 632 224 686 224 q 506 258 564 224 q 414 347 449 292 q 379 461 379 401 q 431 589 379 542 q 567 636 482 636 q 665 617 618 636 q 761 569 713 599 l 761 592 m 761 500 q 614 543 686 543 q 512 507 551 543 q 472 400 472 471 q 495 335 472 364 q 565 307 518 307 q 668 329 614 307 q 761 388 722 351 l 761 500 m 99 53 q 125 -6 125 26 q 103 -58 125 -36 q 51 -79 82 -79 q -8 -54 17 -79 q -33 6 -33 -29 q -12 57 -33 36 q 40 78 8 78 q 99 53 74 78 z "},"ग़":{"ha":728,"x_min":-42,"x_max":769,"o":"m 0 0 m 661 703 q 610 678 626 703 q 593 613 593 653 l 593 -75 l 483 -28 l 483 592 q 493 703 483 640 l 253 703 q 299 566 282 644 q 315 407 315 488 q 280 197 315 281 q 171 114 244 114 q 85 151 119 114 q 51 242 51 189 q 133 299 51 299 q 164 297 153 299 q 219 449 219 338 q 199 585 219 515 q 144 703 178 656 l -3 703 l -42 792 l 731 792 l 769 703 l 661 703 m 226 53 q 253 -6 253 26 q 231 -58 253 -36 q 179 -79 210 -79 q 119 -54 144 -79 q 94 6 94 -29 q 115 57 94 36 q 168 78 136 78 q 226 53 201 78 z "},"ज़":{"ha":926,"x_min":-42,"x_max":968,"o":"m 864 703 q 813 678 829 703 q 796 613 796 653 l 796 -75 l 686 -28 l 686 360 l 454 372 q 566 253 528 324 q 604 121 604 182 q 569 26 604 63 q 601 6 588 19 q 628 -53 628 -21 q 606 -106 628 -83 q 554 -126 585 -126 q 494 -101 519 -126 q 469 -42 469 -76 q 471 -26 469 -32 q 393 -35 436 -35 q 258 2 329 -35 q 123 107 188 39 q 14 268 58 175 l 60 299 q 210 131 128 189 q 368 74 292 74 q 436 94 418 74 q 454 154 454 114 q 397 283 454 214 q 249 393 340 351 l 239 453 l 686 453 l 686 592 q 696 703 686 640 l -3 703 l -42 792 l 929 792 l 968 703 l 864 703 z "},"ड़":{"ha":707,"x_min":-42,"x_max":749,"o":"m 0 0 m 315 529 q 235 497 264 528 q 207 428 207 465 q 224 380 207 399 q 272 361 242 361 q 347 379 299 361 q 408 397 386 392 q 456 401 429 401 q 540 374 500 401 q 606 299 581 347 q 631 192 631 250 q 581 40 631 100 q 417 -21 531 -21 q 198 58 288 -21 q 44 268 108 136 l 89 299 q 226 131 156 178 q 379 85 296 85 q 519 124 471 85 q 567 217 567 164 q 547 281 567 257 q 494 306 528 306 q 403 288 463 306 q 303 268 336 268 q 225 298 265 268 q 158 378 185 328 q 131 490 131 429 q 172 583 131 549 q 275 618 213 618 l 468 618 q 478 703 471 674 l -3 703 l -42 792 l 710 792 l 749 703 l 646 703 q 594 678 611 703 q 578 613 578 653 l 578 538 l 315 529 m 519 -104 q 546 -162 546 -131 q 524 -215 546 -193 q 472 -236 503 -236 q 413 -211 438 -236 q 388 -151 388 -186 q 408 -100 388 -121 q 461 -79 429 -79 q 519 -104 494 -79 z "},"ढ़":{"ha":735,"x_min":-42,"x_max":776,"o":"m 0 0 m 451 386 q 558 354 511 386 q 629 271 604 322 q 654 164 654 219 q 589 36 654 82 q 424 -10 524 -10 q 239 38 317 -10 q 121 158 161 85 q 81 303 81 231 q 116 431 81 375 q 213 518 151 488 q 349 549 274 549 l 467 549 l 467 593 q 476 703 467 642 l -3 703 l -42 792 l 738 792 l 776 703 l 629 703 q 576 614 576 693 l 576 468 l 403 460 q 234 398 290 454 q 178 257 178 342 q 239 116 178 163 q 396 68 300 69 q 317 149 344 103 q 289 240 289 194 q 331 344 289 303 q 451 386 374 386 m 471 76 q 548 125 521 90 q 575 207 575 160 q 549 271 575 244 q 481 297 524 297 q 417 269 442 297 q 393 204 393 242 q 413 136 393 165 q 471 76 432 107 m 497 -82 q 524 -140 524 -108 q 501 -193 524 -171 q 450 -214 481 -214 q 390 -189 415 -214 q 365 -129 365 -164 q 386 -78 365 -99 q 439 -57 407 -57 q 497 -82 472 -57 z "},"फ़":{"ha":1069,"x_min":-42,"x_max":1111,"o":"m 0 0 m 851 569 q 986 509 939 569 q 1033 358 1033 449 q 984 174 1033 264 q 847 36 935 83 l 781 136 q 914 265 865 193 q 963 394 963 338 q 940 456 963 433 q 874 478 917 478 q 749 439 818 478 q 617 332 681 400 l 617 -75 l 507 -28 l 507 247 q 354 196 431 196 q 169 288 233 196 q 104 535 104 379 l 104 592 q 114 703 104 640 l -3 703 l -42 792 l 1072 792 l 1111 703 l 685 703 q 633 678 650 703 q 617 613 617 653 l 617 460 q 738 545 681 521 q 851 569 794 569 m 318 276 q 507 365 415 276 l 507 592 q 517 703 507 640 l 282 703 q 231 678 247 703 q 214 613 214 653 l 214 382 q 243 301 214 326 q 318 276 272 276 m 204 197 q 231 139 231 171 q 208 86 231 108 q 157 65 188 65 q 97 90 122 65 q 72 150 72 115 q 93 201 72 181 q 146 222 114 222 q 204 197 179 222 z "},"य़":{"ha":732,"x_min":-42,"x_max":774,"o":"m 0 0 m 697 703 q 646 678 663 703 q 629 613 629 653 l 629 -75 l 519 -28 l 519 178 q 376 153 449 153 q 191 204 276 153 q 47 360 106 256 l 61 417 q 228 578 228 467 q 188 703 228 631 l -3 703 l -42 792 l 735 792 l 774 703 l 697 703 m 519 592 q 529 703 519 640 l 263 703 q 313 551 313 621 q 269 433 313 483 q 150 353 226 383 q 219 290 174 311 q 324 268 265 268 q 425 282 374 268 q 519 322 476 296 l 519 592 m 117 100 q 143 42 143 74 q 121 -11 143 11 q 69 -32 100 -32 q 10 -7 35 -32 q -15 53 -15 18 q 6 104 -15 83 q 58 125 26 125 q 117 100 92 125 z "},"ॹ":{"ha":926,"x_min":-42,"x_max":968,"o":"m 864 703 q 813 678 829 703 q 796 613 796 653 l 796 -75 l 686 -28 l 686 360 l 454 372 q 566 253 528 324 q 604 121 604 182 q 567 22 604 60 q 597 3 585 15 q 619 -49 619 -19 q 600 -97 619 -78 q 554 -117 581 -117 q 500 -93 524 -117 q 478 -40 478 -71 q 479 -25 478 -31 q 393 -35 444 -35 l 378 -35 q 379 -50 379 -40 q 360 -97 379 -78 q 314 -117 340 -117 q 260 -93 283 -117 q 238 -40 238 -71 q 254 4 238 -15 q 120 109 183 40 q 14 268 57 178 l 60 299 q 210 131 128 189 q 368 74 292 74 q 436 94 418 74 q 454 154 454 114 q 397 283 454 214 q 249 393 340 351 l 239 453 l 686 453 l 686 592 q 696 703 686 640 l -3 703 l -42 792 l 929 792 l 968 703 l 864 703 m 378 -122 q 425 -103 397 -103 q 478 -126 454 -103 q 500 -178 500 -149 q 481 -226 500 -207 q 435 -246 461 -246 q 381 -222 404 -246 q 358 -169 358 -200 q 378 -122 358 -142 z "},"ॺ":{"ha":732,"x_min":-42,"x_max":774,"o":"m 697 703 q 646 678 663 703 q 629 613 629 653 l 629 -75 l 519 -28 l 519 178 q 376 153 449 153 q 191 204 276 153 q 47 360 106 256 l 61 417 q 228 578 228 467 q 188 703 228 631 l -3 703 l -42 792 l 735 792 l 774 703 l 697 703 m 519 592 q 529 703 519 640 l 286 703 l 519 383 l 519 592 m 150 353 q 219 290 174 311 q 324 268 265 268 q 499 311 415 268 l 313 560 q 273 438 317 490 q 150 353 229 385 z "},"ॻ":{"ha":728,"x_min":-42,"x_max":769,"o":"m 661 703 q 610 678 626 703 q 593 613 593 653 l 593 -89 l 57 -89 l 18 0 l 483 -11 l 483 592 q 493 703 483 640 l 253 703 q 299 566 282 644 q 315 407 315 488 q 280 197 315 281 q 171 114 244 114 q 85 151 119 114 q 51 242 51 189 q 133 299 51 299 q 164 297 153 299 q 219 449 219 338 q 199 585 219 515 q 144 703 178 656 l -3 703 l -42 792 l 731 792 l 769 703 l 661 703 z "},"ॼ":{"ha":926,"x_min":-42,"x_max":968,"o":"m 864 703 q 813 678 829 703 q 796 613 796 653 l 796 -89 l 85 -89 l 46 0 l 269 -4 q 128 102 194 32 q 14 268 61 172 l 60 299 q 210 131 128 189 q 368 74 292 74 q 436 94 418 74 q 454 154 454 114 q 397 283 454 214 q 249 393 340 351 l 239 453 l 686 453 l 686 592 q 696 703 686 640 l -3 703 l -42 792 l 929 792 l 968 703 l 864 703 m 686 360 l 454 372 q 566 253 528 324 q 604 121 604 182 q 524 -8 604 32 l 686 -12 l 686 360 z "},"ॾ":{"ha":707,"x_min":-42,"x_max":749,"o":"m 467 614 q 476 703 468 639 l -3 703 l -42 792 l 710 792 l 749 703 l 644 703 q 593 678 610 703 q 576 613 576 653 l 576 536 l 572 538 l 329 531 q 240 509 267 529 q 213 450 213 489 q 228 401 213 418 q 271 383 244 383 q 360 401 297 383 q 483 424 440 424 q 590 366 549 424 q 631 219 631 308 q 583 89 631 143 q 436 35 536 35 q 215 108 322 35 q 44 282 107 182 l 89 313 q 236 183 158 226 q 383 140 314 140 q 485 160 444 140 q 544 208 525 179 q 563 267 563 238 q 526 324 563 317 q 508 325 521 325 q 439 315 485 325 q 338 303 369 303 q 256 318 292 303 q 167 383 203 339 q 131 490 131 428 q 174 588 131 556 q 289 618 217 621 l 467 614 m 710 -14 l 710 -89 l 54 -89 l 15 0 l 710 -14 z "},"ॿ":{"ha":771,"x_min":-42,"x_max":813,"o":"m 699 703 q 647 678 664 703 q 631 613 631 653 l 631 -89 l 82 -89 l 43 0 l 521 -11 l 521 165 q 418 118 465 132 q 322 104 371 104 q 187 138 246 104 q 94 231 128 172 q 61 364 61 290 q 122 519 61 465 q 285 574 182 574 q 401 556 349 574 q 521 489 453 538 l 521 592 q 531 703 521 640 l -3 703 l -42 792 l 774 792 l 813 703 l 699 703 m 521 271 l 521 399 q 396 452 456 435 q 289 469 336 469 l 278 469 l 482 247 l 521 271 m 275 197 q 425 224 354 197 l 208 454 q 151 403 171 438 q 132 325 132 369 q 173 229 132 261 q 275 197 214 197 z "},"ॲ":{"ha":1007,"x_min":14,"x_max":1049,"o":"m 14 0 m 935 703 q 883 678 900 703 q 867 613 867 653 l 867 -75 l 757 -28 l 757 343 q 653 321 704 321 q 518 350 593 321 q 559 278 544 317 q 574 203 574 240 q 549 108 574 151 q 475 38 524 64 q 360 11 426 11 q 14 293 153 11 l 61 317 q 178 162 111 222 q 322 101 244 101 q 420 138 383 101 q 457 235 457 174 q 431 333 457 286 q 358 408 404 381 q 293 393 324 397 l 221 383 l 197 471 l 292 488 q 421 531 376 503 q 465 626 465 560 q 360 722 465 722 q 163 650 265 722 l 113 746 q 218 799 161 781 q 325 818 275 818 q 472 762 413 818 q 531 611 531 706 q 501 508 531 553 q 421 435 472 464 q 608 406 532 406 q 757 486 738 406 l 757 592 q 767 703 757 640 l 615 703 l 576 792 l 1010 792 l 1049 703 l 935 703 m 650 1096 q 806 990 722 990 q 957 1092 886 993 l 1032 1019 q 949 924 997 956 q 846 892 900 892 q 714 936 779 892 q 603 1057 649 981 l 650 1096 z "},"अ":{"ha":1007,"x_min":14,"x_max":1049,"o":"m 935 703 q 883 678 900 703 q 867 613 867 653 l 867 -75 l 757 -28 l 757 343 q 653 321 704 321 q 518 350 593 321 q 559 278 544 317 q 574 203 574 240 q 549 108 574 151 q 475 38 524 64 q 360 11 426 11 q 14 293 153 11 l 61 317 q 178 162 111 222 q 322 101 244 101 q 420 138 383 101 q 457 235 457 174 q 431 333 457 286 q 358 408 404 381 q 293 393 324 397 l 221 383 l 197 471 l 292 488 q 421 531 376 503 q 465 626 465 560 q 360 722 465 722 q 163 650 265 722 l 113 746 q 218 799 161 781 q 325 818 275 818 q 472 762 413 818 q 531 611 531 706 q 501 508 531 553 q 421 435 472 464 q 608 406 532 406 q 757 486 738 406 l 757 592 q 767 703 757 640 l 615 703 l 576 792 l 1010 792 l 1049 703 l 935 703 z "},"आ":{"ha":1301,"x_min":14,"x_max":1343,"o":"m 1229 703 q 1178 678 1194 703 q 1161 613 1161 653 l 1161 -75 l 1051 -28 l 1051 592 q 1061 703 1051 639 l 935 703 q 883 678 900 703 q 867 613 867 653 l 867 -75 l 757 -28 l 757 343 q 653 321 704 321 q 518 350 593 321 q 559 278 544 317 q 574 203 574 240 q 549 108 574 151 q 475 38 524 64 q 360 11 426 11 q 14 293 153 11 l 61 317 q 178 162 111 222 q 322 101 244 101 q 420 138 383 101 q 457 235 457 174 q 431 333 457 286 q 358 408 404 381 q 293 393 324 397 l 221 383 l 197 471 l 292 488 q 421 531 376 503 q 465 626 465 560 q 360 722 465 722 q 163 650 265 722 l 113 746 q 218 799 161 781 q 325 818 275 818 q 472 762 413 818 q 531 611 531 706 q 501 508 531 553 q 421 435 472 464 q 608 406 532 406 q 757 486 738 406 l 757 592 q 767 703 757 640 l 615 703 l 576 792 l 1304 792 l 1343 703 l 1229 703 z "},"इ":{"ha":693,"x_min":-42,"x_max":735,"o":"m 325 529 q 237 504 267 528 q 207 439 207 481 q 224 383 207 404 q 268 361 240 361 q 343 379 294 361 q 403 397 382 392 q 451 401 425 401 q 578 342 528 401 q 629 190 629 282 q 594 49 629 108 q 501 -41 560 -10 q 374 -72 443 -72 q 190 -14 276 -72 l 188 -15 q 254 -106 218 -67 q 347 -192 290 -144 l 260 -267 q 129 -58 174 -140 q 85 89 85 25 q 106 153 85 129 q 161 176 128 176 q 224 153 200 176 q 247 86 247 129 q 244 60 247 76 q 372 28 306 28 q 506 76 453 28 q 560 217 560 125 q 542 281 560 257 q 490 306 524 306 q 399 288 458 306 q 299 268 332 268 q 200 310 250 268 q 133 421 150 353 q 126 479 126 451 q 344 621 126 621 q 463 613 396 621 q 472 703 463 663 l -3 703 l -42 792 l 696 792 l 735 703 l 640 703 q 589 678 606 703 q 572 613 572 653 l 572 538 l 325 529 z "},"ई":{"ha":693,"x_min":-42,"x_max":735,"o":"m 325 529 q 237 504 267 528 q 207 439 207 481 q 224 383 207 404 q 268 361 240 361 q 343 379 294 361 q 403 397 382 392 q 451 401 425 401 q 578 342 528 401 q 629 190 629 282 q 594 49 629 108 q 501 -41 560 -10 q 374 -72 443 -72 q 190 -14 276 -72 l 188 -15 q 254 -106 218 -67 q 347 -192 290 -144 l 260 -267 q 129 -58 174 -140 q 85 89 85 25 q 106 153 85 129 q 161 176 128 176 q 224 153 200 176 q 247 86 247 129 q 244 60 247 76 q 372 28 306 28 q 506 76 453 28 q 560 217 560 125 q 542 281 560 257 q 490 306 524 306 q 399 288 458 306 q 299 268 332 268 q 200 310 250 268 q 133 421 150 353 q 126 479 126 451 q 344 621 126 621 q 463 613 396 621 q 472 703 463 663 l -3 703 l -42 792 l 471 792 q 346 1003 346 882 q 399 1128 346 1082 q 535 1174 453 1174 q 690 1132 611 1174 l 699 1044 q 571 1079 631 1079 q 482 1051 515 1079 q 449 972 449 1022 q 474 885 449 928 q 553 792 499 843 l 696 792 l 735 703 l 640 703 q 589 678 606 703 q 572 613 572 653 l 572 538 l 325 529 z "},"उ":{"ha":610,"x_min":-42,"x_max":651,"o":"m 404 436 q 523 335 479 400 q 567 203 567 269 q 542 108 567 151 q 468 38 517 64 q 353 11 419 11 q 7 293 146 11 l 54 317 q 171 162 104 222 q 315 101 238 101 q 413 138 376 101 q 450 235 450 174 q 423 335 450 286 q 349 410 396 383 q 281 393 317 399 l 201 381 l 176 468 q 364 517 304 478 q 424 614 424 556 q 396 703 424 656 l -3 703 l -42 792 l 613 792 l 651 703 l 461 703 q 496 592 496 650 q 472 506 496 546 q 404 436 449 465 z "},"ऊ":{"ha":785,"x_min":-42,"x_max":826,"o":"m 751 446 q 800 332 800 404 q 778 238 800 288 q 708 140 756 189 l 636 214 q 705 299 682 260 q 728 365 728 338 q 714 400 728 386 q 678 411 699 411 q 609 387 647 411 q 536 313 571 363 q 567 203 567 258 q 542 108 567 151 q 468 38 517 64 q 353 11 419 11 q 7 293 146 11 l 54 317 q 171 162 104 222 q 315 101 238 101 q 413 138 376 101 q 450 235 450 174 q 423 335 450 286 q 349 410 396 383 q 281 393 317 399 l 201 381 l 176 468 q 364 517 304 478 q 424 614 424 556 q 396 703 424 656 l -3 703 l -42 792 l 788 792 l 826 703 l 461 703 q 496 592 496 650 q 472 506 496 546 q 404 436 449 465 q 465 397 439 419 q 649 478 554 478 q 751 446 703 478 z "},"ऋ":{"ha":1051,"x_min":-42,"x_max":1093,"o":"m 975 504 q 917 390 975 449 q 1011 158 1011 250 q 842 -6 1011 31 l 804 92 q 896 139 865 107 q 926 217 926 171 q 875 356 926 278 q 756 297 824 319 q 615 272 688 275 l 615 -75 l 506 -28 l 506 242 l 194 -8 l 114 76 l 506 339 l 506 343 q 190 483 313 483 q 43 451 111 483 l -3 550 q 156 597 75 597 q 308 553 225 597 q 506 418 392 508 l 506 592 q 515 703 506 640 l -3 703 l -42 792 l 1054 792 l 1093 703 l 683 703 q 632 678 649 703 q 615 613 615 653 l 615 346 q 839 410 743 350 q 801 474 813 449 q 790 519 790 499 q 814 578 790 556 q 876 600 838 600 q 947 573 919 600 q 975 504 975 546 z "},"ॠ":{"ha":1133,"x_min":-42,"x_max":1175,"o":"m 1175 82 q 1078 11 1135 35 q 963 -12 1022 -12 q 876 3 915 -12 q 815 47 838 18 q 781 146 781 93 q 810 231 781 192 q 710 289 742 240 q 693 343 693 317 q 699 375 693 360 q 601 353 649 354 l 601 -75 l 492 -28 l 492 258 l 153 -22 l 100 76 l 492 354 l 492 356 l 447 385 q 317 461 364 439 q 218 483 269 483 q 71 451 139 483 l 25 550 q 183 597 103 597 q 320 558 250 597 q 492 435 390 518 l 492 592 q 501 703 492 640 l -3 703 l -42 792 l 1124 792 l 1163 703 l 669 703 q 618 678 635 703 q 601 613 601 653 l 601 431 q 757 483 692 431 q 791 563 764 533 q 858 592 818 592 q 918 569 894 592 q 942 506 942 546 q 918 450 942 472 q 854 428 894 428 q 822 432 839 428 q 783 399 796 418 q 769 360 769 379 q 779 329 769 344 q 821 313 789 313 q 894 330 853 313 q 976 381 936 347 l 1042 282 q 909 210 951 250 q 867 131 867 169 q 881 89 867 110 q 939 65 900 65 q 1028 93 981 65 q 1113 178 1075 121 l 1175 82 z "},"ऌ":{"ha":951,"x_min":-42,"x_max":986,"o":"m 724 -21 q 763 -35 740 -35 q 834 -10 794 -35 q 918 67 874 15 l 981 -3 q 893 -72 940 -49 q 799 -94 846 -94 q 669 -44 724 -94 q 617 71 617 4 q 675 239 617 140 q 729 401 729 329 q 704 476 729 450 q 640 503 679 503 q 531 449 585 503 q 454 293 478 394 l 346 313 q 397 463 356 396 q 272 499 333 499 q 201 462 231 499 q 172 369 172 425 q 342 57 172 172 l 313 3 q 119 170 196 65 q 42 383 42 275 q 89 529 42 476 q 229 582 136 582 q 333 562 285 582 q 429 506 381 542 q 583 583 494 578 l 583 592 q 593 703 583 663 l -3 703 l -42 792 l 947 792 l 986 703 l 761 703 q 710 678 726 703 q 693 613 693 653 l 693 568 q 798 489 763 544 q 833 361 833 433 q 778 182 833 265 q 706 21 706 75 q 724 -21 706 -7 z "},"ॡ":{"ha":940,"x_min":-42,"x_max":1065,"o":"m 1065 -199 q 890 -279 979 -279 q 820 -264 853 -279 q 767 -224 788 -249 q 732 -135 732 -185 q 743 -86 732 -111 q 669 -44 700 -74 q 617 71 617 4 q 675 239 617 140 q 729 401 729 329 q 704 476 729 450 q 640 503 679 503 q 531 449 585 503 q 454 293 478 394 l 346 313 q 397 463 356 396 q 272 499 333 499 q 186 465 213 499 q 160 367 160 432 q 223 193 160 275 q 381 43 286 111 l 351 -10 q 207 91 279 26 q 88 233 135 156 q 42 383 42 311 q 89 529 42 476 q 229 582 136 582 q 333 562 285 582 q 429 506 381 542 q 583 583 494 578 l 583 592 q 593 703 583 663 l -3 703 l -42 792 l 947 792 l 986 703 l 761 703 q 710 678 726 703 q 693 613 693 653 l 693 568 q 798 489 763 544 q 833 361 833 433 q 778 182 833 265 q 706 21 706 75 q 724 -21 706 -7 q 763 -35 740 -35 q 834 -10 794 -35 q 918 67 874 15 l 981 -3 q 822 -93 911 -82 q 797 -151 797 -118 q 811 -192 797 -174 q 854 -208 824 -208 q 924 -186 886 -208 q 994 -119 963 -164 l 1065 -199 z "},"ऍ":{"ha":732,"x_min":-42,"x_max":774,"o":"m 0 0 m 697 703 q 646 678 663 703 q 629 613 629 653 l 629 456 q 593 318 629 371 q 483 221 557 265 l 440 276 q 503 338 486 304 q 519 438 519 371 l 519 592 q 529 703 519 663 l 283 703 q 232 678 249 703 q 215 613 215 653 l 215 361 q 234 290 215 315 q 301 232 253 264 l 543 72 q 601 -26 601 33 q 507 -212 601 -104 l 410 -142 q 489 -8 489 -57 q 454 47 489 24 l 206 214 q 129 292 153 249 q 106 404 106 336 l 106 592 q 115 703 106 663 l -3 703 l -42 792 l 735 792 l 774 703 l 697 703 m 392 1096 q 547 990 464 990 q 699 1092 628 993 l 774 1019 q 690 924 739 956 q 588 892 642 892 q 456 936 521 892 q 344 1057 390 981 l 392 1096 z "},"ऎ":{"ha":732,"x_min":-42,"x_max":774,"o":"m 697 703 q 646 678 663 703 q 629 613 629 653 l 629 456 q 593 318 629 371 q 483 221 557 265 l 440 276 q 503 338 486 304 q 519 438 519 371 l 519 592 q 529 703 519 663 l 283 703 q 232 678 249 703 q 215 613 215 653 l 215 361 q 234 290 215 315 q 301 232 253 264 l 543 72 q 601 -26 601 33 q 507 -212 601 -104 l 410 -142 q 489 -8 489 -57 q 454 47 489 24 l 206 214 q 129 292 153 249 q 106 404 106 336 l 106 592 q 115 703 106 663 l -3 703 l -42 792 l 549 792 q 486 926 532 889 q 351 964 440 964 q 308 963 324 964 l 285 961 q 162 1004 210 961 q 76 1149 114 1047 l 113 1167 q 180 1079 146 1103 q 261 1056 214 1056 q 303 1058 272 1056 q 379 1063 340 1063 q 542 1006 481 1063 q 603 792 603 950 l 735 792 l 774 703 l 697 703 z "},"ए":{"ha":732,"x_min":-42,"x_max":774,"o":"m 697 703 q 646 678 663 703 q 629 613 629 653 l 629 456 q 593 318 629 371 q 483 221 557 265 l 440 276 q 503 338 486 304 q 519 438 519 371 l 519 592 q 529 703 519 663 l 283 703 q 232 678 249 703 q 215 613 215 653 l 215 361 q 234 290 215 315 q 301 232 253 264 l 543 72 q 601 -26 601 33 q 507 -212 601 -104 l 410 -142 q 489 -8 489 -57 q 454 47 489 24 l 206 214 q 129 292 153 249 q 106 404 106 336 l 106 592 q 115 703 106 663 l -3 703 l -42 792 l 735 792 l 774 703 l 697 703 z "},"ऐ":{"ha":732,"x_min":-42,"x_max":774,"o":"m 0 0 m 697 703 q 646 678 663 703 q 629 613 629 653 l 629 456 q 593 318 629 371 q 483 221 557 265 l 440 276 q 503 338 486 304 q 519 438 519 371 l 519 592 q 529 703 519 663 l 283 703 q 232 678 249 703 q 215 613 215 653 l 215 361 q 234 290 215 315 q 301 232 253 264 l 543 72 q 601 -26 601 33 q 507 -212 601 -104 l 410 -142 q 489 -8 489 -57 q 454 47 489 24 l 206 214 q 129 292 153 249 q 106 404 106 336 l 106 592 q 115 703 106 663 l -3 703 l -42 792 l 735 792 l 774 703 l 697 703 m 538 792 q 372 1001 463 935 q 189 1067 282 1067 q 108 1054 146 1067 q 90 1051 97 1051 q 47 1069 65 1051 q 28 1113 28 1086 q 57 1165 28 1146 q 135 1183 86 1183 q 301 1137 208 1183 q 475 1001 393 1090 q 601 792 557 913 l 538 792 z "},"ऑ":{"ha":1301,"x_min":14,"x_max":1343,"o":"m 14 0 m 1229 703 q 1178 678 1194 703 q 1161 613 1161 653 l 1161 -75 l 1051 -28 l 1051 592 q 1061 703 1051 639 l 935 703 q 883 678 900 703 q 867 613 867 653 l 867 -75 l 757 -28 l 757 343 q 653 321 704 321 q 518 350 593 321 q 559 278 544 317 q 574 203 574 240 q 549 108 574 151 q 475 38 524 64 q 360 11 426 11 q 14 293 153 11 l 61 317 q 178 162 111 222 q 322 101 244 101 q 420 138 383 101 q 457 235 457 174 q 431 333 457 286 q 358 408 404 381 q 293 393 324 397 l 221 383 l 197 471 l 292 488 q 421 531 376 503 q 465 626 465 560 q 360 722 465 722 q 163 650 265 722 l 113 746 q 218 799 161 781 q 325 818 275 818 q 472 762 413 818 q 531 611 531 706 q 501 508 531 553 q 421 435 472 464 q 608 406 532 406 q 757 486 738 406 l 757 592 q 767 703 757 640 l 615 703 l 576 792 l 1304 792 l 1343 703 l 1229 703 m 925 1096 q 1081 990 997 990 q 1232 1092 1161 993 l 1307 1019 q 1224 924 1272 956 q 1121 892 1175 892 q 989 936 1054 892 q 878 1057 924 981 l 925 1096 z "},"ऒ":{"ha":1301,"x_min":14,"x_max":1343,"o":"m 14 0 m 1229 703 q 1178 678 1194 703 q 1161 613 1161 653 l 1161 -75 l 1051 -28 l 1051 592 q 1061 703 1051 639 l 935 703 q 883 678 900 703 q 867 613 867 653 l 867 -75 l 757 -28 l 757 343 q 653 321 704 321 q 518 350 593 321 q 559 278 544 317 q 574 203 574 240 q 549 108 574 151 q 475 38 524 64 q 360 11 426 11 q 14 293 153 11 l 61 317 q 178 162 111 222 q 322 101 244 101 q 420 138 383 101 q 457 235 457 174 q 431 333 457 286 q 358 408 404 381 q 293 393 324 397 l 221 383 l 197 471 l 292 488 q 421 531 376 503 q 465 626 465 560 q 360 722 465 722 q 163 650 265 722 l 113 746 q 218 799 161 781 q 325 818 275 818 q 472 762 413 818 q 531 611 531 706 q 501 508 531 553 q 421 435 472 464 q 608 406 532 406 q 757 486 738 406 l 757 592 q 767 703 757 640 l 615 703 l 576 792 l 1304 792 l 1343 703 l 1229 703 m 1082 790 q 1019 926 1065 888 q 885 964 974 964 q 842 963 857 964 l 818 961 q 695 1004 743 961 q 610 1149 647 1047 l 646 1167 q 713 1079 679 1103 q 794 1056 747 1056 q 836 1058 806 1056 q 913 1063 874 1063 q 1075 1006 1014 1063 q 1136 790 1136 949 l 1082 790 z "},"ओ":{"ha":1301,"x_min":14,"x_max":1343,"o":"m 14 0 m 1229 703 q 1178 678 1194 703 q 1161 613 1161 653 l 1161 -75 l 1051 -28 l 1051 592 q 1061 703 1051 639 l 935 703 q 883 678 900 703 q 867 613 867 653 l 867 -75 l 757 -28 l 757 343 q 653 321 704 321 q 518 350 593 321 q 559 278 544 317 q 574 203 574 240 q 549 108 574 151 q 475 38 524 64 q 360 11 426 11 q 14 293 153 11 l 61 317 q 178 162 111 222 q 322 101 244 101 q 420 138 383 101 q 457 235 457 174 q 431 333 457 286 q 358 408 404 381 q 293 393 324 397 l 221 383 l 197 471 l 292 488 q 421 531 376 503 q 465 626 465 560 q 360 722 465 722 q 163 650 265 722 l 113 746 q 218 799 161 781 q 325 818 275 818 q 472 762 413 818 q 531 611 531 706 q 501 508 531 553 q 421 435 472 464 q 608 406 532 406 q 757 486 738 406 l 757 592 q 767 703 757 640 l 615 703 l 576 792 l 1304 792 l 1343 703 l 1229 703 m 1085 771 q 919 980 1010 914 q 736 1046 829 1046 q 656 1033 693 1046 q 638 1031 644 1031 q 594 1048 613 1031 q 575 1092 575 1065 q 604 1144 575 1125 q 682 1163 633 1163 q 848 1116 756 1163 q 1022 981 940 1069 q 1149 771 1104 892 l 1085 771 z "},"औ":{"ha":1301,"x_min":14,"x_max":1343,"o":"m 14 0 m 1229 703 q 1178 678 1194 703 q 1161 613 1161 653 l 1161 -75 l 1051 -28 l 1051 592 q 1061 703 1051 639 l 935 703 q 883 678 900 703 q 867 613 867 653 l 867 -75 l 757 -28 l 757 343 q 653 321 704 321 q 518 350 593 321 q 559 278 544 317 q 574 203 574 240 q 549 108 574 151 q 475 38 524 64 q 360 11 426 11 q 14 293 153 11 l 61 317 q 178 162 111 222 q 322 101 244 101 q 420 138 383 101 q 457 235 457 174 q 431 333 457 286 q 358 408 404 381 q 293 393 324 397 l 221 383 l 197 471 l 292 488 q 421 531 376 503 q 465 626 465 560 q 360 722 465 722 q 163 650 265 722 l 113 746 q 218 799 161 781 q 325 818 275 818 q 472 762 413 818 q 531 611 531 706 q 501 508 531 553 q 421 435 472 464 q 608 406 532 406 q 757 486 738 406 l 757 592 q 767 703 757 640 l 615 703 l 576 792 l 1304 792 l 1343 703 l 1229 703 m 754 1190 q 916 1138 831 1190 q 1062 990 1001 1086 q 1129 771 1122 894 l 1072 771 q 974 865 1024 836 q 871 894 925 894 q 767 874 822 894 q 731 867 746 867 q 683 885 701 867 q 665 929 665 903 q 683 972 665 953 q 731 996 700 990 q 782 1000 756 1000 q 921 968 851 1000 q 1050 867 990 936 q 952 1019 1015 971 q 822 1067 889 1067 q 764 1057 788 1067 q 732 1051 751 1051 q 679 1070 701 1051 q 657 1118 657 1089 q 683 1171 657 1151 q 754 1190 708 1190 z "},"ॳ":{"ha":1007,"x_min":14,"x_max":1049,"o":"m 14 0 m 935 703 q 883 678 900 703 q 867 613 867 653 l 867 -75 l 757 -28 l 757 343 q 653 321 704 321 q 518 350 593 321 q 559 278 544 317 q 574 203 574 240 q 549 108 574 151 q 475 38 524 64 q 360 11 426 11 q 14 293 153 11 l 61 317 q 178 162 111 222 q 322 101 244 101 q 420 138 383 101 q 457 235 457 174 q 431 333 457 286 q 358 408 404 381 q 293 393 324 397 l 221 383 l 197 471 l 292 488 q 421 531 376 503 q 465 626 465 560 q 360 722 465 722 q 163 650 265 722 l 113 746 q 218 799 161 781 q 325 818 275 818 q 472 762 413 818 q 531 611 531 706 q 501 508 531 553 q 421 435 472 464 q 608 406 532 406 q 757 486 738 406 l 757 592 q 767 703 757 640 l 615 703 l 576 792 l 1010 792 l 1049 703 l 935 703 m 689 792 q 740 817 724 792 q 757 882 757 842 l 757 1028 l 867 981 l 867 903 q 857 792 867 856 l 689 792 z "},"ॴ":{"ha":1301,"x_min":14,"x_max":1343,"o":"m 1229 703 q 1178 678 1194 703 q 1161 613 1161 653 l 1161 -75 l 1051 -28 l 1051 592 q 1061 703 1051 639 l 935 703 q 883 678 900 703 q 867 613 867 653 l 867 -75 l 757 -28 l 757 343 q 653 321 704 321 q 518 350 593 321 q 559 278 544 317 q 574 203 574 240 q 549 108 574 151 q 475 38 524 64 q 360 11 426 11 q 14 293 153 11 l 61 317 q 178 162 111 222 q 322 101 244 101 q 420 138 383 101 q 457 235 457 174 q 431 333 457 286 q 358 408 404 381 q 293 393 324 397 l 221 383 l 197 471 l 292 488 q 421 531 376 503 q 465 626 465 560 q 360 722 465 722 q 163 650 265 722 l 113 746 q 218 799 161 781 q 325 818 275 818 q 472 762 413 818 q 531 611 531 706 q 501 508 531 553 q 421 435 472 464 q 608 406 532 406 q 757 486 738 406 l 757 592 q 767 703 757 640 l 615 703 l 576 792 l 997 792 q 1049 817 1032 792 q 1065 882 1065 842 l 1065 1028 l 1175 981 l 1175 903 q 1165 792 1175 856 l 1304 792 l 1343 703 l 1229 703 z "},"ॵ":{"ha":1301,"x_min":14,"x_max":1343,"o":"m 1229 703 q 1178 678 1194 703 q 1161 613 1161 653 l 1161 -75 l 1051 -28 l 1051 592 q 1061 703 1051 639 l 935 703 q 883 678 900 703 q 867 613 867 653 l 867 -75 l 757 -28 l 757 343 q 653 321 704 321 q 518 350 593 321 q 559 278 544 317 q 574 203 574 240 q 549 108 574 151 q 475 38 524 64 q 360 11 426 11 q 14 293 153 11 l 61 317 q 178 162 111 222 q 322 101 244 101 q 420 138 383 101 q 457 235 457 174 q 431 333 457 286 q 358 408 404 381 q 293 393 324 397 l 221 383 l 197 471 l 292 488 q 421 531 376 503 q 465 626 465 560 q 360 722 465 722 q 163 650 265 722 l 113 746 q 218 799 161 781 q 325 818 275 818 q 472 762 413 818 q 531 611 531 706 q 501 508 531 553 q 421 435 472 464 q 608 406 532 406 q 757 486 738 406 l 757 592 q 767 703 757 639 l 615 703 l 576 792 l 1074 792 q 1026 855 1054 836 q 957 874 999 874 q 875 861 921 874 q 808 853 839 853 q 709 886 751 853 q 631 993 667 919 l 664 1017 q 724 948 696 968 q 786 928 751 928 q 865 942 814 928 q 950 954 915 954 q 1114 811 1083 954 q 1117 858 1117 828 l 1117 861 q 992 1008 1117 1008 q 969 1007 978 1008 q 911 1004 928 1004 q 769 1041 824 1004 q 686 1168 715 1078 l 726 1188 q 787 1108 751 1129 q 878 1086 822 1086 q 961 1092 921 1086 q 997 1094 986 1094 l 1007 1094 q 1135 1055 1088 1094 q 1182 931 1182 1015 q 1157 792 1182 874 l 1304 792 l 1343 703 l 1229 703 z "},"ॶ":{"ha":1007,"x_min":14,"x_max":1049,"o":"m 14 0 m 935 703 q 883 678 900 703 q 867 613 867 653 l 867 -75 l 757 -28 l 757 343 q 653 321 704 321 q 518 350 593 321 q 559 278 544 317 q 574 203 574 240 q 549 108 574 151 q 475 38 524 64 q 360 11 426 11 q 14 293 153 11 l 61 317 q 178 162 111 222 q 322 101 244 101 q 420 138 383 101 q 457 235 457 174 q 431 333 457 286 q 358 408 404 381 q 293 393 324 397 l 221 383 l 197 471 l 292 488 q 421 531 376 503 q 465 626 465 560 q 360 722 465 722 q 163 650 265 722 l 113 746 q 218 799 161 781 q 325 818 275 818 q 472 762 413 818 q 531 611 531 706 q 501 508 531 553 q 421 435 472 464 q 608 406 532 406 q 757 486 738 406 l 757 592 q 767 703 757 640 l 615 703 l 576 792 l 1010 792 l 1049 703 l 935 703 m 292 -47 q 387 -122 336 -96 q 489 -147 438 -147 q 678 -44 596 -147 q 726 -22 696 -22 q 768 -37 750 -22 q 786 -79 786 -51 q 765 -133 786 -112 q 665 -203 726 -175 q 539 -231 603 -231 q 391 -194 467 -231 q 253 -82 315 -157 l 292 -47 z "},"ॷ":{"ha":1007,"x_min":14,"x_max":1049,"o":"m 935 703 q 883 678 900 703 q 867 613 867 653 l 867 -75 l 757 -28 l 757 343 q 653 321 704 321 q 518 350 593 321 q 559 278 544 317 q 574 203 574 240 q 549 108 574 151 q 475 38 524 64 q 360 11 426 11 q 14 293 153 11 l 61 317 q 178 162 111 222 q 322 101 244 101 q 420 138 383 101 q 457 235 457 174 q 431 333 457 286 q 358 408 404 381 q 293 393 324 397 l 221 383 l 197 471 l 292 488 q 421 531 376 503 q 465 626 465 560 q 360 722 465 722 q 163 650 265 722 l 113 746 q 218 799 161 781 q 325 818 275 818 q 472 762 413 818 q 531 611 531 706 q 501 508 531 553 q 421 435 472 464 q 608 406 532 406 q 757 486 738 406 l 757 592 q 767 703 757 640 l 615 703 l 576 792 l 1010 792 l 1049 703 l 935 703 m 532 -243 q 384 -206 460 -243 q 246 -94 308 -169 l 285 -60 q 380 -134 329 -108 q 482 -160 431 -160 q 671 -57 589 -160 q 719 -35 689 -35 q 761 -50 743 -35 q 779 -92 779 -64 q 758 -146 779 -125 q 658 -215 719 -187 q 532 -243 596 -243 m 789 -247 q 807 -289 807 -261 q 786 -343 807 -322 q 685 -412 747 -385 q 560 -440 624 -440 q 412 -403 488 -440 q 274 -292 336 -367 l 313 -257 q 408 -331 357 -306 q 510 -357 458 -357 q 699 -254 617 -357 q 747 -232 717 -232 q 789 -247 771 -232 z "},"ा":{"ha":389,"x_min":-42,"x_max":431,"o":"m 317 703 q 265 678 282 703 q 249 613 249 653 l 249 -75 l 139 -28 l 139 592 q 149 703 139 640 l -3 703 l -42 792 l 392 792 l 431 703 l 317 703 z "},"ि":{"ha":415,"x_min":-42,"x_max":807,"o":"m 286 1168 q 472 1131 374 1167 q 659 1027 569 1094 q 807 869 749 960 l 757 853 q 638 968 713 917 q 481 1048 564 1019 q 328 1076 399 1076 q 213 1044 256 1076 q 171 943 171 1011 q 217 792 171 879 l 392 792 l 431 703 l 317 703 q 265 678 282 703 q 249 613 249 653 l 249 -75 l 139 -28 l 139 592 q 149 703 139 640 l -3 703 l -42 792 l 136 792 q 60 990 60 901 q 123 1122 60 1076 q 286 1168 186 1168 z "},"ी":{"ha":378,"x_min":-322,"x_max":419,"o":"m 306 703 q 254 678 271 703 q 238 613 238 653 l 238 -75 l 128 -28 l 128 592 q 138 703 128 640 l -14 703 l -53 792 l 144 792 q 25 997 94 924 q -119 1069 -44 1069 q -202 1044 -168 1069 q -236 976 -236 1019 q -206 890 -236 938 l -236 857 q -301 936 -279 896 q -322 1014 -322 976 q -270 1118 -322 1076 q -139 1160 -218 1160 q 19 1108 -53 1160 q 140 974 90 1057 q 215 792 190 890 l 381 792 l 419 703 l 306 703 z "},"ॉ":{"ha":389,"x_min":-42,"x_max":431,"o":"m 0 0 m 317 703 q 265 678 282 703 q 249 613 249 653 l 249 -75 l 139 -28 l 139 592 q 149 703 139 640 l -3 703 l -42 792 l 392 792 l 431 703 l 317 703 m 13 1094 q 168 989 85 989 q 319 1090 249 992 l 394 1018 q 311 922 360 954 q 208 890 263 890 q 76 935 142 890 q -35 1056 11 979 l 13 1094 z "},"ॊ":{"ha":389,"x_min":-303,"x_max":431,"o":"m 317 703 q 265 678 282 703 q 249 613 249 653 l 249 -75 l 139 -28 l 139 592 q 149 703 139 639 l -3 703 l -42 792 l 169 792 q 106 925 153 888 q -28 963 60 963 q -71 961 -56 963 l -94 960 q -217 1003 -169 960 q -303 1147 -265 1046 l -267 1165 q -199 1078 -233 1101 q -118 1054 -165 1054 q -76 1057 -107 1054 q 0 1061 -39 1061 q 161 1005 100 1061 q 224 792 222 949 l 392 792 l 431 703 l 317 703 z "},"ो":{"ha":389,"x_min":-344,"x_max":431,"o":"m 317 703 q 265 678 282 703 q 249 613 249 653 l 249 -75 l 139 -28 l 139 592 q 149 703 139 640 l -3 703 l -42 792 l 154 792 q -7 984 81 924 q -183 1044 -94 1044 q -264 1033 -224 1044 q -282 1031 -275 1031 q -326 1048 -307 1031 q -344 1092 -344 1065 q -315 1144 -344 1125 q -237 1163 -286 1163 q -77 1119 -167 1163 q 94 990 13 1075 q 221 792 175 906 l 392 792 l 431 703 l 317 703 z "},"ौ":{"ha":389,"x_min":-239,"x_max":431,"o":"m 0 0 m 317 703 q 265 678 282 703 q 249 613 249 653 l 249 -75 l 139 -28 l 139 592 q 149 703 139 640 l -3 703 l -42 792 l 392 792 l 431 703 l 317 703 m -142 1211 q 20 1159 -65 1211 q 166 1011 106 1107 q 233 792 226 915 l 176 792 q 78 886 128 857 q -25 915 29 915 q -129 894 -74 915 q -165 888 -150 888 q -212 906 -194 888 q -231 950 -231 924 q -213 992 -231 974 q -165 1017 -196 1011 q -114 1021 -140 1021 q 25 989 -44 1021 q 154 888 94 957 q 56 1040 119 992 q -74 1088 -7 1088 q -132 1078 -108 1088 q -164 1072 -144 1072 q -217 1091 -194 1072 q -239 1139 -239 1110 q -213 1192 -239 1172 q -142 1211 -187 1211 z "},"ॎ":{"ha":401,"x_min":151,"x_max":443,"o":"m 261 -75 l 151 -28 l 151 681 q 158 792 151 744 l 404 792 l 443 703 l 261 703 l 261 -75 z "},"ऻ":{"ha":389,"x_min":-42,"x_max":431,"o":"m 0 0 m 99 792 q 150 817 133 792 q 167 882 167 842 l 167 1028 l 276 981 l 276 903 q 267 792 276 856 l 99 792 m 317 703 q 265 678 282 703 q 249 613 249 653 l 249 -75 l 139 -28 l 139 592 q 149 703 139 640 l -3 703 l -42 792 l 392 792 l 431 703 l 317 703 z "},"ॏ":{"ha":389,"x_min":-292,"x_max":431,"o":"m 317 703 q 265 678 282 703 q 249 613 249 653 l 249 -75 l 139 -28 l 139 592 q 149 703 139 639 l -3 703 l -42 792 l 151 792 q 104 855 132 836 q 35 874 76 874 q -47 861 -1 874 q -114 853 -83 853 q -213 886 -171 853 q -292 993 -256 919 l -258 1017 q -199 948 -226 968 q -136 928 -171 928 q -57 942 -108 928 q 28 954 -7 954 q 192 811 161 954 q 194 858 194 828 l 194 861 q 69 1008 194 1008 q 47 1007 56 1008 q -11 1004 6 1004 q -153 1041 -99 1004 q -236 1168 -207 1078 l -196 1188 q -135 1108 -171 1129 q -44 1086 -100 1086 q 39 1092 -1 1086 q 75 1094 64 1094 l 85 1094 q 213 1055 165 1094 q 260 931 260 1015 q 235 792 260 874 l 392 792 l 431 703 l 317 703 z "},"⁄":{"ha":661,"x_min":-36,"x_max":696,"o":"m 29 -33 l -36 11 l 622 1006 l 696 954 l 29 -33 z "},"½":{"ha":1090,"x_min":53,"x_max":1040,"o":"m 53 0 m 328 403 l 99 403 l 99 458 q 153 481 139 457 q 167 553 167 504 l 167 876 l 82 825 l 53 878 l 215 996 l 258 996 l 260 510 q 258 464 260 478 l 328 467 l 328 403 m 231 -33 l 165 11 l 824 1006 l 897 954 l 231 -33 m 854 586 q 977 546 926 586 q 1028 429 1028 506 q 994 329 1028 381 q 863 207 961 278 q 758 94 778 143 l 865 92 l 917 90 q 976 101 958 90 q 992 147 993 113 l 1040 147 l 1035 0 l 665 0 q 706 144 663 83 q 831 274 749 206 q 899 353 882 315 q 917 428 917 392 q 896 495 917 471 q 836 519 875 519 q 786 507 807 519 q 758 475 765 494 q 769 440 769 461 q 757 407 769 424 q 721 392 744 390 q 688 408 701 392 q 675 444 675 424 q 697 508 675 475 q 759 564 718 542 q 854 586 800 586 z "},"¼":{"ha":1051,"x_min":53,"x_max":1000,"o":"m 53 0 m 328 401 l 99 401 l 99 457 q 153 479 139 456 q 167 551 167 503 l 167 875 l 82 824 l 53 876 l 215 994 l 258 994 l 260 508 q 258 463 260 476 l 328 465 l 328 401 m 231 -33 l 165 11 l 824 1006 l 897 954 l 231 -33 m 922 61 l 979 64 l 979 0 l 761 0 l 761 57 q 816 76 803 56 q 829 140 829 96 l 829 146 l 594 146 l 594 199 l 875 588 l 921 588 l 922 214 l 1000 213 l 1000 146 l 922 146 l 922 61 m 829 425 l 682 218 l 829 215 l 829 425 z "},"¾":{"ha":1106,"x_min":68,"x_max":1054,"o":"m 68 0 m 328 732 q 416 676 385 718 q 447 581 447 635 q 392 458 447 507 q 246 408 338 408 q 151 428 192 408 q 90 478 111 447 q 68 542 68 508 q 81 582 68 564 q 117 600 94 600 q 155 585 142 601 q 168 547 168 568 q 157 514 168 529 q 186 483 163 494 q 239 472 210 472 q 314 504 288 472 q 340 581 340 536 q 317 658 340 625 q 232 693 293 692 l 188 692 l 188 753 l 210 753 q 318 844 318 753 q 300 908 318 882 q 240 933 282 933 q 190 921 210 933 q 165 889 171 908 q 176 856 176 875 q 164 822 176 839 q 128 807 151 806 q 95 823 108 807 q 82 861 82 839 q 103 921 82 889 q 163 974 124 953 q 254 996 201 996 q 374 956 328 996 q 419 853 419 917 q 395 785 419 819 q 328 732 371 751 m 285 -33 l 219 11 l 878 1006 l 951 954 l 285 -33 m 976 61 l 1033 64 l 1033 0 l 815 0 l 815 57 q 870 76 857 56 q 883 140 883 96 l 883 146 l 649 146 l 649 199 l 929 588 l 975 588 l 976 214 l 1054 213 l 1054 146 l 976 146 l 976 61 m 883 425 l 736 218 l 883 215 l 883 425 z "},"¹":{"ha":393,"x_min":53,"x_max":328,"o":"m 328 410 l 99 410 l 99 465 q 153 488 139 464 q 167 560 167 511 l 167 883 l 82 832 l 53 885 l 215 1003 l 258 1003 l 260 517 q 258 471 260 485 l 328 474 l 328 410 z "},"²":{"ha":535,"x_min":75,"x_max":453,"o":"m 267 1003 q 390 963 339 1003 q 440 846 440 922 q 407 746 440 797 q 275 624 374 694 q 171 511 190 560 l 278 508 l 329 507 q 388 518 371 507 q 404 564 406 529 l 453 564 l 447 417 l 78 417 q 118 561 75 500 q 243 690 161 622 q 312 770 294 732 q 329 844 329 808 q 308 912 329 888 q 249 936 288 936 q 199 924 219 936 q 171 892 178 911 q 182 857 182 878 q 169 824 182 840 q 133 808 157 807 q 101 824 114 808 q 88 861 88 840 q 109 925 88 892 q 172 981 131 958 q 267 1003 213 1003 z "},"³":{"ha":514,"x_min":68,"x_max":447,"o":"m 328 739 q 416 683 385 725 q 447 588 447 642 q 392 465 447 514 q 246 415 338 415 q 151 435 192 415 q 90 485 111 454 q 68 549 68 515 q 81 589 68 571 q 117 607 94 607 q 155 592 142 608 q 168 554 168 575 q 157 521 168 536 q 186 490 163 501 q 239 479 210 479 q 314 511 288 479 q 340 588 340 543 q 317 665 340 632 q 232 700 293 699 l 188 699 l 188 760 l 210 760 q 318 851 318 760 q 300 915 318 889 q 240 940 282 940 q 190 928 210 940 q 165 896 171 915 q 176 863 176 882 q 164 829 176 846 q 128 814 151 813 q 95 830 108 814 q 82 868 82 846 q 103 928 82 896 q 163 981 124 960 q 254 1003 201 1003 q 374 963 328 1003 q 419 860 419 924 q 395 792 419 826 q 328 739 371 758 z "},"⁴":{"ha":560,"x_min":50,"x_max":456,"o":"m 378 476 l 435 479 l 435 415 l 217 415 l 217 472 q 272 491 258 471 q 285 556 285 511 l 285 561 l 50 561 l 50 614 l 331 1003 l 376 1003 l 378 629 l 456 628 l 456 561 l 378 561 l 378 476 m 285 840 l 138 633 l 285 631 l 285 840 z "},"०":{"ha":682,"x_min":97,"x_max":585,"o":"m 342 226 q 220 260 276 226 q 131 349 164 293 q 97 471 97 406 q 131 592 97 536 q 220 681 164 647 q 342 714 276 714 q 463 681 407 714 q 551 592 518 647 q 585 471 585 536 q 551 349 585 406 q 463 260 518 293 q 342 226 407 226 m 415 313 q 472 366 451 329 q 493 449 493 403 q 474 533 493 490 q 409 611 451 582 q 322 640 367 640 q 268 628 293 640 q 210 574 231 611 q 189 492 189 538 q 208 408 189 451 q 273 329 231 358 q 361 300 315 300 q 415 313 390 300 z "},"१":{"ha":574,"x_min":72,"x_max":482,"o":"m 381 204 q 439 108 439 168 q 413 26 439 69 q 336 -61 386 -18 l 246 0 q 336 142 336 94 q 314 179 336 165 l 99 314 q 212 399 165 361 q 292 476 258 438 q 131 583 190 526 q 72 715 72 639 q 123 826 72 786 q 265 865 174 865 q 419 813 356 865 q 482 653 482 761 q 422 474 482 558 q 232 296 361 390 l 381 204 m 193 719 q 228 617 193 661 q 333 531 263 572 q 374 668 374 597 q 342 768 374 725 q 271 811 311 811 q 215 786 236 811 q 193 719 193 761 z "},"२":{"ha":603,"x_min":31,"x_max":569,"o":"m 569 644 q 501 447 569 535 q 324 319 432 358 q 226 296 281 303 q 299 132 260 207 q 376 10 339 57 l 275 -56 q 151 297 199 96 q 63 333 96 304 q 31 404 31 361 q 53 462 31 440 q 110 483 75 483 q 161 465 140 483 q 199 406 182 447 q 336 465 268 413 q 448 588 404 517 q 492 715 492 660 q 459 788 492 760 q 367 815 426 815 q 151 739 272 815 l 86 840 q 294 906 182 906 q 432 875 369 906 q 532 785 494 844 q 569 644 569 726 z "},"३":{"ha":614,"x_min":50,"x_max":576,"o":"m 576 385 q 529 271 576 318 q 408 200 482 224 q 251 176 333 176 q 295 100 276 126 q 357 24 314 74 l 267 -28 q 208 75 233 15 q 176 185 182 135 q 50 300 50 208 q 70 349 50 332 q 122 367 90 367 q 191 340 165 367 q 228 257 217 314 q 471 431 471 261 q 358 507 471 507 q 239 493 304 507 l 206 588 l 364 624 q 439 669 413 635 q 465 744 465 704 q 376 819 465 819 q 256 793 324 819 q 131 724 189 767 l 79 840 q 192 883 132 868 q 310 899 253 899 q 463 855 404 899 q 522 721 522 811 q 499 623 522 665 q 438 554 476 581 q 541 490 506 538 q 576 385 576 442 z "},"४":{"ha":718,"x_min":71,"x_max":690,"o":"m 690 832 q 444 581 610 725 q 588 263 588 400 q 551 123 588 181 q 454 36 514 65 q 328 7 394 7 q 176 49 243 7 q 78 225 78 111 q 136 408 78 318 q 297 594 194 499 l 272 618 q 71 881 129 772 l 172 943 q 249 817 207 875 q 357 683 292 758 l 374 665 q 604 925 531 808 l 690 832 m 308 67 q 389 90 350 67 q 452 158 428 113 q 476 268 476 204 q 369 515 476 388 q 229 360 279 436 q 179 207 179 283 q 225 96 179 135 q 308 67 260 67 z "},"५":{"ha":736,"x_min":63,"x_max":715,"o":"m 614 -56 q 500 260 546 79 q 344 213 435 213 q 192 250 256 213 q 95 352 128 288 q 63 499 63 417 q 97 699 63 594 q 199 900 132 804 l 292 819 q 197 637 233 742 q 161 443 161 532 q 296 281 161 281 q 399 308 353 281 q 469 389 444 336 q 418 478 418 422 q 440 531 418 510 q 500 551 463 551 q 568 524 542 551 q 594 456 594 496 q 557 319 594 376 q 633 141 590 222 q 715 10 675 60 l 614 -56 z "},"६":{"ha":646,"x_min":42,"x_max":610,"o":"m 524 -47 q 413 129 450 38 q 342 122 382 122 q 201 158 261 122 q 110 249 142 193 q 78 363 78 306 q 157 517 78 453 q 71 599 100 549 q 42 699 42 649 q 70 792 42 749 q 152 863 99 836 q 276 890 206 890 q 433 849 368 890 l 424 782 q 306 806 368 806 q 217 785 256 806 q 159 731 179 764 q 139 664 139 699 q 159 599 139 631 q 215 553 179 568 q 411 594 300 594 l 442 507 q 169 319 169 481 q 202 229 169 261 q 286 197 235 197 q 385 224 336 197 q 383 253 383 233 q 407 318 383 294 q 467 342 431 342 q 525 319 503 342 q 547 257 547 297 q 490 161 547 199 q 610 13 536 69 l 524 -47 z "},"७":{"ha":781,"x_min":56,"x_max":742,"o":"m 471 797 q 619 739 557 797 q 711 588 681 681 q 742 393 742 494 q 708 213 742 297 q 608 78 674 129 q 453 26 543 26 q 240 88 329 26 q 103 265 151 149 q 56 546 56 382 q 76 779 56 654 l 206 756 q 168 450 168 574 q 227 197 168 279 q 385 114 286 114 q 497 151 446 114 q 581 255 549 189 q 617 403 613 321 q 582 400 594 400 q 447 432 513 400 q 339 521 381 464 q 297 649 297 578 q 348 758 297 718 q 471 797 399 797 m 426 633 q 469 526 425 568 q 588 485 514 485 q 615 486 606 485 q 585 657 611 592 q 506 722 558 722 q 447 697 468 722 q 426 633 425 671 z "},"८":{"ha":643,"x_min":53,"x_max":588,"o":"m 546 703 q 246 452 353 581 q 139 226 139 324 q 160 153 139 185 q 211 108 179 124 q 282 93 243 93 q 416 132 349 93 q 521 236 483 171 l 588 136 q 472 35 540 69 q 332 0 404 0 q 210 27 268 0 q 110 104 151 54 q 53 261 53 174 q 160 524 53 381 q 483 822 268 667 l 546 703 z "},"९":{"ha":592,"x_min":40,"x_max":536,"o":"m 268 464 q 443 279 394 332 q 514 191 492 226 q 536 126 536 156 q 508 51 536 89 q 417 -49 481 14 l 321 32 q 393 112 372 83 q 414 171 414 140 q 399 215 414 192 q 352 274 385 239 q 238 389 319 308 l 154 471 q 69 589 97 526 q 40 710 40 651 q 94 847 40 793 q 244 900 149 900 q 390 861 324 900 q 494 761 456 822 q 533 638 533 700 q 474 508 533 558 q 328 457 414 457 q 268 464 300 457 m 365 792 q 292 800 333 800 q 224 796 251 800 q 194 792 197 792 q 213 800 190 792 q 156 756 176 786 q 136 683 136 725 q 151 612 136 649 q 196 540 167 575 q 242 538 211 538 q 372 574 319 538 q 425 681 425 611 q 403 739 425 704 q 381 778 381 774 q 382 781 381 779 q 365 792 383 782 z "},"*":{"ha":722,"x_min":47,"x_max":672,"o":"m 361 1003 q 419 921 419 1003 q 418 893 419 901 q 392 722 407 788 q 544 800 443 754 q 610 817 578 817 q 668 779 656 817 q 672 757 672 767 q 583 686 672 707 q 515 674 571 683 q 414 660 458 664 q 489 590 450 631 q 535 542 528 549 q 575 458 575 499 q 551 413 575 431 q 519 401 533 401 q 442 465 481 401 q 361 624 379 581 q 281 465 336 569 q 203 401 244 401 q 169 413 188 401 q 147 457 147 431 q 158 501 147 478 q 186 542 169 525 q 210 565 186 542 q 306 660 268 628 q 136 686 261 663 q 74 711 100 694 q 47 757 47 728 q 51 779 47 767 q 108 818 64 818 q 175 800 136 818 q 328 722 285 750 q 301 893 311 790 q 300 917 300 900 q 315 978 300 953 q 361 1003 329 1003 z "},"\\":{"ha":958,"x_min":19,"x_max":940,"o":"m 19 0 m 847 -387 l 940 -329 l 122 1067 l 19 1001 l 847 -387 z "},"·":{"ha":347,"x_min":86,"x_max":263,"o":"m 175 554 q 237 525 211 554 q 263 456 263 496 q 235 387 263 415 q 174 358 208 358 q 113 387 139 358 q 86 456 86 415 q 113 525 86 496 q 175 554 140 554 z "},"•":{"ha":557,"x_min":69,"x_max":488,"o":"m 278 725 q 383 698 335 725 q 459 624 431 671 q 488 519 488 576 q 459 415 488 463 q 383 341 431 368 q 278 314 335 314 q 173 341 221 314 q 97 415 125 368 q 69 519 69 463 q 97 624 69 576 q 173 698 125 671 q 278 725 221 725 z "},":":{"ha":347,"x_min":86,"x_max":263,"o":"m 86 0 m 175 165 q 237 136 211 165 q 263 67 263 107 q 235 -2 263 26 q 174 -31 208 -31 q 113 -2 139 -31 q 86 67 86 26 q 113 136 86 107 q 175 165 140 165 m 175 725 q 237 696 211 725 q 263 626 263 667 q 235 558 263 586 q 174 529 208 529 q 113 558 139 529 q 86 626 86 586 q 113 696 86 667 q 175 725 140 725 z "},",":{"ha":351,"x_min":85,"x_max":274,"o":"m 168 149 q 245 110 217 149 q 274 14 274 71 q 242 -131 274 -46 q 164 -258 210 -215 l 115 -222 q 165 -131 142 -193 q 185 -11 189 -69 q 156 -17 172 -17 q 105 5 125 -17 q 85 60 85 26 q 109 124 85 100 q 168 149 133 149 z "},"…":{"ha":1092,"x_min":82,"x_max":1008,"o":"m 82 0 m 171 165 q 233 136 207 165 q 258 67 258 107 q 231 -2 258 26 q 169 -31 204 -31 q 108 -2 135 -31 q 82 67 82 26 q 109 136 82 107 q 171 165 136 165 m 546 165 q 608 136 582 165 q 633 67 633 107 q 606 -2 633 26 q 544 -31 579 -31 q 483 -2 510 -31 q 457 67 457 26 q 484 136 457 107 q 546 165 511 165 m 921 165 q 983 136 957 165 q 1008 67 1008 107 q 981 -2 1008 26 q 919 -31 954 -31 q 858 -2 885 -31 q 832 67 832 26 q 859 136 832 107 q 921 165 886 165 z "},"!":{"ha":369,"x_min":94,"x_max":275,"o":"m 185 1003 q 252 969 229 1003 q 271 892 275 935 l 215 311 l 153 311 l 97 892 q 118 968 94 933 q 185 1003 142 1003 m 185 165 q 247 136 221 165 q 272 67 272 107 q 245 -2 272 26 q 183 -31 218 -31 q 122 -2 149 -31 q 96 67 96 26 q 123 136 96 107 q 185 165 150 165 z "},"¡":{"ha":338,"x_min":81,"x_max":257,"o":"m 81 0 m 168 -308 q 101 -274 124 -308 q 82 -197 78 -240 l 138 383 l 200 383 l 256 -197 q 235 -274 258 -239 q 168 -308 211 -308 m 168 529 q 106 558 132 529 q 81 628 81 588 q 108 697 81 668 q 169 725 135 725 q 231 697 204 725 q 257 628 257 668 q 230 558 257 588 q 168 529 203 529 z "},"#":{"ha":1153,"x_min":36,"x_max":1113,"o":"m 1113 743 l 1113 732 l 1090 643 l 860 643 l 792 339 l 1024 339 l 997 239 l 769 239 l 708 -31 l 593 -31 l 656 239 l 381 239 l 319 -31 l 204 -31 l 267 239 l 36 239 l 63 339 l 290 339 l 363 643 l 128 643 l 154 743 l 386 743 l 447 1003 l 554 1003 l 494 743 l 775 743 l 836 1003 l 943 1003 l 883 743 l 1113 743 m 403 339 l 679 339 l 750 643 l 471 643 l 403 339 z "},".":{"ha":342,"x_min":82,"x_max":258,"o":"m 171 165 q 233 136 207 165 q 258 67 258 107 q 231 -2 258 26 q 169 -31 204 -31 q 108 -2 135 -31 q 82 67 82 26 q 109 136 82 107 q 171 165 136 165 z "}}}
